<?xml version="1.0" encoding="UTF-8" standalone="no"?>
<svg width="24px" height="24px" viewBox="0 0 24 24" version="1.1" xmlns="http://www.w3.org/2000/svg" xmlns:xlink="http://www.w3.org/1999/xlink" xmlns:sketch="http://www.bohemiancoding.com/sketch/ns">
    <!-- Generator: Sketch 3.5 (25232) - http://www.bohemiancoding.com/sketch -->
    <title>Harvest 24</title>
    <desc>Created with Sketch.</desc>
    <defs></defs>
    <g id="Event-icons" stroke="none" stroke-width="1" fill="none" fill-rule="evenodd" sketch:type="MSPage">
        <g id="Harvest-24" sketch:type="MSArtboardGroup" fill="#818076">
            <g id="Rectangle-79-+-Rectangle-85" sketch:type="MSLayerGroup" transform="translate(0.000000, 3.000000)">
                <path d="M10,8 L1.13437047,8 C0.256262152,8 -0.204052094,8.67027497 0.115245346,9.49710104 L2.82069141,16.502899 C3.13945554,17.328344 4.11516306,18 4.99880397,18 L18.9697156,18 C19.8537395,18 20.830773,17.329725 21.1528364,16.502899 L23.8817192,9.49710104 C24.2032447,8.67165598 23.7497471,8 22.8676024,8 L13,8 L13,1.49377584 C13,0.680093561 12.3284271,0 11.5,0 C10.6657972,0 10,0.668786226 10,1.49377584 L10,8 Z M22.8703156,8.26969627 C22.9537305,8.07634485 23,7.86338301 23,7.63970641 L23,5.60079992 C23,4.71768188 22.2813405,4 21.3948291,4 L20.2276485,4 C19.3453364,4 18.6224776,4.71670254 18.6224776,5.60079992 L18.6224776,7 L22.8703156,7 L22.8703156,8.26969627 L22.8703156,8.26969627 Z M18.6224776,7 L18.6224776,5.60079992 C18.6224776,4.71768188 17.9038181,4 17.0173067,4 L15.8501261,4 C14.967814,4 14.2449552,4.71670254 14.2449552,5.60079992 L14.2449552,7 L18.6224776,7 L18.6224776,7 Z M8.87965773,7 L8.87965773,5.60079992 C8.87965773,4.71768188 8.16220335,4 7.27717851,4 L6.54230809,4 C5.66245421,4 4.93982887,4.71670254 4.93982887,5.60079992 L4.93982887,7 L8.87965773,7 L8.87965773,7 Z M4.93982887,7 L4.93982887,5.60079992 C4.93982887,4.71768188 4.22237448,4 3.33734965,4 L2.60247922,4 C1.72262534,4 1,4.71670254 1,5.60079992 L1,7 L4.93982887,7 L4.93982887,7 Z" id="harvest-basket" sketch:type="MSShapeGroup"></path>
            </g>
        </g>
    </g>
</svg>