<?xml version="1.0" encoding="UTF-8" standalone="no"?>
<svg width="24px" height="24px" viewBox="0 0 24 24" version="1.1" xmlns="http://www.w3.org/2000/svg" xmlns:xlink="http://www.w3.org/1999/xlink" xmlns:sketch="http://www.bohemiancoding.com/sketch/ns">
    <!-- Generator: Sketch 3.5 (25232) - http://www.bohemiancoding.com/sketch -->
    <title>transplant-24</title>
    <desc>Created with Sketch.</desc>
    <defs></defs>
    <g id="Event-icons" stroke="none" stroke-width="1" fill="none" fill-rule="evenodd" sketch:type="MSPage">
        <g id="transplant-24" sketch:type="MSArtboardGroup">
            <g id="Plant" sketch:type="MSLayerGroup" transform="translate(0.000000, 3.000000)">
                <path d="M6,14.5 L6,2 L13,2 L12.5,3 L20,3 L20,18 L11.5,18 L10.5,14.5 L6,14.5 Z" id="Rectangle-36" fill="#FFFFFF" sketch:type="MSShapeGroup"></path>
                <path d="M9.97632581,9 L9.89129426,7.14176245 L9.75349899,7.14176245 C9.18201487,7.14176245 8.66303,6.67800634 8.59453536,6.1077785 L8.28330524,4 C8.21471142,2.94568901 8.59453535,3 9.19936981,3 L22.7884897,3 C23.3933242,3 23.773049,2.94651473 23.7045543,4 L23.3933242,6.1077785 C23.3247304,6.67883207 22.8014863,7.14176245 22.2343606,7.14176245 L22.0965653,7.14176245 L21.6379469,17.1641834 C21.6115953,17.740058 21.0662292,18.9999992 20.5000003,18.9999992 L12.0000001,18.9999992 C11.4295389,18.9999992 10.3763717,17.7424045 10.3499127,17.1641834 L10.1593628,13 L12.9999999,12.9999999 L12.9999999,17 L20.0000004,11 L12.9999999,4.9999997 L12.9999999,9.00000018 L9.97632581,9 Z M12.9999997,1.0513916 C13.0716925,0.465469068 12.5825192,0 11.9999997,0 L0.954589097,0 C0.378240118,0 -0.0425586087,0.470724054 0.028491243,1.0513916 L0.251256472,2.87198005 C0.320701808,3.43953441 0.823359133,3.89406916 1.38897201,3.92200993 C1.38808143,3.94968808 1.38827328,3.97766374 1.38958928,4.00589638 L1.91921951,12.9366324 C1.94691158,13.530718 2.91226978,14.5 3.4999999,14.5 L8.99999967,14.5 L8.99999967,8.5 L8.49999967,8.5 C7.79529712,8.5 7.09811015,7.56121639 7.01364875,6.87094058 L6.6298679,2.9068372 C6.5452842,2.21556183 6.5138308,2 8.00000014,2 L12.9999997,2 L12.9999997,1.0513916 Z" id="Plant-Copy" fill="#818076" sketch:type="MSShapeGroup"></path>
            </g>
        </g>
    </g>
</svg>