<?xml version="1.0" encoding="UTF-8" standalone="no"?>
<svg width="512px" height="512px" viewBox="0 0 512 512" version="1.1" xmlns="http://www.w3.org/2000/svg" xmlns:xlink="http://www.w3.org/1999/xlink" xmlns:sketch="http://www.bohemiancoding.com/sketch/ns">
    <!-- Generator: Sketch 3.3 (11970) - http://www.bohemiancoding.com/sketch -->
    <title>Grow Spaces</title>
    <desc>Created with Sketch.</desc>
    <defs>
        <path id="path-1" d="M215,430.685393 C333.741221,430.685393 430,334.426614 430,215.685393 C430,96.9441721 333.741221,0.685393258 215,0.685393258 C96.2587788,0.685393258 0,96.9441721 0,215.685393 C0,334.426614 96.2587788,430.685393 215,430.685393 Z"></path>
        <linearGradient x1="33.4127287%" y1="112.264702%" x2="2.49359063%" y2="0%" id="linearGradient-3">
            <stop stop-color="#000000" stop-opacity="0" offset="0%"></stop>
            <stop stop-color="#000000" stop-opacity="0.0948256341" offset="9.625512%"></stop>
            <stop stop-color="#000000" stop-opacity="0" offset="22.0551126%"></stop>
            <stop stop-color="#000000" stop-opacity="0.168308424" offset="33.7761483%"></stop>
            <stop stop-color="#000000" stop-opacity="0" offset="47.3056246%"></stop>
            <stop stop-color="#000000" stop-opacity="0.173205389" offset="57.0070217%"></stop>
            <stop stop-color="#000000" stop-opacity="0" offset="70.5337213%"></stop>
            <stop stop-color="#000000" stop-opacity="0.182150136" offset="80.7876276%"></stop>
            <stop stop-color="#000000" stop-opacity="0" offset="90.5193718%"></stop>
            <stop stop-color="#000000" stop-opacity="0.180310236" offset="100%"></stop>
        </linearGradient>
        <path id="path-4" d="M0,13 C0,13 99.9882812,0.3984375 218.453125,0.3984375 C336.917969,0.3984375 451,13 451,13 L451,267 L0,267 L0,13 Z"></path>
        <path id="path-5" d="M250,489.685393 C368.741221,489.685393 465,393.426614 465,274.685393 C465,242.467905 470.34375,8.05946513e-07 470.34375,8.05946513e-07 L43.3242187,8.05946513e-07 C43.3242187,8.05946513e-07 35,214.687214 35,274.685393 C35,393.426614 131.258779,489.685393 250,489.685393 Z"></path>
        <linearGradient x1="46.2870695%" y1="54.605811%" x2="51.0582749%" y2="54.6058111%" id="linearGradient-7">
            <stop stop-color="#000000" stop-opacity="0" offset="0%"></stop>
            <stop stop-color="#000000" stop-opacity="0.248245018" offset="100%"></stop>
        </linearGradient>
        <rect id="path-8" x="192" y="2" width="18" height="263" rx="18"></rect>
        <linearGradient x1="50%" y1="45.2806122%" x2="50%" y2="52.4334343%" id="linearGradient-9">
            <stop stop-color="#000000" stop-opacity="0" offset="0%"></stop>
            <stop stop-color="#000000" stop-opacity="0.248245018" offset="100%"></stop>
        </linearGradient>
        <rect id="path-10" x="0" y="0" width="413" height="17" rx="8"></rect>
        <path id="path-11" d="M0,0 L87,0 L87,146 C87,146 71.9896331,161.697955 56,165.330078 C54.4290712,165.686922 62.7450142,172.861328 62.8212891,175.745605 C62.8732189,177.709292 61.592041,178.524902 59.1376953,179.527832 C56.6833496,180.530762 53.2043497,180.14977 51.4614258,179.527832 C47.9365234,178.27002 47.8129883,178.524902 45.9863281,179.527832 C44.4477847,180.372571 43.4987316,182.709171 40.1420898,182.522949 C36.4150391,182.316177 35.8496094,178.986084 33.9023438,178.524902 C31.9550781,178.063721 30.3413086,180.646973 28.1723633,179.843018 C25.5817916,178.88278 24.7629395,177.537354 25.3603516,175.745605 C25.9577637,173.953857 32.9846075,165.509989 31.6318359,165.330078 C17.0268555,163.387695 0,139 0,139 L0,0 Z"></path>
        <path id="path-13" d="M0,2.00104344 C0,0.895897664 0.884599115,0.167078882 1.96491512,0.364505265 L12.6951647,1.90621838 C13.7949618,1.95801254 15.5858486,1.9788923 16.6829245,1.91277647 L28.0479135,0.348373413 C29.1260211,0.15597209 30,0.90009892 30,2.00104344 L30,0.998956561 C30,2.10410234 29.1173503,3.16028759 28.0214531,3.35295603 L16.6657264,4.9140625 C15.5726428,4.96152447 13.7976835,4.97753906 12.6951647,4.90621838 L1.95202059,3.36218491 C0.873949389,3.16215571 0,2.09990108 0,0.998956561 L0,2.00104344 Z"></path>
        <path id="path-15" d="M5.10510254,0.0738525438 C3.70506072,0.332641614 3.42163086,1.44177241 3.42163086,1.44177241 L0.711425781,7.13317871 C0.711425781,7.13317871 0.82043457,7.99450684 1.3001709,8.42919922 C1.77990723,8.8638916 3.00610352,8.10864258 3.00610352,8.10864258 L6.69848633,1.07397461 C6.69848633,1.07397461 6.50514436,-0.184936527 5.10510254,0.0738525438 Z"></path>
        <path id="path-17" d="M0.258397755,0.723754883 C0.258397755,0.723754883 1.68332451,2.6817627 2.23788994,4.77087402 C2.79245537,6.85998535 2.64352959,11.0151367 2.64352959,11.0151367 C2.64352959,11.0151367 3.17490166,12.0356445 3.86179131,12.0356445 C4.54868096,12.0356445 5.09384697,11.1212158 5.09384697,11.1212158 C5.09384697,11.1212158 5.37802666,6.95959473 4.51376885,4.33178711 C3.64951104,1.70397949 2.38303154,0.170654297 2.38303154,0.170654297 L0.258397755,0.723754883 Z"></path>
        <path id="path-19" d="M76.7460938,81.0566406 C77.5704695,70.7687539 76.7460938,52.3945312 76.7460938,52.3945312 C76.7460938,52.3945312 58.8352466,50.5484271 46.9189453,47.625 C33.2532153,44.2723854 0,33.5664062 0,33.5664062 L0,0 L134.828125,0 L128.359375,162.113281 C128.359375,162.113281 105.932617,159.386719 92.5009766,156.289062 C79.0693359,153.191406 69.1552734,147.125 69.1552734,147.125 C69.1552734,147.125 75.040196,102.345577 76.7460938,81.0566406 Z"></path>
        <path id="path-21" d="M76.7460938,82.5078125 C78.0719548,69.4306819 76.7460938,52.3945312 76.7460938,52.3945312 C76.7460938,52.3945312 62.7178235,51.3275163 55.9453125,49.6660156 C37.1357922,45.0514746 0,33.5664062 0,33.5664062 L0,0 L134.828125,0 L128.359375,162.113281 C128.359375,162.113281 98.1572266,159.007813 89.4345703,155.893555 C80.7119141,152.779297 67.4140625,144.4375 67.4140625,144.4375 C67.4140625,144.4375 74.9612778,100.111671 76.7460938,82.5078125 Z"></path>
        <circle id="path-23" cx="46.5" cy="46.5" r="46.5"></circle>
        <path id="path-25" d="M23,4 C23,4 36.8385417,0 45,0 C51.8385417,0 68,4 68,4 L88,87.1523438 C88,87.1523438 63.3847656,92.0507812 45,92.0507812 C26.6152344,92.0507812 0.9375,87.1523438 0.9375,87.1523438 L23,4 Z"></path>
    </defs>
    <g id="Module-Icons" stroke="none" stroke-width="1" fill="none" fill-rule="evenodd" sketch:type="MSPage">
        <g id="Grow-Spaces" sketch:type="MSArtboardGroup">
            <g id="garden" sketch:type="MSLayerGroup">
                <rect id="hit" sketch:type="MSShapeGroup" x="0" y="0" width="512" height="512"></rect>
                <g id="Circle-BG" transform="translate(35.000000, 59.000000)">
                    <mask id="mask-2" sketch:name="Mask" fill="white">
                        <use xlink:href="#path-1"></use>
                    </mask>
                    <use id="Mask" fill="#5DC1F0" sketch:type="MSShapeGroup" xlink:href="#path-1"></use>
                    <g id="Ground" mask="url(#mask-2)">
                        <g transform="translate(-10.000000, 214.000000)">
                            <path d="M0,13 C0,13 99.9882812,0.3984375 218.453125,0.3984375 C336.917969,0.3984375 451,13 451,13 L451,267 L0,267 L0,13 Z" id="Earth" fill="#70563B" fill-rule="evenodd" sketch:type="MSShapeGroup"></path>
                            <g id="Plowed">
                                <use fill="#70563B" fill-rule="evenodd" sketch:type="MSShapeGroup" xlink:href="#path-4"></use>
                                <use fill="url(#linearGradient-3)" fill-rule="evenodd" xlink:href="#path-4"></use>
                                <use fill="none" xlink:href="#path-4"></use>
                            </g>
                            <ellipse id="Shadow" fill-opacity="0.170346467" fill="#000000" fill-rule="evenodd" sketch:type="MSShapeGroup" cx="217" cy="140" rx="104" ry="19"></ellipse>
                        </g>
                    </g>
                </g>
                <mask id="mask-6" sketch:name="Mask" fill="white">
                    <use xlink:href="#path-5"></use>
                </mask>
                <use id="Mask" sketch:type="MSShapeGroup" xlink:href="#path-5"></use>
                <g id="scarecrow" mask="url(#mask-6)">
                    <g transform="translate(41.000000, 11.000000)">
                        <g id="poles" transform="translate(0.000000, 145.000000)">
                            <g id="Rectangle-49">
                                <use fill="#9A7F5A" sketch:type="MSShapeGroup" xlink:href="#path-8"></use>
                                <use fill="url(#linearGradient-7)" xlink:href="#path-8"></use>
                            </g>
                            <g id="Rectangle-51">
                                <use fill="#9A7F5A" sketch:type="MSShapeGroup" xlink:href="#path-10"></use>
                                <use fill="url(#linearGradient-9)" xlink:href="#path-10"></use>
                            </g>
                        </g>
                        <g id="tshirt" transform="translate(159.000000, 145.000000)">
                            <mask id="mask-12" sketch:name="Material" fill="white">
                                <use xlink:href="#path-11"></use>
                            </mask>
                            <use id="Material" fill="#D4C17F" sketch:type="MSShapeGroup" xlink:href="#path-11"></use>
                            <path d="M60.0096408,169.321592 C60.5908802,169.306698 60.9206543,169.297852 60.9206543,169.297852 L72.6567383,166.71167 L72.6567383,153.745114 L75.8833008,151.707031 L77.6738281,18.9453125 L74.1783014,19.4181953 L74.1783014,19.4181953 C80.8693224,13.6386434 85,5.69580129 85,-3.0703125 C85,-20.7434245 68.2106781,-35.0703125 47.5,-35.0703125 C26.7893219,-35.0703125 10,-20.7434245 10,-3.0703125 C10,-1.77792459 10.0897827,-0.503430986 10.2643161,0.748874259 L5.63867188,1.5234375 L-2.06054687,156.113281 L13.3259132,157.694509 L13.3259132,157.694509 L10.4504395,161.786133 L21.8068848,169.297852 C21.8068848,169.297852 24.9279894,169.384049 28.8794725,169.471288 L28.1486816,171.71167 C28.1486816,171.71167 29.2756348,170.795654 30.453125,170.144531 C31.6306152,169.493408 32.9780273,170.124023 33.6323242,171.71167 C34.2866211,173.299316 37.4150391,173.426025 38.1245117,171.188477 C38.3630985,170.436017 39.0679371,169.91129 39.9487697,169.647571 C40.3766807,169.649891 40.7868272,169.651123 41.175293,169.651123 C41.6626927,169.651123 42.1862929,169.649183 42.7380514,169.64559 C43.6930373,169.919888 44.5418621,170.490744 44.9892889,171.392005 C46.3122559,174.056885 52.0097486,173.910287 52.7888184,171.71167 C53.6259766,169.349121 56.5930176,169.724609 57.7895508,170.144531 C58.986084,170.564453 60.684082,171.71167 60.684082,171.71167 L60.0096408,169.321592 L60.0096408,169.321592 Z M31.0161098,159.479585 C30.548589,159.042964 26.1231102,154.789937 24.9423828,149.174316 C23.7718324,143.607098 23.5038519,136.668058 24.3573087,123.776716 C26.1027007,97.4128192 29.0856319,54.2397383 31.0679645,25.702023 L31.0679645,25.702023 C36.0300415,27.769446 41.6062382,28.9296875 47.5,28.9296875 C52.4782853,28.9296875 57.2299981,28.1018925 61.5764212,26.5988079 C62.8407945,43.7483268 66.7095629,97.8415837 67.9834257,134.382596 C68.1258717,138.46869 68.6850586,141.105469 67.3061523,146.90625 C66.4896216,150.341231 64.3177408,154.758224 62.6819912,157.789735 C61.0348431,158.931924 58.7202461,160.681761 57.7573242,161.008301 C56.7372493,161.354222 55.5781073,159.871439 54.1220703,159.928955 C52.6335495,159.987754 51.0643766,160.807248 49.9897461,161.008301 C48.8699021,161.217812 47.1296377,158.63598 46.0339355,158.801025 C44.0973785,159.092728 43.3556332,161.786133 41.5535889,161.786133 C39.4838735,161.786133 38.8636488,158.801025 36.5661621,158.801025 C35.3696289,158.801025 33.5426203,160.082349 32.8408203,159.928955 C32.2211299,159.793508 31.6124451,159.642825 31.0161098,159.479585 L31.0161098,159.479585 Z M25.6953125,173.945312 C25.6953125,173.945312 25.6804199,176.640381 28.0981445,177.098389 C30.5158691,177.556396 32.3479007,176.534424 33.4816895,176.534424 C34.6154782,176.534424 37.0856937,179.017578 38.7370605,179.559814 C40.3884274,180.102051 43.0681155,179.18042 44.7441406,178.139404 C46.4201657,177.098389 47.6284183,176.874512 48.9716797,176.874512 C50.3149411,176.874512 54.2343734,178.060791 56.0007324,178.060791 C57.7670915,178.060791 61.6137679,177.187012 62.1530762,175.566162 C62.6923844,173.945312 63.28125,173.543945 63.28125,173.543945 L66.3125,182.572021 L25.598877,186.213867 L22.2624512,180.129639 L25.6953125,173.945312 Z" id="Shadow" fill-opacity="0.293308424" fill="#000000" sketch:type="MSShapeGroup" mask="url(#mask-12)"></path>
                            <path d="M28.8061344,165.830165 C28.9132034,164.730181 29.8559333,164.085429 30.9286451,164.365808 L41.6944626,165.981688 C42.7946472,166.00751 44.5908817,166.01666 45.6940861,165.973213 L57.0586864,164.300229 C58.1308443,164.045205 59.2670494,164.687736 59.6007403,165.748937 L59.7509445,166.226616 C60.0827242,167.281739 59.508702,168.438056 58.4564468,168.776016 L45.6838654,170.957308 C44.5807639,170.980886 42.7906673,170.992338 41.6818261,170.961373 L30.4292118,169.10383 C29.3941429,168.720455 28.6408438,167.528295 28.7489193,166.417971 L28.8061344,165.830165 Z" id="Rectangle-110" fill-opacity="0.189226676" fill="#000000" sketch:type="MSShapeGroup" mask="url(#mask-12)"></path>
                        </g>
                        <g id="sack-tie" transform="translate(188.000000, 310.000000)">
                            <g id="main-tie">
                                <mask id="mask-14" sketch:name="Rectangle 108" fill="white">
                                    <use xlink:href="#path-13"></use>
                                </mask>
                                <use id="Rectangle-108" fill="#CCC47C" sketch:type="MSShapeGroup" xlink:href="#path-13"></use>
                                <rect id="Rectangle-109" fill="#847C25" sketch:type="MSShapeGroup" mask="url(#mask-14)" x="4" y="-1" width="1" height="6">
                                    <g transform="translate(4.500000, 2.000000) rotate(61.000000) translate(-4.500000, -2.000000) "></g>
                                </rect>
                                <rect id="Rectangle-109" fill="#F3EB9B" sketch:type="MSShapeGroup" mask="url(#mask-14)" x="2" y="-2" width="1" height="6">
                                    <g transform="translate(2.500000, 1.000000) rotate(61.000000) translate(-2.500000, -1.000000) "></g>
                                </rect>
                                <rect id="Rectangle-109" fill="#F3EB9B" sketch:type="MSShapeGroup" mask="url(#mask-14)" x="7" y="-1" width="1" height="7">
                                    <g transform="translate(7.500000, 2.500000) rotate(61.000000) translate(-7.500000, -2.500000) "></g>
                                </rect>
                                <rect id="Rectangle-109" fill="#847C25" sketch:type="MSShapeGroup" mask="url(#mask-14)" x="10.3035738" y="-1.57561572" width="1" height="9.26483725">
                                    <g transform="translate(10.803574, 3.056803) rotate(61.000000) translate(-10.803574, -3.056803) "></g>
                                </rect>
                                <rect id="Rectangle-109" fill="#847C25" sketch:type="MSShapeGroup" mask="url(#mask-14)" x="17.7940094" y="-1.57561572" width="1" height="9.26483725">
                                    <g transform="translate(18.294009, 3.056803) rotate(54.000000) translate(-18.294009, -3.056803) "></g>
                                </rect>
                            </g>
                            <path d="M22.1051025,3.77242601 C20.7050607,4.03121508 20.4216309,5.14034588 20.4216309,5.14034588 C20.4216309,5.14034588 20.0742998,7.64190211 19.6052246,8.8616944 C19.2325843,9.83071572 17.8964844,11.7067867 17.8964844,11.7067867 C17.8964844,11.7067867 18.0054932,12.5681148 18.4852295,13.0028072 C18.9649658,13.4374996 20.1911621,12.6822506 20.1911621,12.6822506 C20.1911621,12.6822506 21.5127453,11.1796734 21.9545898,10.1832276 C22.6818534,8.54310594 23.5849609,4.14196778 23.5849609,4.14196778 C23.5849609,4.14196778 23.5051444,3.51363694 22.1051025,3.77242601 Z" id="shadow" fill-opacity="0.308452219" fill="#000000" sketch:type="MSShapeGroup"></path>
                            <g id="Path-521" transform="translate(17.000000, 3.000000)">
                                <mask id="mask-16" sketch:name="Path 521" fill="white">
                                    <use xlink:href="#path-15"></use>
                                </mask>
                                <use fill="#CBC47C" sketch:type="MSShapeGroup" xlink:href="#path-15"></use>
                                <rect id="Rectangle-117" fill="#F3EB9B" sketch:type="MSShapeGroup" mask="url(#mask-16)" x="2" y="1" width="5" height="1"></rect>
                                <rect id="Rectangle-117" fill="#847C26" sketch:type="MSShapeGroup" mask="url(#mask-16)" x="1" y="3" width="5" height="1"></rect>
                                <rect id="Rectangle-117" fill="#F3EB9B" sketch:type="MSShapeGroup" mask="url(#mask-16)" x="0" y="5" width="5" height="1"></rect>
                                <rect id="Rectangle-117" fill="#847C26" sketch:type="MSShapeGroup" mask="url(#mask-16)" x="-1" y="7" width="5" height="1"></rect>
                            </g>
                            <path d="M23.2583978,3.72375488 C23.2583978,3.72375488 24.6833245,5.6817627 25.2378899,7.77087402 C25.7924554,9.85998535 25.2182617,14.9455566 25.2182617,14.9455566 C25.2182617,14.9455566 25.7496337,15.9660645 26.4365234,15.9660645 C27.123413,15.9660645 27.668579,15.0516357 27.668579,15.0516357 C27.668579,15.0516357 28.1199951,10.3986816 27.2557372,7.77087402 C26.3914794,5.14306641 24.5836182,3.30944824 24.5836182,3.30944824 L23.2583978,3.72375488 Z" id="shadow" fill-opacity="0.218721694" fill="#000000" sketch:type="MSShapeGroup"></path>
                            <g id="Path-522" transform="translate(22.000000, 3.000000)">
                                <mask id="mask-18" sketch:name="Path 522" fill="white">
                                    <use xlink:href="#path-17"></use>
                                </mask>
                                <use fill="#CBC47C" sketch:type="MSShapeGroup" xlink:href="#path-17"></use>
                                <rect id="Rectangle-121" fill="#F3EB9B" sketch:type="MSShapeGroup" mask="url(#mask-18)" x="0" y="1" width="5" height="1">
                                    <g transform="translate(2.500000, 1.500000) rotate(-43.000000) translate(-2.500000, -1.500000) "></g>
                                </rect>
                                <rect id="Rectangle-118" fill="#847C26" sketch:type="MSShapeGroup" mask="url(#mask-18)" x="0.198486328" y="3.07067275" width="5" height="1">
                                    <g transform="translate(2.698486, 3.570673) rotate(-43.000000) translate(-2.698486, -3.570673) "></g>
                                </rect>
                                <rect id="Rectangle-119" fill="#F3EB9B" sketch:type="MSShapeGroup" mask="url(#mask-18)" x="1.1385749" y="5.1413455" width="5" height="1">
                                    <g transform="translate(3.638575, 5.641346) rotate(-43.000000) translate(-3.638575, -5.641346) "></g>
                                </rect>
                                <rect id="Rectangle-119" fill="#F3EB9B" sketch:type="MSShapeGroup" mask="url(#mask-18)" x="1.1385749" y="11.0706728" width="5" height="1">
                                    <g transform="translate(3.638575, 11.570673) rotate(-43.000000) translate(-3.638575, -11.570673) "></g>
                                </rect>
                                <rect id="Rectangle-120" fill="#847C26" sketch:type="MSShapeGroup" mask="url(#mask-18)" x="1.1385749" y="8" width="5" height="1">
                                    <g transform="translate(3.638575, 8.500000) rotate(-43.000000) translate(-3.638575, -8.500000) "></g>
                                </rect>
                            </g>
                        </g>
                        <g id="jacket" transform="translate(48.000000, 142.000000)">
                            <g id="left">
                                <mask id="mask-20" sketch:name="Rectangle 52" fill="white">
                                    <use xlink:href="#path-19"></use>
                                </mask>
                                <use id="Rectangle-52" fill="#417644" sketch:type="MSShapeGroup" xlink:href="#path-19"></use>
                                <path d="M124.845703,1 L105.982422,24.5859375 L113.658203,33.890625 L97.0390625,47.1835938 C97.0390625,47.1835938 106.322266,74.7109375 112.787109,85.1445312 C119.251953,95.578125 126.951172,109.230469 126.951172,109.230469 L130.90625,4.87304688 L124.845703,1 L124.845703,1 Z" id="Path-494" fill="#3C633F" sketch:type="MSShapeGroup" mask="url(#mask-20)"></path>
                                <path d="M127.845703,0 L108.982422,23.5859375 L116.658203,32.890625 L100.039062,46.1835938 C100.039062,46.1835938 109.322266,73.7109375 115.787109,84.1445312 C122.251953,94.578125 129.951172,108.230469 129.951172,108.230469 L133.90625,3.87304688 L127.845703,0 L127.845703,0 Z" id="Path-495" fill="#679D6B" sketch:type="MSShapeGroup" mask="url(#mask-20)"></path>
                                <path d="M-4.45019531,0.477539062 L0.124023438,0.477539062 C0.124023438,0.477539062 1.22167969,18.0166016 2.95605469,24.0263672 C4.69042969,30.0361328 20.1975371,31.9517834 27.1816406,33.2783203 C41.9606752,36.0853999 73.0393555,39.4013672 76.0195312,39.4013672 C83.3925781,39.4013672 82.4792572,48.1455507 82.09375,50.6796875 C80.0157896,64.3391887 80.3761701,70.7517433 77.6738281,88.515625 C74.2062137,111.310035 71.8740234,142.277344 71.8740234,142.277344 C71.8740234,142.277344 79.2470703,149.060547 95.796875,153.375 C112.34668,157.689453 135.785156,159.324219 135.785156,159.324219 L132.308594,167.767578 C132.308594,167.767578 76.2382812,165.650391 64.9453125,159.324219 C53.6523437,152.998047 52.7792969,146.298828 52.7792969,146.298828 L64.3183594,59.6992188 L-9.13867188,35.2519531 L-4.45019531,0.477539062 Z" id="Path-501" fill="#3A5D3D" sketch:type="MSShapeGroup" mask="url(#mask-20)"></path>
                                <path d="M83.7470703,111.921875 C83.7470703,111.921875 92.6376953,114.447266 100.131836,116.125 C107.625977,117.802734 114.400391,117.367188 114.400391,117.367188 L113.101562,125.845703 L95.6611328,129.435547 L82.6650391,120.892578 L83.7470703,111.921875 Z" id="Path-900" fill="#3B5D3D" sketch:type="MSShapeGroup" mask="url(#mask-20)"></path>
                                <path d="M84.7470703,107.921875 C84.7470703,107.921875 93.6376953,110.447266 101.131836,112.125 C108.625977,113.802734 115.400391,113.367188 115.400391,113.367188 L114.101562,121.845703 L96.6611328,125.435547 L83.6650391,116.892578 L84.7470703,107.921875 Z" id="Path-900-Copy" fill="#689D6C" sketch:type="MSShapeGroup" mask="url(#mask-20)"></path>
                            </g>
                            <g id="right" transform="translate(244.500000, 81.500000) scale(-1, 1) translate(-244.500000, -81.500000) translate(177.000000, 0.000000)">
                                <mask id="mask-22" sketch:name="Rectangle 52" fill="white">
                                    <use xlink:href="#path-21"></use>
                                </mask>
                                <use id="Rectangle-52" fill="#417644" sketch:type="MSShapeGroup" xlink:href="#path-21"></use>
                                <path d="M124.845703,1 L105.982422,24.5859375 L113.658203,33.890625 L97.0390625,47.1835938 C97.0390625,47.1835938 106.322266,74.7109375 112.787109,85.1445312 C119.251953,95.578125 126.951172,109.230469 126.951172,109.230469 L130.90625,4.87304688 L124.845703,1 L124.845703,1 Z" id="Path-494" fill="#3C633F" sketch:type="MSShapeGroup" mask="url(#mask-22)"></path>
                                <path d="M127.845703,0 L108.982422,23.5859375 L116.658203,32.890625 L100.039062,46.1835938 C100.039062,46.1835938 109.322266,73.7109375 115.787109,84.1445312 C122.251953,94.578125 129.951172,108.230469 129.951172,108.230469 L133.90625,3.87304688 L127.845703,0 L127.845703,0 Z" id="Path-495" fill="#679D6B" sketch:type="MSShapeGroup" mask="url(#mask-22)"></path>
                                <path d="M-1.83398438,24.9824219 C-1.83398438,24.9824219 51.1879435,34.5818805 77.6989075,39.3816098 C80.8871623,39.9588336 83.149355,45.3181096 84.1621094,50.5 C84.5523473,52.4967032 82.8736637,69.3366575 81.7294922,76.7490234 C81.0602958,81.0843252 78.4057256,110.696142 77.6989059,115.054687 C73.5466382,140.659306 81.7294922,146.298828 81.7294922,146.298828 C81.7294922,146.298828 89.8056641,151.49707 104.956055,154.96582 C120.106445,158.43457 135.785156,159.324219 135.785156,159.324219 L132.308594,167.767578 C132.308594,167.767578 76.2382812,165.650391 64.9453125,159.324219 C53.6523437,152.998047 52.7792969,146.298828 52.7792969,146.298828 L64.3183594,59.6992188 L-9.13867188,35.2519531 L-1.83398438,24.9824219 Z" id="Path-501" fill="#3A5D3D" sketch:type="MSShapeGroup" mask="url(#mask-22)"></path>
                            </g>
                        </g>
                        <g id="head" transform="translate(157.000000, 60.000000)">
                            <mask id="mask-24" sketch:name="Oval 223" fill="white">
                                <use xlink:href="#path-23"></use>
                            </mask>
                            <use id="Oval-223" fill="#D2AB71" sketch:type="MSShapeGroup" xlink:href="#path-23"></use>
                            <path d="M-8.60742188,56.1113281 C-7.76171172,62.2434282 5.5078125,74.6894531 5.5078125,74.6894531 C5.5078125,74.6894531 26.3496094,82.3886719 44.96875,82.3886719 C63.5878906,82.3886719 88.0273426,77.3027344 88.0273426,77.3027344 L93,51.7304688 L2.56445312,53.3476562 C2.56445312,53.3476562 -8.74283152,55.1294959 -8.60742188,56.1113281 Z" id="Path-498" fill-opacity="0.212947237" fill="#000000" sketch:type="MSShapeGroup" mask="url(#mask-24)"></path>
                        </g>
                        <g id="hat" transform="translate(94.000000, 0.000000)">
                            <path d="M64,87 L151,87 L216.457031,113 C216.457031,113 217.125668,120.100596 189.167969,124.253906 C161.21027,128.407216 158.682335,132.414062 108.600304,132.414062 C58.5182724,132.414062 49.4648452,128.220703 26.0058594,124.253906 C2.5468736,120.287109 0.7421875,113 0.7421875,113 L64,87 Z" id="Rectangle-54" fill="#F8E398" sketch:type="MSShapeGroup"></path>
                            <g id="Rectangle-50" transform="translate(63.000000, 0.000000)">
                                <mask id="mask-26" sketch:name="Rectangle 50" fill="white">
                                    <use xlink:href="#path-25"></use>
                                </mask>
                                <use fill="#DDC983" sketch:type="MSShapeGroup" xlink:href="#path-25"></use>
                                <path d="M5.08562918,71.518274 C5.08562918,71.518274 23.7011719,76.0922991 45,76.216797 C66.2988281,76.3412949 84.0649251,70.7918087 84.0649251,70.7918087 L88,87.1523438 C88,87.1523438 63.3847656,92.0507813 45,92.0507813 C26.6152344,92.0507813 0.9375,87.1523438 0.9375,87.1523438 L5.08562918,71.518274 Z" id="Rectangle-53" fill="#F04A42" sketch:type="MSShapeGroup" mask="url(#mask-26)"></path>
                                <ellipse id="Oval-225" fill="#F7E298" sketch:type="MSShapeGroup" mask="url(#mask-26)" cx="46" cy="3.5" rx="29" ry="5.5"></ellipse>
                            </g>
                        </g>
                    </g>
                </g>
                <g id="grass" mask="url(#mask-6)" sketch:type="MSShapeGroup">
                    <g transform="translate(212.000000, 389.000000)">
                        <path d="M16.7451172,31.6637429 L20.8330078,35.822017 L35.3652344,35.822017 L43.1689453,32.6522017 L34.3300781,31.5753551 L16.7451172,31.6637429 Z" id="Path-517" fill="#2C6923"></path>
                        <path d="M21.8960591,33.1324592 C22.1887794,32.855381 22.5138602,32.5349214 22.8632584,32.1745024 C23.8593953,31.1469448 23.9321827,29.4659092 24.8627491,28.2292136 C27.6269783,24.5556335 26.9581739,20.4450486 26.871582,16.9150554 C26.8213796,14.8685069 24.1704405,12.9106554 22.8802872,11.1716775 C21.3842298,9.15516471 19.6631904,7.30471318 17.7609389,5.61482689 C15.3141874,3.44122787 5.7560482,0.154348741 5.7560482,0.154348741 C5.90754214,0.213185999 6.20818822,0.339972166 6.63657036,0.536944895 C7.36016692,0.869659027 8.16899866,1.2771165 9.0416586,1.76147817 C11.540512,3.14844321 14.040894,4.86962817 16.3726277,6.94104988 C18.179969,8.54662166 19.812608,10.3020256 21.2290878,12.211277 C22.2959537,13.6492892 22.8216316,15.2180619 22.8632593,16.9150548 C22.9384511,19.9803153 21.4498201,23.3457501 18.9040798,26.7289647 C18.0233962,27.8993676 17.0783069,28.986706 16.1338188,29.9609855 C15.8039982,30.3012095 15.4983759,30.6024871 15.2250806,30.8611784 C15.0635867,31.0140425 14.95053,31.1172148 14.8940321,31.1670927 L21.5155451,33.4835922 C21.5884222,33.4192542 21.7179436,33.3010567 21.8960591,33.1324592 Z" id="Path-489" fill="#2B6923"></path>
                        <path d="M19.7822266,31.9365533 C20.2120657,29.2232329 18.8160373,25.0160453 18.4506836,22.3663828 C17.7213424,17.0769662 13.9840156,12.6033752 9.04728844,11.3383369 C4.95567169,10.2898585 0.88213286,10.8787456 0.88213286,10.8787456 C0.612074898,10.9679535 0.333036569,11.0064482 0.831619416,11.1366792 C1.54688675,11.3235087 0.728594585,10.8771093 2.59863281,11.3577178 C3.67122869,11.6333799 7.01876272,12.730903 8.51130531,13.1133676 C12.5403191,14.145804 14.6715082,17.2266578 15.3097281,21.8552334 C15.6490399,24.3160318 15.5302052,26.9720268 15.1243659,29.5338505 C15.0411557,30.0591073 14.9521452,30.5361228 14.8634066,30.9552832 C14.8108658,31.2034624 19.6942745,32.4917427 19.7822266,31.9365533 Z" id="Path-490" fill="#52BC43"></path>
                        <path d="M42.1696343,35.5065545 C44.505473,33.30524 46.3411522,29.1794443 47.9422655,26.7585561 C51.1385049,21.9258327 51.139352,16.7605128 47.7795091,13.9595426 C44.9948324,11.6380661 41.0408759,10.7408348 41.0408759,10.7408348 C40.7424406,10.7247983 40.4729283,10.6617406 40.8104676,10.9467617 C41.2947017,11.3556531 40.9090921,10.6863772 42.1807839,11.7486096 C42.9101869,12.3578731 45.0149763,14.4647768 46.0307724,15.3116065 C48.7728428,17.5975638 48.3889414,21.0018904 45.592029,25.2308304 C44.1050407,27.4791611 42.0800252,29.7382682 39.8746067,31.8166736 C39.4224245,32.2428141 39.0001305,32.6251725 38.6199409,32.9575209 C38.3948359,33.1542999 41.6916838,35.9569791 42.1696343,35.5065545 L42.1696343,35.5065545 Z" id="Path-490" fill="#52BC43"></path>
                        <path d="M46.6255427,32.9949445 C47.0553818,30.2816241 45.6593535,26.0744365 45.2939997,23.424774 C44.5646585,18.1353573 40.8273317,13.6617664 35.8906046,12.3967281 C31.7989878,11.3482497 27.725449,11.9371368 27.725449,11.9371368 C27.455391,12.0263446 27.1763527,12.0648393 27.6749355,12.1950703 C28.3902029,12.3818999 27.5719107,11.9355005 29.4419489,12.416109 C30.5145448,12.6917711 33.8620788,13.7892941 35.3546214,14.1717588 C39.3836352,15.2041952 41.5148243,18.285049 42.1530442,22.9136246 C42.492356,25.374423 42.3735213,28.0304179 41.967682,30.5922416 C41.8844718,31.1174985 41.7954613,31.594514 41.7067228,32.0136744 C41.6541819,32.2618536 46.5375907,33.5501339 46.6255427,32.9949445 Z" id="Path-490" fill="#409434"></path>
                        <path d="M25.7011352,22.4540467 C25.8778748,20.2392285 26.5975838,18.382122 27.941923,16.9672462 C30.1909706,14.6001926 37.0532166,6.79495775 37.0532166,6.79495775 C37.0070458,6.82430189 36.9226902,6.87905202 36.80268,6.95866909 C36.6059107,7.08920963 36.3785681,7.24352691 36.1231816,7.4210843 C35.3970798,7.9259064 34.5893144,8.51715965 33.7201136,9.19059097 C31.2394437,11.1125413 28.7577599,13.3112302 26.4369832,15.7537765 C24.7786246,17.4991481 23.9128652,19.7331169 23.7065173,22.3189717 C23.5194998,24.6625885 23.8771458,27.1464918 24.5855074,29.5958944 C24.7876222,30.2947756 25.0043332,30.9388872 25.221595,31.5142968 C25.3534787,31.8635858 25.4576846,32.1154736 25.5202438,32.2558422 L32.2265625,32.8240286 C32.1774331,32.7137933 25.5327236,24.5645014 25.7011352,22.4540467 Z" id="Path-491" fill="#409434"></path>
                        <path d="M24.5839933,37.7378736 C25.4395838,36.7023865 25.6693549,35.8752737 26.4689749,34.6902926 C27.7656193,32.768756 26.4657072,30.3293467 27.1128821,28.5417216 C28.3506453,25.1227748 28.1449215,22.2396351 26.0292877,20.2020681 C24.5960323,18.8216998 24.1304797,16.9530247 24.4961231,14.6509198 C24.7751626,12.894076 27.2338457,4.51140963 27.2338457,4.51140963 C27.1917976,4.56400873 27.1178795,4.65921718 27.0166246,4.793929 C26.8507529,5.01460867 26.6666926,5.26849133 26.4689747,5.55249699 C25.9058312,6.361407 25.3432355,7.25301575 24.8174801,8.20326727 C23.6512486,10.3111169 22.8322136,12.4008062 22.5171938,14.3841835 C22.0693985,17.20352 22.6758838,19.6378829 24.5839935,21.4755834 C26.0865456,22.9226914 26.2433363,25.1200516 25.2156143,27.9588229 C24.624157,29.5925449 25.8045672,31.3845197 24.5839936,33.1933246 C23.820098,34.3253647 21.4236088,36.3215421 20.6040039,37.3134773 C20.3175408,37.6601723 24.2841381,38.1007765 24.5839933,37.7378736 Z" id="Path-492" fill="#409434"></path>
                        <path d="M40.1026909,31.7421355 C40.9582813,31.0772499 39.3030709,30.6242303 40.1026909,29.8633546 C41.3993352,28.6295371 40.0994231,27.0631938 40.746598,25.9153608 C41.9843613,23.7200571 41.7786374,21.8687948 39.6630037,20.5604742 C38.2297483,19.6741405 37.7641956,18.4742654 38.129839,16.9960852 C38.4088786,15.8680168 40.8675616,10.4855116 40.8675616,10.4855116 C40.8255135,10.5192854 40.7515954,10.5804187 40.6503406,10.6669171 C40.4844689,10.8086154 40.3004085,10.9716333 40.1026907,11.1539932 C39.5395472,11.6733938 38.9769514,12.2458953 38.451196,12.8560512 C37.2849645,14.2095002 36.4659296,15.5512885 36.1509097,16.8248139 C35.7031144,18.6351082 36.3095998,20.1982112 38.2177095,21.3781976 C39.7202616,22.3073848 39.8770522,23.7183085 38.8493303,25.5410819 C38.257873,26.5900938 37.3014136,27.720399 36.08084,28.8818316 C35.3169444,29.6087139 34.4970599,30.3030602 33.6774551,30.9399812 C33.3909919,31.1625938 33.1253985,31.3618608 32.8876932,31.5347362 C32.7467197,31.6372616 32.6475563,31.7074031 32.597212,31.7421349 C32.597212,31.7421349 39.8028356,31.9751553 40.1026909,31.7421355 Z" id="Path-492" fill="#409434"></path>
                        <path d="M22.9591206,34.3564683 C22.6855994,33.9069686 22.3805855,33.3975453 22.0519828,32.8384571 C21.1130372,31.2409247 20.1741198,29.5671612 19.2986574,27.8998303 C18.8011416,26.9523042 18.3380986,26.0328274 17.9161722,25.1501929 C16.2878652,21.7439119 15.3632813,19.0731327 15.3632813,17.5426136 C15.3632813,16.5446464 15.6968344,15.3343974 16.3273528,13.9661244 C16.8912178,12.7424942 20.4310264,4.70735745 20.4310264,4.70735745 C20.372807,4.7697675 20.2678768,4.88477023 20.1228719,5.04767372 C19.8836198,5.31645773 19.6176568,5.62367123 19.3316076,5.96465351 C18.5151017,6.93796171 17.698746,7.98950066 16.9353321,9.08283299 C15.9340768,10.5167928 15.0994278,11.9157912 14.4863642,13.2461859 C13.7597311,14.8230353 13.3632813,16.2614958 13.3632813,17.5426136 C13.3632813,19.4132659 14.3475791,22.2565362 16.0857903,25.8927276 C16.5178068,26.7964698 16.9907774,27.73566 17.4982176,28.7020874 C17.6047678,28.9050137 16.8513628,29.738504 16.9353321,29.9834752 C17.552683,31.7845304 18.4931211,33.9568427 19.3316078,35.3834533 C19.665023,35.9507295 23.3001972,34.9116243 23.3001972,34.9116243 C23.2390144,34.8137404 23.1226901,34.6252754 22.9591206,34.3564683 Z" id="Path-493" fill="#409434"></path>
                        <path d="M38.9811349,34.8351563 C39.0063074,34.4714234 39.0389568,34.0611212 39.079886,33.6131927 C39.1968367,32.333287 39.3565361,31.009628 39.5652368,29.7141778 C39.6838392,28.9779876 39.8152999,28.271219 39.9601989,27.601487 C40.5193957,25.0168437 41.2497772,23.1263361 42.10759,22.2476657 C42.6669225,21.6747331 43.621761,21.1087984 44.9113629,20.5668752 C46.0646384,20.0822397 53.5027403,16.8368812 53.5027403,16.8368812 C53.4194951,16.8502176 53.2680482,16.8757007 53.0565309,16.9132007 C52.7075361,16.9750741 52.3148583,17.04869 51.8866018,17.1339323 C50.6641759,17.3772499 49.3980284,17.6655377 48.1523477,17.9982733 C46.5185754,18.4346725 45.0425209,18.9153691 43.7886194,19.4422902 C42.3024336,20.066823 41.1675453,20.7394736 40.4495148,21.4749628 C39.401067,22.5489035 38.6235141,24.5615087 38.0265737,27.3206051 C37.8782096,28.0063534 37.7439304,28.7282749 37.6229621,29.4791508 C37.5975617,29.6368165 36.5058129,29.8242438 36.4381271,29.9973233 C35.9404936,31.2698228 35.5026323,32.880286 35.3981943,34.0232532 C35.3566657,34.4777416 38.9527509,35.2856467 38.9527509,35.2856467 C38.9568892,35.2058135 38.9660813,35.0526737 38.9811349,34.8351563 L38.9811349,34.8351563 Z" id="Path-493" fill="#409434"></path>
                        <path d="M32.7334528,31.2279481 C32.8086609,30.7291967 32.8978652,30.1666478 33.0006759,29.5525835 C33.2944462,27.7979633 33.6380398,25.9838933 34.0281084,24.2092025 C34.2497802,23.200665 34.480659,22.2326748 34.7203064,21.3156888 C35.6451585,17.7768379 36.6515356,15.192795 37.6514024,13.9988943 C38.3033605,13.2204174 39.3603866,12.4569685 40.7578147,11.7310596 C42.0075179,11.081888 50.0837774,6.73080699 50.0837774,6.73080699 C49.9965097,6.74796455 49.837579,6.78085348 49.6153504,6.82940734 C49.2486823,6.9095192 48.8355766,7.00514434 48.3843685,7.11623441 C47.0964292,7.43333264 45.7575028,7.81153707 44.4335546,8.2510113 C42.6971307,8.82740363 41.1166043,9.46674233 39.7578616,10.1725557 C38.1474128,11.0091205 36.8910678,11.9165296 36.0541314,12.9158817 C34.8320603,14.3751076 33.7606868,17.1260399 32.7734108,20.9037491 C32.5280324,21.8426642 32.2922037,22.8314079 32.0661099,23.8600638 C32.0186357,24.0760566 30.8724322,24.3182577 30.7794567,24.5548204 C30.0958909,26.2940556 29.4278168,28.4978483 29.1654773,30.0647397 C29.0611609,30.687797 32.643173,31.8456997 32.643173,31.8456997 C32.6582564,31.7362132 32.6884773,31.5262084 32.7334528,31.2279481 L32.7334528,31.2279481 Z" id="Path-493" fill="#409434"></path>
                        <path d="M32.3315098,36.281287 C33.1871002,35.2457999 33.3280033,34.0884954 34.1276233,32.9035142 C35.4242676,30.9819777 35.3777163,28.994346 36.0248912,27.206721 C37.2626544,23.7877741 37.0569305,20.9046344 34.9412968,18.8670674 C33.5080414,17.4866991 33.0424887,15.618024 33.4081321,13.3159191 C33.6871717,11.5590753 36.1458547,3.17640894 36.1458547,3.17640894 C36.1038067,3.22900804 36.0298885,3.32421649 35.9286337,3.45892831 C35.762762,3.67960797 35.5787016,3.93349064 35.3809838,4.2174963 C34.8178403,5.02640631 34.2552445,5.91801506 33.7294892,6.86826658 C32.5632577,8.97611623 31.7442227,11.0658055 31.4292028,13.0491828 C30.9814075,15.8685193 31.5878929,18.3028822 33.4960026,20.1405827 C34.9985547,21.5876907 35.1553454,23.7850509 34.1276234,26.6238222 C33.5361661,28.2575442 32.5797067,30.0178716 31.3591331,31.8266766 C30.5952375,32.9587167 29.775353,34.0400855 28.9557482,35.0320207 C28.6692851,35.3787156 28.4036917,35.6890522 28.1659863,35.9582868 C28.0250128,36.1179591 27.9258494,36.2271967 27.8755052,36.2812879 C27.8755052,36.2812879 32.0316545,36.6441899 32.3315098,36.281287 Z" id="Path-492" fill="#59B44D"></path>
                    </g>
                </g>
                <g id="bird" mask="url(#mask-6)" sketch:type="MSShapeGroup">
                    <g transform="translate(378.000000, 103.000000)">
                        <path d="M63.8740234,3.2421875 L75.3525391,9.56835938 L61.3271484,12.9824219 L63.8740234,3.2421875 Z" id="Path-505" stroke="none" fill="#F1BD54" fill-rule="evenodd"></path>
                        <path d="M42.7949219,43.8388672 L41.0556641,51.0380859 L47.8242188,51.3466797" id="Path-506" stroke="#F5B97C" stroke-width="2" fill="none"></path>
                        <path d="M35.0537109,43.7695312 L28.0410156,51.3466797 L37.3505859,51.3466797" id="Path-507" stroke="#F5B97C" stroke-width="2" fill="none"></path>
                        <path d="M16.397044,33.5803859 C16.2105124,33.7171934 16.1191406,33.7890625 16.1191406,33.7890625 C16.1191406,33.7890625 27.7851562,44.4667969 39.84375,44.4667969 C51.9023438,44.4667969 58.8476562,41.2441388 63.3144531,35.6621076 C67.78125,30.0800763 63.3144531,13.0527344 63.3144531,13.0527344 L65.9199219,4.62109375 C65.9199219,4.62109375 63.3144531,-0.85546875 55.2304688,2.37695312 C47.1464844,5.609375 49.8925781,17.6582031 35.984375,23.3808594 C27.7357185,26.7748439 22.2838241,29.8040333 19.2126928,31.7073246 C16.8421465,29.3173401 13.4006243,25.5256437 11.3203125,21.7792969 C7.90722656,15.6328125 6.67382812,8.46191406 6.67382812,8.46191406 L0.841796875,0.943359375 C0.841796875,0.943359375 3.69628906,12.7304687 6.67382812,19.5576172 C9.02875355,24.9571855 14.2968551,31.2040121 16.397044,33.5803859 Z" id="Path-503" stroke="none" fill="#A4713E" fill-rule="evenodd"></path>
                        <circle id="Oval-226" stroke="none" fill="#000000" fill-rule="evenodd" cx="60.5" cy="6.5" r="1.5"></circle>
                        <path d="M10.9960938,23.4199219 C10.9960938,23.4199219 45.1767578,20.3730469 50.0849609,20.3730469 C54.9931641,20.3730469 57.6621094,27.0029297 57.6621094,29.2470703 C57.6621094,31.4912109 53.0742188,40.3007812 46.1191406,40.3007812 C39.1640625,40.3007812 17.0195312,32.9912109 11.984375,31.1191406 C6.94921875,29.2470703 2.41308594,24.1640625 2.41308594,24.1640625 L10.9960938,23.4199219 Z" id="Path-504" stroke="none" fill="#D0985F" fill-rule="evenodd"></path>
                        <path d="M64.6005859,20.7363281 C64.6005859,20.7363281 67.828125,26.4931641 67.828125,30.4707031 C67.828125,34.4482422 67.7636719,36.4316406 67.7636719,36.4316406 L65.7167969,32.3955078 C65.7167969,32.3955078 64.8447266,38.0361328 64.8447266,39.7167969 C64.8447266,41.3974609 62.9140625,42.5136719 62.9140625,42.5136719 L62.9140625,38.5419922 C62.9140625,38.5419922 60.6806641,41.7626953 58.6923828,43.2578125 C56.7041016,44.7529297 51.7324219,43.0136719 51.7324219,43.0136719 C51.7324219,43.0136719 56.9833984,39.0556641 59.7802734,33.6533203 C62.5771484,28.2509766 64.6005859,20.7363281 64.6005859,20.7363281 Z" id="Path-508" stroke="none" fill="#C41100" fill-rule="evenodd"></path>
                    </g>
                </g>
            </g>
        </g>
    </g>
</svg>