<?xml version="1.0" encoding="UTF-8" standalone="no"?>
<svg width="512px" height="512px" viewBox="0 0 512 512" version="1.1" xmlns="http://www.w3.org/2000/svg" xmlns:xlink="http://www.w3.org/1999/xlink" xmlns:sketch="http://www.bohemiancoding.com/sketch/ns">
    <!-- Generator: Sketch 3.3 (11970) - http://www.bohemiancoding.com/sketch -->
    <title>Journal</title>
    <desc>Created with Sketch.</desc>
    <defs>
        <path id="path-1" d="M215,430.685393 C333.741221,430.685393 430,334.426614 430,215.685393 C430,96.9441721 333.741221,0.685393258 215,0.685393258 C96.2587788,0.685393258 0,96.9441721 0,215.685393 C0,334.426614 96.2587788,430.685393 215,430.685393 Z"></path>
        <path id="path-3" d="M250,489.685393 C368.741221,489.685393 465,393.426614 465,274.685393 C465,242.467905 470.34375,8.05946456e-07 470.34375,8.05946456e-07 L43.3242187,8.05946456e-07 C43.3242187,8.05946456e-07 35,214.687214 35,274.685393 C35,393.426614 131.258779,489.685393 250,489.685393 Z"></path>
        <path id="path-5" d="M0,38.2068565 C0,17.7050557 16.6168471,1.06093292 37.1216105,1.0311578 L318.176637,0.623035702 C318.176637,0.623035702 302.757831,12.7961051 302.757831,37.9771828 C302.757831,63.1582604 318.176637,74.8693032 318.176637,74.8693032 L37.1216105,74.8693032 C16.6199111,74.8693032 0,58.2416946 0,37.747509 L0,38.2068565 Z"></path>
    </defs>
    <g id="Module-Icons" stroke="none" stroke-width="1" fill="none" fill-rule="evenodd" sketch:type="MSPage">
        <g id="Journal" sketch:type="MSArtboardGroup">
            <g id="journal" sketch:type="MSLayerGroup">
                <rect id="hit" sketch:type="MSShapeGroup" x="0" y="0" width="512" height="512"></rect>
                <g id="Oval-2-+-Rectangle-47" transform="translate(35.000000, 59.000000)">
                    <mask id="mask-2" sketch:name="Oval 2" fill="white">
                        <use xlink:href="#path-1"></use>
                    </mask>
                    <use id="Oval-2" fill="#A48ADB" sketch:type="MSShapeGroup" xlink:href="#path-1"></use>
                    <path d="M77.6129702,370.821899 L77.6129702,370.929322 L377.620779,370.929322 C382.043304,370.929322 385.622333,367.347829 385.622333,362.929833 L385.622333,-19.2890778 C385.622333,-23.7089639 382.039916,-27.2885662 377.620779,-27.2885662 L77.6129702,-27.2885662 L77.6129702,-27.1811367 C56.9077248,-25.6690753 40.5725015,-8.38365238 40.5725015,12.7173546 L40.5725015,330.923401 C40.5725015,352.019331 56.9040981,369.309651 77.6129702,370.821899 Z" id="Rectangle-57" stroke-opacity="0.224892437" stroke="#000000" stroke-width="12" fill-opacity="0.22155231" fill="#000000" sketch:type="MSShapeGroup" mask="url(#mask-2)">
                        <g transform="translate(213.097417, 171.820378) rotate(-7.000000) translate(-213.097417, -171.820378) "></g>
                    </path>
                </g>
                <mask id="mask-4" sketch:name="Oval 3" fill="white">
                    <use xlink:href="#path-3"></use>
                </mask>
                <use id="Oval-3" sketch:type="MSShapeGroup" xlink:href="#path-3"></use>
                <g id="book" mask="url(#mask-4)">
                    <g transform="translate(247.991173, 228.639416) rotate(-7.000000) translate(-247.991173, -228.639416) translate(69.991173, 25.139416)">
                        <g id="base" transform="translate(0.894189, 6.052905)">
                            <path d="M41.3807182,399.110465 L41.3807182,399.217888 L341.388527,399.217888 C345.811052,399.217888 349.390081,395.636395 349.390081,391.218399 L349.390081,8.99948844 C349.390081,4.57960234 345.807664,1 341.388527,1 L41.3807182,1 L41.3807182,1.1074295 C20.6754728,2.61949088 4.34024946,19.9049138 4.34024946,41.0059208 L4.34024946,359.211967 C4.34024946,380.307897 20.6718461,397.598217 41.3807182,399.110465 Z" id="Rectangle-63" fill="#7B503F" sketch:type="MSShapeGroup"></path>
                            <g id="pages" transform="translate(14.105811, 312.412899)">
                                <mask id="mask-6" sketch:name="Rectangle 59" fill="white">
                                    <use xlink:href="#path-5"></use>
                                </mask>
                                <use id="Rectangle-59" fill="#FFFFFF" sketch:type="MSShapeGroup" xlink:href="#path-5"></use>
                            </g>
                            <rect id="Rectangle-62" fill-opacity="0.191208107" fill="#000000" sketch:type="MSShapeGroup" x="13.0207484" y="293.966838" width="336.369333" height="40.1473075"></rect>
                            <g id="spine" transform="translate(3.469573, 0.885585)" fill="#B38467" sketch:type="MSShapeGroup">
                                <path d="M0.871016859,355.289658 L0.871016859,40.0852758 C0.871016859,17.9937676 18.780925,0.0850617707 40.8643571,0.0850617707 L44.2735114,0.0850617707 L44.2735114,0.0850617707 L44.2735114,312.807384 C21.2675284,315.166708 3.03118846,332.97068 0.871016859,355.289658 Z" id="Rectangle-58"></path>
                            </g>
                            <path d="M95.9810528,106.660777 C89.5640685,87.8326167 71.2215873,74.2417096 49.5953201,74.2417096 C22.6284672,74.2417096 0.76751368,95.3739647 0.76751368,121.441922 C0.76751368,130.921764 3.65857483,139.748871 8.63489558,147.144301 C7.05023043,142.494709 6.1928255,137.525727 6.1928255,132.363163 C6.1928255,106.295206 28.0537791,85.1629504 55.0206319,85.1629504 C72.1807507,85.1629504 87.2733372,93.7200363 95.9810548,106.660783 Z" id="Rectangle-60" fill="#7B503F" sketch:type="MSShapeGroup"></path>
                            <path d="M95.9810528,243.276927 C89.5640685,224.448767 71.2215873,210.85786 49.5953201,210.85786 C22.6284672,210.85786 0.76751368,231.990115 0.76751368,258.058073 C0.76751368,267.537915 3.65857483,276.365021 8.63489558,283.760451 C7.05023043,279.110859 6.1928255,274.141878 6.1928255,268.979314 C6.1928255,242.911356 28.0537791,221.779101 55.0206319,221.779101 C72.1807507,221.779101 87.2733372,230.336187 95.9810548,243.276933 Z" id="Rectangle-60" fill="#7B503F" sketch:type="MSShapeGroup"></path>
                            <rect id="Rectangle-61" fill="#9D694B" sketch:type="MSShapeGroup" x="47.9571296" y="1" width="301.432952" height="312.497961" rx="10"></rect>
                        </g>
                        <g id="bookmark" transform="translate(98.634864, -0.000000)">
                            <path d="M0.221839393,6.64211995 L71.835958,7.85797614 L71.8359556,156.612922 C71.8359555,159.923985 69.7493283,160.91637 67.1729646,158.827548 L42.3194818,138.677241 C39.7441831,136.589282 35.5636278,136.567251 32.9721787,138.635833 L4.90615165,161.039081 C2.31907743,163.104171 0.221839405,162.09986 0.221839404,158.772234 L0.221839393,6.64211995 Z" id="Rectangle-64" fill="#764D36" sketch:type="MSShapeGroup"></path>
                            <path d="M4.25518709,4.00748519 C4.25518709,1.79421223 6.05225541,5.68434189e-14 8.25435519,5.68434189e-14 L72.9551974,5.68434189e-14 C75.163877,5.68434189e-14 76.9543655,1.79404166 76.9543655,4.00748519 L76.9543655,153.326558 C76.9543655,155.539831 75.5516913,156.222829 73.8237593,154.853943 L43.7353825,131.017605 C42.0063964,129.647884 39.2021021,129.648719 37.4741701,131.017605 L7.38579328,154.853943 C5.65680723,156.223664 4.25518709,155.540001 4.25518709,153.326558 L4.25518709,4.00748519 Z" id="Rectangle-64" fill="#F04A42" sketch:type="MSShapeGroup"></path>
                        </g>
                        <g id="clasp" transform="translate(289.730943, 152.372685)">
                            <path d="M0.974860718,30.1973704 C0.974860718,21.8337298 10.8506236,5.96784301 10.8506236,5.96784301 L60.7634924,5.96784301 L60.7634924,51.5404623 L10.8506236,51.5404623 C10.8506236,51.5404623 0.974860718,37.0246029 0.974860718,30.1973704 Z" id="Rectangle-66" fill="#7B503F" sketch:type="MSShapeGroup"></path>
                            <path d="M2.20402504,24.7810478 C2.09751969,23.6793843 2.04318751,21.8826307 2.15541313,20.7920992 L9.84523311,1.71783415 C10.400495,0.769100547 11.7470231,0 12.8458633,0 L63.1085022,0 C64.2104426,0 65.1037419,0.889896257 65.1037419,2.00222735 L65.1037419,43.570392 C65.1037419,44.6761916 64.2073425,45.5726193 63.1085022,45.5726193 L12.8458633,45.5726193 C11.7439229,45.5726193 10.4242789,44.7868857 9.90464834,43.8075002 L2.20402504,24.7810478 Z" id="Rectangle-66" fill="#8E6046" sketch:type="MSShapeGroup"></path>
                            <ellipse id="Oval-234" fill="#E3BF3D" sketch:type="MSShapeGroup" cx="28.2116215" cy="23.871372" rx="14.1058107" ry="14.1058107"></ellipse>
                            <path d="M40.1346176,22.7863097 C39.8514418,16.7459663 34.8645478,11.935686 28.7541527,11.935686 C22.6437575,11.935686 17.6568635,16.7459663 17.3736877,22.7863097 L40.1346176,22.7863097 Z" id="Oval-235" fill="#FFF1BE" sketch:type="MSShapeGroup"></path>
                        </g>
                    </g>
                </g>
            </g>
        </g>
    </g>
</svg>