<?xml version="1.0" encoding="UTF-8" standalone="no"?>
<svg width="512px" height="512px" viewBox="0 0 512 512" version="1.1" xmlns="http://www.w3.org/2000/svg" xmlns:xlink="http://www.w3.org/1999/xlink" xmlns:sketch="http://www.bohemiancoding.com/sketch/ns">
    <!-- Generator: Sketch 3.3.2 (12043) - http://www.bohemiancoding.com/sketch -->
    <title>Plant</title>
    <desc>Created with Sketch.</desc>
    <defs>
        <path id="path-1" d="M250,489.685393 C368.741221,489.685393 465,393.426614 465,274.685393 C465,242.467905 470.34375,8.05946456e-07 470.34375,8.05946456e-07 L43.3242187,8.05946456e-07 C43.3242187,8.05946456e-07 35,214.687214 35,274.685393 C35,393.426614 131.258779,489.685393 250,489.685393 Z"></path>
        <path id="path-3" d="M91.0214844,49.3535156 C98.667589,48.5126602 98.266975,37.9855023 105.826172,36.0957031 C108.087445,35.5303849 110.537321,45.3482084 111.408203,44.0957031 C117.334975,35.5718069 116.515504,42.1452627 125.818359,35.9433594 C128.277751,34.3037649 135.622302,39.2922235 136.087891,39.7578125 C139.225612,42.8955344 160.373271,38.7072029 162.138672,39.0605469 C171.858081,41.0058803 177.101492,42.1983991 184.945312,45.1425781 C186.010049,45.5422272 208.003924,44.5886819 209.671875,43.921875 C213.532052,42.3786687 216.600683,38.3875981 218.568359,36.4199219 C219.844197,35.1440838 221.905165,42.0936533 222.90625,40.0839844 C224.63557,36.6123899 241.676287,39.0136719 245.238281,39.0136719 C248.017941,39.0136719 246.783539,39.6878361 248.203125,41.1074219 C248.558205,41.4625023 253.402199,38.3497539 253.761719,37.9902344 C254.268554,37.4833993 270.070074,41.2146053 270.509766,41.6542969 C271.970655,43.1151859 282.829333,40.0435451 284.419922,39.4101563 C286.75778,38.4791969 292.596122,42.9235214 295.839844,43.5722656 C300.17741,44.4397789 302.555679,40.3187446 307.005859,41.6542969 C309.321424,42.3492257 311.79308,43.2934678 313.111328,45.4921875 C314.910448,48.4929587 306.029429,47.0899672 303.341797,49.3300781 C293.302917,57.6973722 281.995783,63.741984 269.498047,67.6484375 C242.299183,76.1500652 166.073749,90.1946645 137.958984,84.5703125 C132.143271,83.4068804 129.1941,80.8285813 124.875,78.8125 C111.836874,72.7265275 104.527894,79.8897832 82.4824219,62.2402344 C79.3272334,59.7141985 76.8998994,55.9568567 75.6777344,52.2949219 C75.2939955,51.1451371 76.4775334,48.9614409 75.1777344,48.6328125 C74.0309011,48.3428584 61.0755072,40.1603028 63.3144531,37.8164063 C66.2742045,34.7179165 73.0698022,40.2455835 73.7578125,40.9335938 C75.6532732,42.8290545 86.3117703,38.2519613 87.4941406,38.8398438 C89.8368499,40.0046545 88.8831886,41.9335938 92.4589844,41.9335938"></path>
        <path id="path-4" d="M349.932421,118.464912 C358.066666,115.173394 366.759322,111.346314 367.768235,102.565077 L377.72557,15.8998353 C378.734129,7.12168859 372.383939,0 363.541232,0 C363.541232,0 313.56519,24.0131579 181.269182,24.0131579 C48.9731733,24.0131579 14.4573849,0 14.4573849,0 C5.61430144,0 -0.7358666,7.11859875 0.27304667,15.8998353 L10.2303814,102.565077 C11.2389397,111.343224 20.0464515,114.924977 28.0661957,118.464912 C36.8640108,122.34829 67.9499676,317.602498 67.9499676,317.602498 C68.9023998,327.289962 118.788773,347.141956 190.983427,347.141952 C263.178082,347.141948 309.098025,327.285638 310.050032,317.602498 C310.050032,317.602498 341.397988,121.918367 349.932421,118.464912 Z"></path>
        <path id="path-6" d="M512,0 L512,242.283203 L428.541016,261.84375 L438.557887,173.899835 C439.566445,165.121689 433.216255,158 424.373548,158 C424.373548,158 374.397507,182.013158 242.101498,182.013158 C109.80549,182.013158 75.2897013,158 75.2897013,158 C66.4466178,158 60.0964498,165.118599 61.105363,173.899835 L71.6289062,266.021484 L0,223.757813 L0,0 L512,0 Z"></path>
        <rect id="path-8" x="0.449902109" y="0.94874013" width="67" height="257" rx="40"></rect>
        <path id="path-10" d="M53.2868907,63.3761646 C50.4132242,53.9764492 46.5011386,36.3701896 41.3144798,34.2178042 C36.127821,32.0654188 25.9288648,30.8743538 20.812424,29.3429845 C15.6959832,27.8116152 3.32263824,19.0993549 1.06698606,14.8549606 C-1.18866612,10.6105663 0.169143393,5.65655136 5.57671248,5.65655136 C10.9842816,5.65655136 18.2096264,7.33768591 20.5070944,7.33768591 C22.8045623,7.33768591 29.119442,7.37532325 31.7545856,4.74619818 C34.3897292,2.1170731 37.0777332,-1.09464664 44.5894753,0.506508562 C52.1012174,2.10766377 57.3588809,5.12884448 57.3588809,5.12884448 C57.3588809,5.12884448 66.2244862,12.9700729 64.9282153,18.7763011 C63.6319443,24.5825292 54.6677176,31.3644242 54.6677198,35.146192 C54.6677219,38.9279597 51.6228335,37.2149201 57.3588828,55.4558465 C63.0949322,73.6967728 66.2244855,87.6879197 66.2244855,87.6879197 L61.601937,91.1920043 C61.601937,91.1920043 56.1605572,72.77588 53.2868907,63.3761646 Z"></path>
        <path id="path-12" d="M0.467718399,76.9242643 C0.467718399,76.9242643 7.63910777,63.1857448 7.29147252,59.3760683 C6.94383728,55.5663918 5.54194711,49.3919723 5.83907403,48.1103894 C6.13620095,46.8288065 7.48118137,47.5350912 7.94137498,45.550161 C8.40156859,43.5652307 7.58777053,33.174195 7.62151444,31.0344384 C7.65525834,28.8946818 8.93451795,27.5779264 10.3143112,28.4708124 C11.6941044,29.3636985 14.0782025,28.9047952 14.6406824,26.4786779 C15.2031622,24.0525606 17.2753641,22.820565 18.4322611,22.2009095 C19.5891581,21.581254 20.2756498,20.8044698 20.6835548,19.0450716 C21.0914597,17.2856733 23.6190506,19.0072733 25.0568152,19.3378108 C26.4945799,19.6683482 29.8468503,17.7275377 30.1791868,16.2940917 C30.5115233,14.8606456 33.4628248,17.6914231 33.733235,16.525076 C34.0036452,15.3587289 38.6420486,10.2842489 40.0798149,10.6147865 C41.5175812,10.945324 43.2686083,10.8107843 47.1509436,9.50161972 C51.0332789,8.19245517 56.5401529,5.5917278 59.2886898,3.31444888 C62.0372266,1.03716995 65.3862595,3.58788331 67.5582441,3.08064935 C69.7302287,2.57341539 75.6467509,-0.0935267996 76.6824241,0.144570898 C77.7180973,0.382668595 77.5658108,1.03951036 77.5658108,1.03951036 C77.5658108,1.03951036 80.9231305,1.70514199 83.4865411,1.02216563 C86.0499518,0.339189266 91.6709905,0.126366993 93.589113,0.567337199 C95.5072356,1.00830741 101.379525,3.09439556 107.294173,2.78911508 C113.208822,2.4838346 121.024604,5.23823947 122.900901,5.66959397 C124.777197,6.10094847 130.752711,5.96961885 133.859724,6.68391111 C136.966736,7.39820336 141.253791,9.15019562 142.517492,10.1637793 C143.781192,11.1773629 141.870194,12.2145009 141.001142,13.1296479 C140.13209,14.0447948 137.635274,15.3811796 139.166733,16.6960407 C140.698191,18.0109018 140.29265,20.0855573 137.871382,21.4986993 C135.450113,22.9118413 133.142998,23.8345041 132.84072,25.1383114 C132.538442,26.4421187 133.586817,26.770268 133.300379,28.005757 C133.013941,29.2412459 124.385109,33.9501729 117.157203,37.9030772 C109.929297,41.8559814 91.83623,50.1324356 82.4386559,52.3757979 C73.0410818,54.6191601 53.4523781,58.788636 41.8394384,61.1525576 C30.2264987,63.5164791 29.2968542,64.2000814 26.1281214,65.7894776 C22.9593885,67.3788737 16.3873598,69.2986308 12.5113038,71.9465608 C8.63524774,74.5944907 0.467718399,76.9242643 0.467718399,76.9242643 L0.467718399,76.9242643 Z"></path>
        <path id="path-14" d="M112.832314,13.3078549 C112.832314,13.3078549 109.341142,16.3894122 107.264585,16.3894122 C105.188028,16.3894122 102.440061,16.6889427 102.440061,16.6889427 C102.440061,16.6889427 94.4154936,23.4628799 92.6632014,24.6445356 C90.9109091,25.8261913 91.826898,26.1296424 91.826898,28.3800417 C91.826898,30.630441 89.5018167,43.4240004 89.5018169,47.621348 C89.501817,51.8186957 86.8761399,51.3568541 84.2354726,53.9201138 C81.5948053,56.4833736 76.8641685,62.7954693 76.8641685,66.6383986 C76.8641685,70.4813279 71.146536,74.7727689 68.0553694,76.5746565 C64.9642029,78.3765442 64.7622277,82.6813151 64.7622277,85.9636048 C64.7622277,89.2458946 63.6434747,95.3392232 58.9317732,97.4312321 C54.2200716,99.523241 50.3809658,97.7723205 48.5395204,95.9092721 C46.6980751,94.0462238 43.5319568,93.6157467 39.9192841,96.0770719 C36.3066114,98.5383972 28.7988163,101.732082 26.6236386,103.562198 C24.4484609,105.392314 21.7281081,103.842126 18.8389167,99.0284668 C15.9497252,94.2148077 12.7875518,90.2911149 12.7875518,88.9377389 C12.7875518,87.5843628 12.1816263,80.3376065 9.72478795,80.3376065 C7.26794959,80.3376065 4.50972643,81.0378179 2.55545904,81.0378179 C0.601191661,81.0378179 -1.54558329,73.5401459 1.67734051,67.698517 C4.90026432,61.8568881 6.94368507,56.7907452 6.94368479,53.2285277 C6.94368452,49.6663102 4.9799501,46.1315366 8.0711164,42.5599098 C11.1622827,38.988283 13.295645,35.6863905 13.2956455,34.5243376 C13.295646,33.3622847 13.4009719,32.1994477 15.1627322,31.0977713 C16.9244925,29.996095 20.1261148,27.769219 20.1261138,24.7923406 C20.1261127,21.8154622 21.9861008,19.7893187 24.3048692,18.713126 C26.6236376,17.6369332 34.6142816,15.0968048 37.0364044,13.1706355 C39.4585272,11.2444661 42.136278,8.65337046 44.8799043,8.65337046 C47.6235305,8.65337046 51.1513885,5.34520503 52.5916469,3.58487524 C54.0319054,1.82454545 62.0371391,1.92020702 65.0462553,1.92020702 C68.0553715,1.92020702 71.1867712,0.878907225 72.5564173,0.878907263 C73.9260633,0.878907301 84.0011478,4.62578295 86.7514834,4.62578295 C89.5018189,4.62578295 93.0493979,4.01652849 93.0493999,1.89433135 C93.049402,-0.227865789 98.307458,0.94202822 100.373761,2.78390558 C102.440063,4.62578295 112.987738,9.31359205 113.718322,10.8100685 C114.448906,12.3065449 112.832314,13.3078549 112.832314,13.3078549 Z"></path>
        <path id="path-16" d="M34.9664803,7.53025865 C39.8509651,6.06004973 42.6375911,-0.789946276 48.5193284,1.23227668 C54.4010657,3.25449963 69.2943662,12.3643048 67.9128877,18.7744139 C66.5314093,25.184523 66.3807167,28.6455905 59.9072555,30.9281385 C53.4337942,33.2106866 45.3610997,30.5078538 41.8336353,29.6672876 C38.3061708,28.8267214 33.8469382,29.7370725 30.7841744,31.2684428 C27.7214105,32.7998132 20.9378857,36.2224598 17.0806337,36.2224578 C13.2233817,36.2224558 2.76643384,30.1996996 1.02282023,25.6565585 C-0.72079338,21.1134174 0.134445151,14.8805175 3.37630412,10.4071626 C6.61816309,5.93380774 9.66751437,5.43432904 12.7492135,5.43432895 C15.8309126,5.43432886 19.9414223,8.52529527 24.1694882,8.52529556 C28.3975541,8.52529586 30.0819954,9.00046757 34.9664803,7.53025865 Z"></path>
    </defs>
    <g id="Module-Icons" stroke="none" stroke-width="1" fill="none" fill-rule="evenodd" sketch:type="MSPage">
        <g id="Plant" sketch:type="MSArtboardGroup">
            <g id="planting" sketch:type="MSLayerGroup">
                <rect id="hit" sketch:type="MSShapeGroup" x="0" y="0" width="512" height="512"></rect>
                <path d="M250,489.685393 C368.741221,489.685393 465,393.426614 465,274.685393 C465,155.944172 368.741221,59.6853933 250,59.6853933 C131.258779,59.6853933 35,155.944172 35,274.685393 C35,393.426614 131.258779,489.685393 250,489.685393 Z" id="background" fill="#F8D454" sketch:type="MSShapeGroup"></path>
                <mask id="mask-2" sketch:name="mask-circle" fill="white">
                    <use xlink:href="#path-1"></use>
                </mask>
                <use id="mask-circle" sketch:type="MSShapeGroup" xlink:href="#path-1"></use>
                <g id="pot" mask="url(#mask-2)">
                    <g transform="translate(61.000000, 133.000000)">
                        <path d="M1.54851364,35.5828493 C1.54851364,35.5828493 0.278701233,29.6864121 7.48632835,25.2558594 C14.6939555,20.8253067 91.2762692,0.0996094397 189.525549,0.0996094296 C287.774829,0.0996094194 361.231281,20.4063272 369.13965,25.2558594 C377.048019,30.1053917 377.502599,37.2853447 377.502599,37.2853447 L189.525556,79.5397478 L1.54851364,35.5828493 Z" id="pot-rim-back" fill="#EDB686" sketch:type="MSShapeGroup"></path>
                        <path d="M37.7373045,33.0771484 C14.9306642,27.0234374 114.702523,13.4628906 194.999994,13.4628906 C275.297465,13.4628906 361.058579,27.3906249 344.942395,30.7099609 C328.826211,34.0292968 235.935548,91.9335937 235.935548,91.9335937 L111.583985,81.5351562 C111.583985,81.5351562 60.5439447,39.1308593 37.7373045,33.0771484 Z" id="pot-back" fill="#835933" sketch:type="MSShapeGroup"></path>
                        <g id="soil">
                            <use fill="#57422C" sketch:type="MSShapeGroup" xlink:href="#path-3"></use>
                            <use fill-opacity="0.284398321" fill="none" xlink:href="#path-3"></use>
                        </g>
                        <g id="foreground" stroke-width="1" fill="none" sketch:type="MSLayerGroup" transform="translate(0.000000, 24.609649)">
                            <mask id="mask-5" sketch:name="pot shape" fill="white">
                                <use xlink:href="#path-4"></use>
                            </mask>
                            <g id="pot-shape">
                                <use fill="#DA985D" sketch:type="MSShapeGroup" xlink:href="#path-4"></use>
                                <use fill-opacity="0.0226795709" fill="none" xlink:href="#path-4"></use>
                            </g>
                            <path d="M29.1323904,119.67026 C29.1323904,119.67026 104.734267,138.743048 190.094127,138.743048 C267.992965,138.743048 349.454168,118.654078 349.454168,118.654078 L346.817002,125.654789 C346.817002,125.654789 276.487892,147.521296 190.094127,147.521296 C103.700361,147.521296 31.9635113,127.386989 31.9635113,127.386989 L29.1323904,119.67026 Z" id="pot-rim-shade" fill="#8F633B" sketch:type="MSShapeGroup" mask="url(#mask-5)"></path>
                            <path d="M239.87884,15.6710869 L230.450113,141.891567 L209.84706,141.891567 L198.115896,371.178385 L336.556144,350.023043 L404.027542,-40.3346012 L247.368015,9.04245477 L239.87884,15.6710869 Z" id="pot-shade" fill-opacity="0.200000018" fill="#88572C" sketch:type="MSShapeGroup" mask="url(#mask-5)"></path>
                            <path d="M180.269185,39.5446472 C331.821574,39.5446472 377.660598,10.7285691 376.748858,8.52377442 C374.653827,3.45750938 369.702576,0 363.541232,0 C363.541232,0 313.56519,24.0131579 181.269182,24.0131579 C48.9731733,24.0131579 14.4573849,0 14.4573849,0 C7.78498518,0 2.5318528,4.05276272 0.788351684,9.81456534 C0.221151025,11.6890111 28.7167959,39.5446472 180.269185,39.5446472 Z" id="pot-rim" fill="#EDB686" sketch:type="MSShapeGroup" mask="url(#mask-5)"></path>
                        </g>
                    </g>
                </g>
                <g id="things-in-pot" mask="url(#mask-2)">
                    <mask id="mask-7" sketch:name="mask-notpot" fill="white">
                        <use xlink:href="#path-6"></use>
                    </mask>
                    <use id="mask-notpot" sketch:type="MSShapeGroup" xlink:href="#path-6"></use>
                    <g id="label" mask="url(#mask-7)">
                        <g transform="translate(363.185344, 131.761699) rotate(13.000000) translate(-363.185344, -131.761699) translate(327.685344, 2.761699)">
                            <rect id="Rectangle-91" stroke="none" fill="#CECCBD" fill-rule="evenodd" sketch:type="MSShapeGroup" x="3" y="5.68434189e-14" width="67" height="257" rx="40"></rect>
                            <mask id="mask-9" sketch:name="Rectangle 91" fill="white">
                                <use xlink:href="#path-8"></use>
                            </mask>
                            <use id="Rectangle-91" stroke="none" fill="#F7F7EF" fill-rule="evenodd" sketch:type="MSShapeGroup" xlink:href="#path-8"></use>
                            <path d="M-0.460619955,175.072981 L73.8301803,156.110798 L78.2208969,179.109766 L-8.7746382,203.133111 L-0.460619955,175.072981 Z" id="Path-462" stroke="none" fill="#CECCBC" fill-rule="evenodd" sketch:type="MSShapeGroup" mask="url(#mask-9)"></path>
                            <g id="berza-galega" stroke="none" stroke-width="1" fill="none" fill-rule="evenodd" sketch:type="MSLayerGroup" mask="url(#mask-9)">
                                <g transform="translate(32.500000, 112.000000) rotate(-90.000000) translate(-32.500000, -112.000000) translate(-47.000000, 99.000000)" fill="#706D53" sketch:type="MSShapeGroup">
                                    <path d="M6.3407813,15.6882113 C6.3407813,15.5122104 6.37678094,15.352212 6.4487813,15.2082113 C6.52078166,15.0642106 6.66078026,14.9922113 6.8687813,14.9922113 C7.1087825,14.9922113 7.31678042,15.0682105 7.4927813,15.2202113 C7.66878218,15.3722121 7.86878018,15.5362104 8.0927813,15.7122113 C8.31678242,15.8882122 8.59677962,16.0522105 8.9327813,16.2042113 C9.26878298,16.3562121 9.7167785,16.4322113 10.2767813,16.4322113 C10.7887839,16.4322113 11.3807779,16.3562121 12.0527813,16.2042113 C12.7247847,16.0522105 13.3607783,15.8162129 13.9607813,15.4962113 C14.5607843,15.1762097 15.0647793,14.7802137 15.4727813,14.3082113 C15.8807833,13.8362089 16.0847813,13.2722146 16.0847813,12.6162113 C16.0847813,12.0882087 15.9007831,11.6282133 15.5327813,11.2362113 C15.1647795,10.8442093 14.7167839,10.5202126 14.1887813,10.2642113 C13.6607787,10.00821 13.1047842,9.82021189 12.5207813,9.70021129 C11.9367784,9.58021069 11.4287835,9.52021129 10.9967813,9.52021129 C10.4367785,9.52021129 9.8167847,9.58421065 9.1367813,9.71221129 C8.4567779,9.84021193 7.88478362,10.0722096 7.4207813,10.4082113 C7.14877994,10.6162123 6.87678266,10.85221 6.6047813,11.1162113 C6.33277994,11.3802126 6.01278314,11.5122113 5.6447813,11.5122113 C5.3247797,11.5122113 5.06878226,11.3842126 4.8767813,11.1282113 C4.68478034,10.87221 4.5887813,10.6002127 4.5887813,10.3122113 C4.5887813,10.2002107 4.68478034,10.0322124 4.8767813,9.80821129 C5.06878226,9.58421017 5.30877986,9.32421277 5.5967813,9.02821129 C5.88478274,8.73220981 6.20077958,8.40421309 6.5447813,8.04421129 C6.88878302,7.68420949 7.20477986,7.29621337 7.4927813,6.88021129 C7.78078274,6.46420921 8.02078034,6.03621349 8.2127813,5.59621129 C8.40478226,5.15620909 8.5007813,4.70421361 8.5007813,4.24021129 C8.5007813,4.09621057 8.49678134,3.94021213 8.4887813,3.77221129 C8.48078126,3.60421045 8.4567815,3.44021209 8.4167813,3.28021129 C8.3767811,3.12021049 8.32078166,2.96821201 8.2487813,2.82421129 C8.17678094,2.68021057 8.07678194,2.56821169 7.9487813,2.48821129 C7.90078106,2.48821129 7.78478222,2.48021137 7.6007813,2.46421129 C7.41678038,2.44821121 7.30078154,2.44021129 7.2527813,2.44021129 C6.66077834,2.44021129 6.14878346,2.60820961 5.7167813,2.94421129 C5.28477914,3.28021297 4.91678282,3.71620861 4.6127813,4.25221129 C4.30877978,4.78821397 4.06478222,5.38820797 3.8807813,6.05221129 C3.69678038,6.71621461 3.55278182,7.38020797 3.4487813,8.04421129 C3.34478078,8.70821461 3.2727815,9.34020829 3.2327813,9.94021129 C3.1927811,10.5402143 3.1727813,11.0322094 3.1727813,11.4162113 C3.1727813,12.3122158 3.20878094,13.188207 3.2807813,14.0442113 C3.35278166,14.9002156 3.3887813,15.7842067 3.3887813,16.6962113 C3.3887813,17.0482131 3.3487817,17.3282103 3.2687813,17.5362113 C3.1887809,17.7442123 2.94078338,17.8482113 2.5247813,17.8482113 C2.18877962,17.8482113 1.88878262,17.7082127 1.6247813,17.4282113 C1.36077998,17.1482099 1.2287813,16.8322131 1.2287813,16.4802113 C1.2287813,16.3682107 1.23678122,16.2882115 1.2527813,16.2402113 L0.364781304,4.93621129 C0.364781304,4.92021121 0.360781344,4.86021181 0.352781304,4.75621129 C0.344781264,4.65221077 0.340781304,4.58421145 0.340781304,4.55221129 C0.340781304,4.10420905 0.548779224,3.88021129 0.964781304,3.88021129 C1.22078258,3.88021129 1.47278006,3.94421065 1.7207813,4.07221129 C1.96878254,4.20021193 2.16478058,4.37621017 2.3087813,4.60021129 C2.51678234,4.12020889 2.77277978,3.64421365 3.0767813,3.17221129 C3.38078282,2.70020893 3.72477938,2.28021313 4.1087813,1.91221129 C4.49278322,1.54420945 4.9247789,1.24821241 5.4047813,1.02421129 C5.8847837,0.80021017 6.41277842,0.68821129 6.9887813,0.68821129 C7.50078386,0.68821129 7.96877918,0.78021037 8.3927813,0.96421129 C8.81678342,1.14821221 9.18077978,1.40020969 9.4847813,1.72021129 C9.78878282,2.04021289 10.0247805,2.41620913 10.1927813,2.84821129 C10.3607821,3.28021345 10.4447813,3.75220873 10.4447813,4.26421129 C10.4447813,4.63221313 10.4247815,4.95620989 10.3847813,5.23621129 C10.3447811,5.51621269 10.2847817,5.78820997 10.2047813,6.05221129 C10.1247809,6.31621261 10.012782,6.58020997 9.8687813,6.84421129 C9.72478058,7.10821261 9.55678226,7.41620953 9.3647813,7.76821129 C9.4447817,7.75221121 9.53278082,7.74421129 9.6287813,7.74421129 L9.9167813,7.74421129 C10.4127838,7.74421129 10.9647783,7.79621077 11.5727813,7.90021129 C12.1807843,8.00421181 12.7887783,8.15621029 13.3967813,8.35621129 C14.0047843,8.55621229 14.5967784,8.80420981 15.1727813,9.10021129 C15.7487842,9.39621277 16.2607791,9.73620937 16.7087813,10.1202113 C17.1567835,10.5042132 17.5167799,10.9362089 17.7887813,11.4162113 C18.0607827,11.8962137 18.1967813,12.4162085 18.1967813,12.9762113 C18.1967813,13.5042139 18.0807825,14.000209 17.8487813,14.4642113 C17.6167801,14.9282136 17.3087832,15.3522094 16.9247813,15.7362113 C16.5407794,16.1202132 16.0967838,16.4642098 15.5927813,16.7682113 C15.0887788,17.0722128 14.568784,17.3282103 14.0327813,17.5362113 C13.4967786,17.7442123 12.960784,17.9042107 12.4247813,18.0162113 C11.8887786,18.1282119 11.3967835,18.1842113 10.9487813,18.1842113 C10.5807795,18.1842113 10.1327839,18.1482117 9.6047813,18.0762113 C9.07677866,18.0042109 8.5727837,17.8762122 8.0927813,17.6922113 C7.6127789,17.5082104 7.20078302,17.2562129 6.8567813,16.9362113 C6.51277958,16.6162097 6.3407813,16.2002139 6.3407813,15.6882113 L6.3407813,15.6882113 Z M18.6083133,14.7419025 C18.6083133,13.6858972 18.7203122,12.5979081 18.9443133,11.4779025 C19.1683145,10.3578969 19.3603125,9.29390751 19.5203133,8.28590247 C19.5683136,7.99790103 19.628313,7.78990311 19.7003133,7.66190247 C19.7723137,7.53390183 19.8683127,7.44990267 19.9883133,7.40990247 C20.1083139,7.36990227 20.2603124,7.34590251 20.4443133,7.33790247 C20.6283143,7.32990243 20.8483121,7.29390279 21.1043133,7.22990247 C21.1363135,7.22990247 21.2123127,7.20190275 21.3323133,7.14590247 C21.4523139,7.08990219 21.5803127,7.03390275 21.7163133,6.97790247 C21.852314,6.92190219 21.9843127,6.86590275 22.1123133,6.80990247 C22.240314,6.75390219 22.3203132,6.71790255 22.3523133,6.70190247 C22.9443163,6.46190127 23.5523102,6.28190307 24.1763133,6.16190247 C24.8003165,6.04190187 25.4283102,5.95790271 26.0603133,5.90990247 C26.6923165,5.86190223 27.3283101,5.83390251 27.9683133,5.82590247 C28.6083165,5.81790243 29.2483101,5.81390247 29.8883133,5.81390247 C30.0483141,5.81390247 30.2163125,5.84990211 30.3923133,5.92190247 C30.5683142,5.99390283 30.7283126,6.08990187 30.8723133,6.20990247 C31.0163141,6.32990307 31.1323129,6.46990167 31.2203133,6.62990247 C31.3083138,6.78990327 31.3523133,6.95790159 31.3523133,7.13390247 C31.3523133,7.18190271 31.3323135,7.24990203 31.2923133,7.33790247 C31.2523131,7.42590291 31.2043136,7.51390203 31.1483133,7.60190247 C31.0923131,7.68990291 31.0323137,7.76590215 30.9683133,7.82990247 C30.904313,7.89390279 30.8483136,7.92590247 30.8003133,7.92590247 L26.0483133,7.92590247 C25.6803115,7.92590247 25.3003153,7.97390199 24.9083133,8.06990247 C24.5163114,8.16590295 24.1283153,8.29390167 23.7443133,8.45390247 C23.3603114,8.61390327 22.9843152,8.78590155 22.6163133,8.96990247 C22.2483115,9.15390339 21.9203148,9.34190151 21.6323133,9.53390247 C21.4723125,10.2699062 21.2843144,11.0058988 21.0683133,11.7419025 C20.8523123,12.4779062 20.7443133,13.2378986 20.7443133,14.0219025 L20.7443133,14.1179025 L28.1603133,12.3419025 C28.1923135,12.3419025 28.2523129,12.3379025 28.3403133,12.3299025 C28.4283138,12.3219024 28.4963131,12.3179025 28.5443133,12.3179025 C29.0243157,12.3179025 29.2643133,12.5659 29.2643133,13.0619025 C29.2643133,13.2539034 29.2163138,13.4179018 29.1203133,13.5539025 C29.0243129,13.6899032 28.9043141,13.805902 28.7603133,13.9019025 C28.6163126,13.997903 28.4563142,14.0739022 28.2803133,14.1299025 C28.1043125,14.1859028 27.9443141,14.2379022 27.8003133,14.2859025 C27.5763122,14.3499028 27.1923161,14.4579017 26.6483133,14.6099025 C26.1043106,14.7619032 25.5243164,14.9219016 24.9083133,15.0899025 C24.2923103,15.2579033 23.7083161,15.4179017 23.1563133,15.5699025 C22.6043106,15.7219032 22.2163145,15.8219022 21.9923133,15.8699025 L20.9363133,16.3979025 C20.9203133,16.4299026 20.9123133,16.4539024 20.9123133,16.4699025 L20.9123133,16.5419025 C20.9123133,16.8139038 20.9763127,17.0419016 21.1043133,17.2259025 C21.232314,17.4099034 21.4003123,17.5579019 21.6083133,17.6699025 C21.8163144,17.781903 22.0363122,17.8659022 22.2683133,17.9219025 C22.5003145,17.9779028 22.7283122,18.0059025 22.9523133,18.0059025 C23.5283162,18.0059025 24.1203103,17.953903 24.7283133,17.8499025 C25.3363164,17.745902 25.9443103,17.6219032 26.5523133,17.4779025 C27.1603164,17.3339018 27.7523105,17.1819033 28.3283133,17.0219025 C28.9043162,16.8619017 29.4403109,16.7179031 29.9363133,16.5899025 C30.3523154,16.4779019 30.7763112,16.3299034 31.2083133,16.1459025 C31.6403155,15.9619016 32.0643113,15.8699025 32.4803133,15.8699025 C32.608314,15.8699025 32.6883132,15.917902 32.7203133,16.0139025 C32.7523135,16.109903 32.7683133,16.2139019 32.7683133,16.3259025 L32.7683133,16.5419025 C32.7683133,16.845904 32.5883151,17.1379011 32.2283133,17.4179025 C31.8683115,17.6979039 31.4003162,17.9659012 30.8243133,18.2219025 C30.2483105,18.4779038 29.6083169,18.7099014 28.9043133,18.9179025 C28.2003098,19.1259035 27.5043168,19.3059017 26.8163133,19.4579025 C26.1283099,19.6099032 25.4843163,19.729902 24.8843133,19.8179025 C24.2843103,19.9059029 23.816315,19.9499025 23.4803133,19.9499025 C22.7443097,19.9499025 22.0763163,19.8099039 21.4763133,19.5299025 C20.8763103,19.2499011 20.3643155,18.8699049 19.9403133,18.3899025 C19.5163112,17.9099001 19.1883145,17.3579056 18.9563133,16.7339025 C18.7243122,16.1098994 18.6083133,15.445906 18.6083133,14.7419025 L18.6083133,14.7419025 Z M34.7363133,15.3419025 C34.7363133,15.4059028 34.7323134,15.5339015 34.7243133,15.7259025 C34.7163133,15.9179034 34.7123133,16.0379022 34.7123133,16.0859025 C34.7123133,16.6459053 34.7723127,17.2058997 34.8923133,17.7659025 C35.0123139,18.3259053 35.0723133,18.8858997 35.0723133,19.4459025 C35.0723133,19.6219034 34.9923141,19.7819018 34.8323133,19.9259025 C34.6723125,20.0699032 34.4963143,20.1419025 34.3043133,20.1419025 C33.9523116,20.1419025 33.6563145,19.9379045 33.4163133,19.5299025 C33.1763121,19.1219004 32.9843141,18.6499052 32.8403133,18.1139025 C32.6963126,17.5778998 32.5883137,17.0419052 32.5163133,16.5059025 C32.444313,15.9698998 32.4083133,15.5819037 32.4083133,15.3419025 L32.4083133,15.0299025 C32.4083133,14.8379015 32.4043134,14.6139038 32.3963133,14.3579025 C32.3883133,14.1019012 32.3843133,13.8459038 32.3843133,13.5899025 L32.3843133,12.9899025 C32.3843133,11.8698969 32.416313,10.7939076 32.4803133,9.76190247 C32.5443137,8.72989731 32.7523116,7.81790643 33.1043133,7.02590247 C33.4563151,6.23389851 34.0043096,5.60190483 34.7483133,5.12990247 C35.4923171,4.65790011 36.5363066,4.42190247 37.8803133,4.42190247 C38.2803153,4.42190247 38.7323108,4.45790211 39.2363133,4.52990247 C39.7403159,4.60190283 40.2483108,4.71790167 40.7603133,4.87790247 C41.2723159,5.03790327 41.7763109,5.23790127 42.2723133,5.47790247 C42.7683158,5.71790367 43.2083114,5.99790087 43.5923133,6.31790247 C43.9763153,6.63790407 44.2843122,7.00990035 44.5163133,7.43390247 C44.7483145,7.85790459 44.8643133,8.32589991 44.8643133,8.83790247 C44.8643133,9.41390535 44.7083149,9.94190007 44.3963133,10.4219025 C44.0843118,10.9019049 43.6963157,11.3339006 43.2323133,11.7179025 C42.768311,12.1019044 42.2763159,12.441901 41.7563133,12.7379025 C41.2363107,13.033904 40.7683154,13.3019013 40.3523133,13.5419025 C40.2403128,13.6059028 40.0443147,13.7099018 39.7643133,13.8539025 C39.4843119,13.9979032 39.1883149,14.1459017 38.8763133,14.2979025 C38.5643118,14.4499032 38.2643148,14.5979018 37.9763133,14.7419025 C37.6883119,14.8859032 37.4883139,14.9819022 37.3763133,15.0299025 C37.4723138,15.1739032 37.6243123,15.2819021 37.8323133,15.3539025 C38.0403144,15.4259028 38.2163126,15.4779023 38.3603133,15.5099025 L44.0003133,18.3419025 C44.1923143,18.437903 44.3803124,18.529902 44.5643133,18.6179025 C44.7483143,18.7059029 44.9123126,18.801902 45.0563133,18.9059025 C45.2003141,19.009903 45.3123129,19.1419017 45.3923133,19.3019025 C45.4723137,19.4619033 45.5123133,19.6699012 45.5123133,19.9259025 C45.5123133,20.1659037 45.4363141,20.3779016 45.2843133,20.5619025 C45.1323126,20.7459034 44.9203147,20.8379025 44.6483133,20.8379025 C44.6323133,20.8379025 44.6043135,20.8339025 44.5643133,20.8259025 C44.5243131,20.8179024 44.4963134,20.8139025 44.4803133,20.8139025 C44.2883124,20.6539017 43.9803155,20.4419038 43.5563133,20.1779025 C43.1323112,19.9139012 42.6483161,19.633904 42.1043133,19.3379025 C41.5603106,19.041901 41.0043162,18.745904 40.4363133,18.4499025 C39.8683105,18.153901 39.3443157,17.8939036 38.8643133,17.6699025 C38.4483113,17.4779015 38.0563152,17.3139032 37.6883133,17.1779025 C37.3203115,17.0419018 36.968315,16.8979032 36.6323133,16.7459025 C36.2963117,16.5939017 35.9723149,16.4099036 35.6603133,16.1939025 C35.3483118,15.9779014 35.0403149,15.6939042 34.7363133,15.3419025 L34.7363133,15.3419025 Z M34.7363133,14.0219025 C34.7363133,14.0219025 34.8003127,14.0019027 34.9283133,13.9619025 C35.056314,13.9219023 35.2083125,13.8659028 35.3843133,13.7939025 C35.5603142,13.7219021 35.7403124,13.6459029 35.9243133,13.5659025 C36.1083143,13.4859021 36.2643127,13.4219027 36.3923133,13.3739025 C36.920316,13.1339013 37.3803114,12.9219034 37.7723133,12.7379025 C38.1643153,12.5539016 38.5323116,12.3699034 38.8763133,12.1859025 C39.2203151,12.0019016 39.5603117,11.8099035 39.8963133,11.6099025 C40.232315,11.4099015 40.6083113,11.1659039 41.0243133,10.8779025 C41.2163143,10.7499018 41.4283122,10.5979034 41.6603133,10.4219025 C41.8923145,10.2459016 42.1083123,10.0499036 42.3083133,9.83390247 C42.5083143,9.61790139 42.6763127,9.38590371 42.8123133,9.13790247 C42.948314,8.88990123 43.0163133,8.62990383 43.0163133,8.35790247 C43.0163133,8.11790127 42.9243143,7.90190343 42.7403133,7.70990247 C42.5563124,7.51790151 42.3203148,7.34990319 42.0323133,7.20590247 C41.7443119,7.06190175 41.4203151,6.93790299 41.0603133,6.83390247 C40.7003115,6.72990195 40.352315,6.64590279 40.0163133,6.58190247 C39.6803117,6.51790215 39.3723147,6.46990263 39.0923133,6.43790247 C38.8123119,6.40590231 38.6003141,6.38990247 38.4563133,6.38990247 C37.8963105,6.38990247 37.3683158,6.43790199 36.8723133,6.53390247 C36.3763109,6.62990295 35.9443152,6.80190123 35.5763133,7.04990247 C35.2083115,7.29790371 34.9163144,7.62590043 34.7003133,8.03390247 C34.4843123,8.44190451 34.3763133,8.95789935 34.3763133,9.58190247 C34.3763133,9.70990311 34.4323128,9.90190119 34.5443133,10.1579025 C34.6563139,10.4139038 34.7683128,10.6539014 34.8803133,10.8779025 L34.5683133,13.8539025 L34.7363133,14.0219025 Z M34.5683133,14.6939025 C34.4883129,14.6939025 34.4483133,14.7499019 34.4483133,14.8619025 C34.4483133,14.973903 34.4883129,15.0299025 34.5683133,15.0299025 C34.6483137,15.0299025 34.6883133,14.973903 34.6883133,14.8619025 C34.6883133,14.7499019 34.6483137,14.6939025 34.5683133,14.6939025 Z M45.2393623,17.0315324 L47.2553623,15.1115324 L49.4633623,13.3835324 C49.6233631,13.2395317 49.8993603,12.9835342 50.2913623,12.6155324 C50.6833643,12.2475306 51.0913602,11.8595344 51.5153623,11.4515324 C51.9393644,11.0435304 52.3393604,10.6595342 52.7153623,10.2995324 C53.0913642,9.93953061 53.3513616,9.68753313 53.4953623,9.54353241 C53.6553631,9.38353161 53.8513611,9.17953365 54.0833623,8.93153241 C54.3153635,8.68353117 54.5393612,8.41153389 54.7553623,8.11553241 C54.9713634,7.81953093 55.1593615,7.51953393 55.3193623,7.21553241 C55.4793631,6.91153089 55.5593623,6.63153369 55.5593623,6.37553241 C55.5593623,6.15153129 55.3833641,5.96353317 55.0313623,5.81153241 C54.6793605,5.65953165 54.2753646,5.53953285 53.8193623,5.45153241 C53.36336,5.36353197 52.9273644,5.30353257 52.5113623,5.27153241 C52.0953602,5.23953225 51.8233629,5.22353241 51.6953623,5.22353241 C50.7673577,5.22353241 49.8913664,5.32753137 49.0673623,5.53553241 C48.2433582,5.74353345 47.5273653,6.18352905 46.9193623,6.85553241 C46.9993627,7.03153329 47.0513622,7.17953181 47.0753623,7.29953241 C47.0993624,7.41953301 47.1113623,7.56753153 47.1113623,7.74353241 C47.1113623,8.11153425 46.9113643,8.29553241 46.5113623,8.29553241 L46.2713623,8.29553241 C45.8553602,7.95953073 45.5193636,7.63953393 45.2633623,7.33553241 C45.007361,7.03153089 44.8793623,6.63153489 44.8793623,6.13553241 C44.8793623,6.10353225 44.8833623,6.03553293 44.8913623,5.93153241 C44.8993623,5.82753189 44.9033623,5.75953257 44.9033623,5.72753241 C45.7353665,4.78352769 46.6953569,4.14753405 47.7833623,3.81953241 C48.8713677,3.49153077 50.0553559,3.32753241 51.3353623,3.32753241 C51.6553639,3.32753241 52.0353601,3.35553213 52.4753623,3.41153241 C52.9153645,3.46753269 53.36736,3.55153185 53.8313623,3.66353241 C54.2953646,3.77553297 54.7513601,3.92353149 55.1993623,4.10753241 C55.6473645,4.29153333 56.0513605,4.51153113 56.4113623,4.76753241 C56.7713641,5.02353369 57.0593612,5.31553077 57.2753623,5.64353241 C57.4913634,5.97153405 57.5993623,6.34353033 57.5993623,6.75953241 C57.5993623,7.14353433 57.5153631,7.52753049 57.3473623,7.91153241 C57.1793615,8.29553433 56.9713635,8.66353065 56.7233623,9.01553241 C56.4753611,9.36753417 56.1993638,9.69953085 55.8953623,10.0115324 C55.5913608,10.323534 55.3033637,10.5995312 55.0313623,10.8395324 L48.2633623,17.0315324 C48.3433627,17.0315324 48.4873613,17.0355324 48.6953623,17.0435324 C48.9033633,17.0515324 49.0473619,17.0555324 49.1273623,17.0555324 C49.2233628,17.0555324 49.3793612,17.0515324 49.5953623,17.0435324 C49.8113634,17.0355324 49.9353621,17.0315324 49.9673623,17.0315324 C50.1593633,17.0315324 50.5753591,17.0035327 51.2153623,16.9475324 C51.8553655,16.8915321 52.5633584,16.8315327 53.3393623,16.7675324 C54.1153662,16.7035321 54.8673587,16.6355328 55.5953623,16.5635324 C56.3233659,16.491532 56.8713605,16.4395326 57.2393623,16.4075324 C57.2873625,16.4075324 57.3833616,16.3875326 57.5273623,16.3475324 C57.671363,16.3075322 57.8273615,16.2715326 57.9953623,16.2395324 C58.1633631,16.2075322 58.3233615,16.1755326 58.4753623,16.1435324 C58.6273631,16.1115322 58.7513618,16.0955324 58.8473623,16.0955324 L58.9193623,16.0955324 C59.1433634,16.2715333 59.3713611,16.4635314 59.6033623,16.6715324 C59.8353635,16.8795334 59.9513623,17.1355309 59.9513623,17.4395324 C59.9513623,17.6315334 59.9033628,17.7955317 59.8073623,17.9315324 C59.7113618,18.0675331 59.5833631,18.1995318 59.4233623,18.3275324 C59.1833611,18.3115323 58.9473635,18.2995324 58.7153623,18.2915324 C58.4833611,18.2835324 58.2473635,18.2795324 58.0073623,18.2795324 C57.1913582,18.2795324 56.3793663,18.315532 55.5713623,18.3875324 C54.7633583,18.4595328 53.9553663,18.539532 53.1473623,18.6275324 C52.3393583,18.7155328 51.5273664,18.795532 50.7113623,18.8675324 C49.8953582,18.9395328 49.0793664,18.9755324 48.2633623,18.9755324 L47.9993623,18.9755324 C47.8713617,18.9755324 47.735363,18.9715324 47.5913623,18.9635324 C47.4473616,18.9555324 47.3113629,18.9515324 47.1833623,18.9515324 L46.9193623,18.9515324 C46.7113613,18.9195322 46.5073633,18.847533 46.3073623,18.7355324 C46.1073613,18.6235318 45.9273631,18.4915332 45.7673623,18.3395324 C45.6073615,18.1875316 45.4793628,18.0115334 45.3833623,17.8115324 C45.2873618,17.6115314 45.2393623,17.4075334 45.2393623,17.1995324 L45.2393623,17.0315324 Z M66.9443133,17.2139025 C66.9123132,17.2139025 66.8523138,17.2179024 66.7643133,17.2259025 C66.6763129,17.2339025 66.6243134,17.2379025 66.6083133,17.2379025 L61.4243133,18.3659025 C61.2163123,18.4139027 61.0403141,18.5179017 60.8963133,18.6779025 C60.7523126,18.8379033 60.612314,19.0019016 60.4763133,19.1699025 C60.3403127,19.3379033 60.1923141,19.4899018 60.0323133,19.6259025 C59.8723125,19.7619032 59.6803145,19.8299025 59.4563133,19.8299025 C59.3443128,19.8299025 59.2043142,19.8139026 59.0363133,19.7819025 C58.8683125,19.7499023 58.7083141,19.6979028 58.5563133,19.6259025 C58.4043126,19.5539021 58.2723139,19.461903 58.1603133,19.3499025 C58.0483128,19.2379019 57.9923133,19.1019033 57.9923133,18.9419025 C57.9923133,18.7819017 58.0163131,18.6659028 58.0643133,18.5939025 C58.1123136,18.5219021 58.1763129,18.4739026 58.2563133,18.4499025 C58.3363137,18.4259024 58.4243129,18.4139025 58.5203133,18.4139025 C58.6163138,18.4139025 58.7123129,18.3979026 58.8083133,18.3659025 C58.8403135,18.3499024 58.8963129,18.3019029 58.9763133,18.2219025 C59.0563137,18.1419021 59.1123132,18.0779027 59.1443133,18.0299025 L59.7923133,17.0699025 C60.3523161,16.0458974 60.9003107,15.0059078 61.4363133,13.9499025 C61.972316,12.8938972 62.4643111,11.8219079 62.9123133,10.7339025 C63.3603156,9.64589703 63.7363118,8.53790811 64.0403133,7.40990247 C64.3443149,6.28189683 64.5523128,5.12590839 64.6643133,3.94190247 C64.6803134,3.86190207 64.720313,3.80990259 64.7843133,3.78590247 C64.8483137,3.76190235 64.912313,3.74990247 64.9763133,3.74990247 C65.312315,3.74990247 65.6483117,3.82190175 65.9843133,3.96590247 C66.320315,4.10990319 66.5283129,4.36590063 66.6083133,4.73390247 L68.7203133,14.6459025 L68.8643133,14.6459025 C68.8803134,14.6459025 68.9323129,14.6339026 69.0203133,14.6099025 C69.1083138,14.5859024 69.1963129,14.5659026 69.2843133,14.5499025 C69.3723138,14.5339024 69.4563129,14.5179026 69.5363133,14.5019025 C69.6163137,14.4859024 69.6643133,14.4779025 69.6803133,14.4779025 C70.0323151,14.4779025 70.340312,14.5619016 70.6043133,14.7299025 C70.8683147,14.8979033 71.0003133,15.1659006 71.0003133,15.5339025 C71.0003133,15.7419035 70.9243141,15.9019019 70.7723133,16.0139025 C70.6203126,16.125903 70.4363144,16.2179021 70.2203133,16.2899025 C70.0043123,16.3619028 69.7883144,16.4179023 69.5723133,16.4579025 C69.3563123,16.4979027 69.1763141,16.5419022 69.0323133,16.5899025 C69.0963137,16.9099041 69.1803128,17.2499007 69.2843133,17.6099025 C69.3883139,17.9699043 69.5003127,18.3339006 69.6203133,18.7019025 C69.7403139,19.0699043 69.8643127,19.4219008 69.9923133,19.7579025 C70.120314,20.0939042 70.2323129,20.3899012 70.3283133,20.6459025 L70.3283133,20.7179025 L70.3283133,20.7659025 C70.3283133,20.7819026 70.3363133,20.7899025 70.3523133,20.7899025 C70.3523133,21.0299037 70.2323145,21.197902 69.9923133,21.2939025 C69.7523121,21.389903 69.5443142,21.4379025 69.3683133,21.4379025 C69.1123121,21.4379025 68.9043141,21.3339035 68.7443133,21.1259025 C68.5843125,20.9179014 68.4443139,20.657904 68.3243133,20.3459025 C68.2043127,20.0339009 68.1003138,19.6939043 68.0123133,19.3259025 C67.9243129,18.9579006 67.8363138,18.617904 67.7483133,18.3059025 C67.6603129,17.9939009 67.552314,17.7339035 67.4243133,17.5259025 C67.2963127,17.3179014 67.1363143,17.2139025 66.9443133,17.2139025 L66.9443133,17.2139025 Z M65.6243133,8.64590247 C65.4323124,9.25390551 65.2003147,9.89389911 64.9283133,10.5659025 C64.656312,11.2379058 64.3723148,11.9098991 64.0763133,12.5819025 C63.7803119,13.2539058 63.4843148,13.9058993 63.1883133,14.5379025 C62.8923119,15.1699056 62.6243145,15.7418999 62.3843133,16.2539025 L62.7203133,16.2539025 L66.9443133,15.3899025 L65.7923133,9.12590247 L65.6243133,8.64590247 Z M92.4864112,15.6731623 C91.9264084,15.9451637 91.3944138,16.217161 90.8904112,16.4891623 C90.3864087,16.7611637 89.8784138,17.0091612 89.3664112,17.2331623 C88.8544087,17.4571635 88.322414,17.6411616 87.7704112,17.7851623 C87.2184085,17.9291631 86.6224144,18.0011623 85.9824112,18.0011623 C85.342408,18.0011623 84.742414,17.8851635 84.1824112,17.6531623 C83.6224084,17.4211612 83.1304134,17.0971644 82.7064112,16.6811623 C82.2824091,16.2651603 81.9504124,15.7731652 81.7104112,15.2051623 C81.47041,14.6371595 81.3504112,14.0171657 81.3504112,13.3451623 C81.3504112,12.6251587 81.4624101,11.8691663 81.6864112,11.0771623 C81.9104124,10.2851584 82.2184093,9.50916614 82.6104112,8.74916234 C83.0024132,7.98915854 83.4744085,7.26116582 84.0264112,6.56516234 C84.578414,5.86915886 85.178408,5.26116494 85.8264112,4.74116234 C86.4744145,4.22115974 87.1624076,3.8051639 87.8904112,3.49316234 C88.6184149,3.18116078 89.3584075,3.02516234 90.1104112,3.02516234 C90.4304128,3.02516234 90.7504096,3.0891617 91.0704112,3.21716234 C91.3904128,3.34516298 91.6824099,3.52516118 91.9464112,3.75716234 C92.2104126,3.9891635 92.4224104,4.25716082 92.5824112,4.56116234 C92.742412,4.86516386 92.8224112,5.19316058 92.8224112,5.54516234 C92.8224112,5.83316378 92.7384121,6.01316198 92.5704112,6.08516234 C92.4024104,6.1571627 92.1984124,6.19316234 91.9584112,6.19316234 C91.6544097,6.19316234 91.4744115,6.13316294 91.4184112,6.01316234 C91.362411,5.89316174 91.3224114,5.7571631 91.2984112,5.60516234 C91.2744111,5.45316158 91.2104118,5.31716294 91.1064112,5.19716234 C91.0024107,5.07716174 90.7504132,5.01716234 90.3504112,5.01716234 C89.710408,5.01716234 89.0864143,5.14916102 88.4784112,5.41316234 C87.8704082,5.67716366 87.2984139,6.02916014 86.7624112,6.46916234 C86.2264086,6.90916454 85.7344135,7.42115942 85.2864112,8.00516234 C84.838409,8.58916526 84.4504129,9.20915906 84.1224112,9.86516234 C83.7944096,10.5211656 83.5424121,11.1891589 83.3664112,11.8691623 C83.1904104,12.5491657 83.1024112,13.2011592 83.1024112,13.8251623 C83.1024112,14.3051647 83.1704106,14.6931609 83.3064112,14.9891623 C83.4424119,15.2851638 83.63041,15.5091616 83.8704112,15.6611623 C84.1104124,15.8131631 84.4024095,15.9131621 84.7464112,15.9611623 C85.090413,16.0091626 85.4704092,16.0331623 85.8864112,16.0331623 C87.0864172,16.0331623 88.2024061,15.8091646 89.2344112,15.3611623 C90.2664164,14.9131601 91.2464066,14.3051662 92.1744112,13.5371623 L91.7184112,13.5371623 L86.7744112,14.3531623 C86.7584112,14.3531623 86.7024117,14.3571623 86.6064112,14.3651623 C86.5104108,14.3731624 86.4384115,14.3771623 86.3904112,14.3771623 C86.0224094,14.3771623 85.6984126,14.2411637 85.4184112,13.9691623 C85.1384098,13.697161 84.9984112,13.3531644 84.9984112,12.9371623 C84.9984112,12.6811611 85.0904103,12.5131627 85.2744112,12.4331623 C85.4584122,12.3531619 85.6624101,12.3131623 85.8864112,12.3131623 C85.9984118,12.3131623 86.1024108,12.3171623 86.1984112,12.3251623 C86.2944117,12.3331624 86.3824108,12.3451623 86.4624112,12.3611623 L96.4944112,10.6811623 L96.9504112,10.5131623 L97.0224112,10.5131623 C97.3904131,10.5131623 97.6864101,10.6571609 97.9104112,10.9451623 C98.1344124,11.2331638 98.2464112,11.5451607 98.2464112,11.8811623 C98.2464112,12.1051635 98.2064116,12.2691618 98.1264112,12.3731623 C98.0464108,12.4771629 97.9464118,12.5491621 97.8264112,12.5891623 C97.7064106,12.6291625 97.566412,12.6531623 97.4064112,12.6611623 C97.2464104,12.6691624 97.094412,12.6811623 96.9504112,12.6971623 C96.7904104,12.7131624 96.5864125,12.7371622 96.3384112,12.7691623 C96.09041,12.8011625 95.8464124,12.8331622 95.6064112,12.8651623 C95.36641,12.8971625 95.1584121,12.9291622 94.9824112,12.9611623 C94.8064104,12.9931625 94.7184112,13.0091623 94.7184112,13.0091623 L94.4064112,13.7051623 C94.4064112,13.7211624 94.4024113,13.7931617 94.3944112,13.9211623 C94.3864112,14.049163 94.3824112,14.1971615 94.3824112,14.3651623 L94.3824112,14.8811623 L94.3824112,15.2891623 L94.3824112,15.8771623 L94.3824112,16.6331623 C94.3824112,16.8891636 94.3864112,17.1171613 94.3944112,17.3171623 C94.4024113,17.5171633 94.4064112,17.6411621 94.4064112,17.6891623 C94.4224113,18.0731643 94.4624109,18.4851601 94.5264112,18.9251623 C94.5904116,19.3651645 94.6624108,19.8091601 94.7424112,20.2571623 C94.8224116,20.7051646 94.8944109,21.1531601 94.9584112,21.6011623 C95.0224116,22.0491646 95.0544112,22.4731603 95.0544112,22.8731623 C95.0544112,23.0971635 94.9904119,23.2931615 94.8624112,23.4611623 C94.7344106,23.6291632 94.5584124,23.7131623 94.3344112,23.7131623 C94.3184112,23.7131623 94.2784116,23.7091624 94.2144112,23.7011623 C94.1504109,23.6931623 94.1104113,23.6891623 94.0944112,23.6891623 C93.7264094,23.4011609 93.4584121,23.0691642 93.2904112,22.6931623 C93.1224104,22.3171605 93.0024116,21.9171645 92.9304112,21.4931623 C92.8584109,21.0691602 92.8104114,20.6331646 92.7864112,20.1851623 C92.7624111,19.7371601 92.7184116,19.2971645 92.6544112,18.8651623 L92.6544112,18.6971623 C92.6544112,18.5851618 92.6464113,18.3851638 92.6304112,18.0971623 C92.6144112,17.8091609 92.5984113,17.5051639 92.5824112,17.1851623 C92.5664112,16.8651607 92.5464114,16.5611638 92.5224112,16.2731623 C92.4984111,15.9851609 92.4864112,15.7851629 92.4864112,15.6731623 L92.4864112,15.6731623 Z M105.350411,15.2651623 C105.318411,15.2651623 105.258412,15.2691623 105.170411,15.2771623 C105.082411,15.2851624 105.030411,15.2891623 105.014411,15.2891623 L99.8304112,16.4171623 C99.6224102,16.4651626 99.446412,16.5691615 99.3024112,16.7291623 C99.1584105,16.8891631 99.0184119,17.0531615 98.8824112,17.2211623 C98.7464106,17.3891632 98.598412,17.5411617 98.4384112,17.6771623 C98.2784104,17.813163 98.0864124,17.8811623 97.8624112,17.8811623 C97.7504107,17.8811623 97.6104121,17.8651625 97.4424112,17.8331623 C97.2744104,17.8011622 97.114412,17.7491627 96.9624112,17.6771623 C96.8104105,17.605162 96.6784118,17.5131629 96.5664112,17.4011623 C96.4544107,17.2891618 96.3984112,17.1531631 96.3984112,16.9931623 C96.3984112,16.8331615 96.422411,16.7171627 96.4704112,16.6451623 C96.5184115,16.573162 96.5824108,16.5251625 96.6624112,16.5011623 C96.7424116,16.4771622 96.8304108,16.4651623 96.9264112,16.4651623 C97.0224117,16.4651623 97.1184108,16.4491625 97.2144112,16.4171623 C97.2464114,16.4011623 97.3024108,16.3531627 97.3824112,16.2731623 C97.4624116,16.1931619 97.5184111,16.1291626 97.5504112,16.0811623 L98.1984112,15.1211623 C98.758414,14.0971572 99.3064086,13.0571676 99.8424112,12.0011623 C100.378414,10.9451571 100.870409,9.87316778 101.318411,8.78516234 C101.766413,7.6971569 102.14241,6.58916798 102.446411,5.46116234 C102.750413,4.3331567 102.958411,3.17716826 103.070411,1.99316234 C103.086411,1.91316194 103.126411,1.86116246 103.190411,1.83716234 C103.254412,1.81316222 103.318411,1.80116234 103.382411,1.80116234 C103.718413,1.80116234 104.05441,1.87316162 104.390411,2.01716234 C104.726413,2.16116306 104.934411,2.4171605 105.014411,2.78516234 L107.126411,12.6971623 L107.270411,12.6971623 C107.286411,12.6971623 107.338411,12.6851625 107.426411,12.6611623 C107.514412,12.6371622 107.602411,12.6171624 107.690411,12.6011623 C107.778412,12.5851623 107.862411,12.5691624 107.942411,12.5531623 C108.022412,12.5371623 108.070411,12.5291623 108.086411,12.5291623 C108.438413,12.5291623 108.74641,12.6131615 109.010411,12.7811623 C109.274413,12.9491632 109.406411,13.2171605 109.406411,13.5851623 C109.406411,13.7931634 109.330412,13.9531618 109.178411,14.0651623 C109.02641,14.1771629 108.842412,14.269162 108.626411,14.3411623 C108.41041,14.4131627 108.194412,14.4691621 107.978411,14.5091623 C107.76241,14.5491625 107.582412,14.5931621 107.438411,14.6411623 C107.502412,14.9611639 107.586411,15.3011605 107.690411,15.6611623 C107.794412,16.0211641 107.906411,16.3851605 108.026411,16.7531623 C108.146412,17.1211642 108.270411,17.4731607 108.398411,17.8091623 C108.526412,18.145164 108.638411,18.4411611 108.734411,18.6971623 L108.734411,18.7691623 L108.734411,18.8171623 C108.734411,18.8331624 108.742411,18.8411623 108.758411,18.8411623 C108.758411,19.0811635 108.638412,19.2491619 108.398411,19.3451623 C108.15841,19.4411628 107.950412,19.4891623 107.774411,19.4891623 C107.51841,19.4891623 107.310412,19.3851634 107.150411,19.1771623 C106.99041,18.9691613 106.850412,18.7091639 106.730411,18.3971623 C106.610411,18.0851608 106.506412,17.7451642 106.418411,17.3771623 C106.330411,17.0091605 106.242412,16.6691639 106.154411,16.3571623 C106.066411,16.0451608 105.958412,15.7851634 105.830411,15.5771623 C105.702411,15.3691613 105.542412,15.2651623 105.350411,15.2651623 L105.350411,15.2651623 Z M104.030411,6.69716234 C103.83841,7.30516538 103.606413,7.94515898 103.334411,8.61716234 C103.06241,9.2891657 102.778413,9.96115898 102.482411,10.6331623 C102.18641,11.3051657 101.890413,11.9571592 101.594411,12.5891623 C101.29841,13.2211655 101.030412,13.7931598 100.790411,14.3051623 L101.126411,14.3051623 L105.350411,13.4411623 L104.198411,7.17716234 L104.030411,6.69716234 Z M110.600313,19.2299025 C110.616313,18.5738992 110.628313,17.889906 110.636313,17.1779025 C110.644313,16.4658989 110.648313,15.7259063 110.648313,14.9579025 C110.648313,13.9178973 110.632314,12.8739077 110.600313,11.8259025 C110.568313,10.7778972 110.512314,9.77390727 110.432313,8.81390247 C110.400313,8.60590143 110.348314,8.39390355 110.276313,8.17790247 C110.204313,7.96190139 110.124314,7.74590355 110.036313,7.52990247 C109.948313,7.31390139 109.872314,7.10190351 109.808313,6.89390247 C109.744313,6.68590143 109.712313,6.47790351 109.712313,6.26990247 C109.712313,6.04590135 109.796313,5.88190299 109.964313,5.77790247 C110.132314,5.67390195 110.320312,5.62190247 110.528313,5.62190247 C110.880315,5.62190247 111.176312,5.74190127 111.416313,5.98190247 C111.656315,6.22190367 111.856313,6.50990079 112.016313,6.84590247 C112.176314,7.18190415 112.296313,7.52990067 112.376313,7.88990247 C112.456314,8.24990427 112.512313,8.55790119 112.544313,8.81390247 C112.528313,9.02190351 112.520313,9.36190011 112.520313,9.83390247 L112.520313,11.3699025 L112.520313,13.0019025 L112.520313,14.2619025 C112.520313,14.7099047 112.524313,15.1059008 112.532313,15.4499025 C112.540313,15.7939042 112.548313,16.113901 112.556313,16.4099025 C112.564313,16.705904 112.580313,17.005901 112.604313,17.3099025 C112.628313,17.613904 112.664313,17.9579006 112.712313,18.3419025 C112.744314,18.3419025 112.792313,18.3459024 112.856313,18.3539025 C112.920314,18.3619025 112.968313,18.3659025 113.000313,18.3659025 C113.528316,18.3659025 114.052311,18.2979032 114.572313,18.1619025 C115.092316,18.0259018 115.612311,17.8819032 116.132313,17.7299025 C116.652316,17.5779017 117.176311,17.4339032 117.704313,17.2979025 C118.232316,17.1619018 118.768311,17.0939025 119.312313,17.0939025 C119.568315,17.0939025 119.836312,17.1139023 120.116313,17.1539025 C120.396315,17.1939027 120.656312,17.265902 120.896313,17.3699025 C121.136315,17.473903 121.336313,17.6259015 121.496313,17.8259025 C121.656314,18.0259035 121.736313,18.2939008 121.736313,18.6299025 C121.736313,18.8539036 121.640314,19.0379018 121.448313,19.1819025 C121.256312,19.3259032 121.056314,19.3979025 120.848313,19.3979025 C120.544312,19.3979025 120.256315,19.3659028 119.984313,19.3019025 C119.712312,19.2379022 119.424315,19.2059025 119.120313,19.2059025 C118.52831,19.2059025 117.952316,19.2819017 117.392313,19.4339025 C116.832311,19.5859032 116.276316,19.7539016 115.724313,19.9379025 C115.172311,20.1219034 114.616316,20.2899017 114.056313,20.4419025 C113.496311,20.5939032 112.928316,20.6699025 112.352313,20.6699025 C112.160312,20.6699025 111.960314,20.6379028 111.752313,20.5739025 C111.544312,20.5099022 111.356314,20.4139031 111.188313,20.2859025 C111.020313,20.1579018 110.880314,20.0059034 110.768313,19.8299025 C110.656313,19.6539016 110.600313,19.4539036 110.600313,19.2299025 L110.600313,19.2299025 Z M118.214411,12.7931623 C118.214411,11.7371571 118.32641,10.6491679 118.550411,9.52916234 C118.774412,8.40915674 118.96641,7.34516738 119.126411,6.33716234 C119.174411,6.0491609 119.234411,5.84116298 119.306411,5.71316234 C119.378412,5.5851617 119.474411,5.50116254 119.594411,5.46116234 C119.714412,5.42116214 119.86641,5.39716238 120.050411,5.38916234 C120.234412,5.3811623 120.45441,5.34516266 120.710411,5.28116234 C120.742411,5.28116234 120.818411,5.25316262 120.938411,5.19716234 C121.058412,5.14116206 121.186411,5.08516262 121.322411,5.02916234 C121.458412,4.97316206 121.590411,4.91716262 121.718411,4.86116234 C121.846412,4.80516206 121.926411,4.76916242 121.958411,4.75316234 C122.550414,4.51316114 123.158408,4.33316294 123.782411,4.21316234 C124.406414,4.09316174 125.034408,4.00916258 125.666411,3.96116234 C126.298414,3.9131621 126.934408,3.88516238 127.574411,3.87716234 C128.214414,3.8691623 128.854408,3.86516234 129.494411,3.86516234 C129.654412,3.86516234 129.82241,3.90116198 129.998411,3.97316234 C130.174412,4.0451627 130.334411,4.14116174 130.478411,4.26116234 C130.622412,4.38116294 130.738411,4.52116154 130.826411,4.68116234 C130.914412,4.84116314 130.958411,5.00916146 130.958411,5.18516234 C130.958411,5.23316258 130.938411,5.3011619 130.898411,5.38916234 C130.858411,5.47716278 130.810412,5.5651619 130.754411,5.65316234 C130.698411,5.74116278 130.638412,5.81716202 130.574411,5.88116234 C130.510411,5.94516266 130.454411,5.97716234 130.406411,5.97716234 L125.654411,5.97716234 C125.286409,5.97716234 124.906413,6.02516186 124.514411,6.12116234 C124.122409,6.21716282 123.734413,6.34516154 123.350411,6.50516234 C122.966409,6.66516314 122.590413,6.83716142 122.222411,7.02116234 C121.854409,7.20516326 121.526413,7.39316138 121.238411,7.58516234 C121.07841,8.32116602 120.890412,9.05715866 120.674411,9.79316234 C120.45841,10.529166 120.350411,11.2891584 120.350411,12.0731623 L120.350411,12.1691623 L127.766411,10.3931623 C127.798411,10.3931623 127.858411,10.3891624 127.946411,10.3811623 C128.034412,10.3731623 128.102411,10.3691623 128.150411,10.3691623 C128.630414,10.3691623 128.870411,10.6171599 128.870411,11.1131623 C128.870411,11.3051633 128.822412,11.4691617 128.726411,11.6051623 C128.630411,11.741163 128.510412,11.8571619 128.366411,11.9531623 C128.222411,12.0491628 128.062412,12.1251621 127.886411,12.1811623 C127.71041,12.2371626 127.550412,12.2891621 127.406411,12.3371623 C127.18241,12.4011627 126.798414,12.5091616 126.254411,12.6611623 C125.710409,12.8131631 125.130414,12.9731615 124.514411,13.1411623 C123.898408,13.3091632 123.314414,13.4691616 122.762411,13.6211623 C122.210408,13.7731631 121.822412,13.8731621 121.598411,13.9211623 L120.542411,14.4491623 C120.526411,14.4811625 120.518411,14.5051623 120.518411,14.5211623 L120.518411,14.5931623 C120.518411,14.8651637 120.582411,15.0931614 120.710411,15.2771623 C120.838412,15.4611633 121.00641,15.6091618 121.214411,15.7211623 C121.422412,15.8331629 121.64241,15.9171621 121.874411,15.9731623 C122.106412,16.0291626 122.33441,16.0571623 122.558411,16.0571623 C123.134414,16.0571623 123.726408,16.0051629 124.334411,15.9011623 C124.942414,15.7971618 125.550408,15.6731631 126.158411,15.5291623 C126.766414,15.3851616 127.358408,15.2331631 127.934411,15.0731623 C128.510414,14.9131615 129.046409,14.769163 129.542411,14.6411623 C129.958413,14.5291618 130.382409,14.3811633 130.814411,14.1971623 C131.246413,14.0131614 131.670409,13.9211623 132.086411,13.9211623 C132.214412,13.9211623 132.294411,13.9691619 132.326411,14.0651623 C132.358411,14.1611628 132.374411,14.2651618 132.374411,14.3771623 L132.374411,14.5931623 C132.374411,14.8971639 132.194413,15.1891609 131.834411,15.4691623 C131.474409,15.7491637 131.006414,16.0171611 130.430411,16.2731623 C129.854408,16.5291636 129.214415,16.7611613 128.510411,16.9691623 C127.806408,17.1771634 127.110415,17.3571616 126.422411,17.5091623 C125.734408,17.6611631 125.090414,17.7811619 124.490411,17.8691623 C123.890408,17.9571628 123.422413,18.0011623 123.086411,18.0011623 C122.350408,18.0011623 121.682414,17.8611637 121.082411,17.5811623 C120.482408,17.3011609 119.970413,16.9211647 119.546411,16.4411623 C119.122409,15.9611599 118.794412,15.4091655 118.562411,14.7851623 C118.33041,14.1611592 118.214411,13.4971659 118.214411,12.7931623 L118.214411,12.7931623 Z M142.232313,17.6219025 C141.672311,17.8939038 141.140316,18.1659011 140.636313,18.4379025 C140.132311,18.7099038 139.624316,18.9579014 139.112313,19.1819025 C138.600311,19.4059036 138.068316,19.5899018 137.516313,19.7339025 C136.964311,19.8779032 136.368317,19.9499025 135.728313,19.9499025 C135.08831,19.9499025 134.488316,19.8339036 133.928313,19.6019025 C133.368311,19.3699013 132.876315,19.0459046 132.452313,18.6299025 C132.028311,18.2139004 131.696315,17.7219053 131.456313,17.1539025 C131.216312,16.5858996 131.096313,15.9659058 131.096313,15.2939025 C131.096313,14.5738989 131.208312,13.8179064 131.432313,13.0259025 C131.656314,12.2338985 131.964311,11.4579063 132.356313,10.6979025 C132.748315,9.93789867 133.220311,9.20990595 133.772313,8.51390247 C134.324316,7.81789899 134.92431,7.20990507 135.572313,6.68990247 C136.220317,6.16989987 136.90831,5.75390403 137.636313,5.44190247 C138.364317,5.12990091 139.10431,4.97390247 139.856313,4.97390247 C140.176315,4.97390247 140.496312,5.03790183 140.816313,5.16590247 C141.136315,5.29390311 141.428312,5.47390131 141.692313,5.70590247 C141.956315,5.93790363 142.168313,6.20590095 142.328313,6.50990247 C142.488314,6.81390399 142.568313,7.14190071 142.568313,7.49390247 C142.568313,7.78190391 142.484314,7.96190211 142.316313,8.03390247 C142.148313,8.10590283 141.944315,8.14190247 141.704313,8.14190247 C141.400312,8.14190247 141.220314,8.08190307 141.164313,7.96190247 C141.108313,7.84190187 141.068313,7.70590323 141.044313,7.55390247 C141.020313,7.40190171 140.956314,7.26590307 140.852313,7.14590247 C140.748313,7.02590187 140.496315,6.96590247 140.096313,6.96590247 C139.45631,6.96590247 138.832316,7.09790115 138.224313,7.36190247 C137.61631,7.62590379 137.044316,7.97790027 136.508313,8.41790247 C135.972311,8.85790467 135.480316,9.36989955 135.032313,9.95390247 C134.584311,10.5379054 134.196315,11.1578992 133.868313,11.8139025 C133.540312,12.4699058 133.288314,13.1378991 133.112313,13.8179025 C132.936312,14.4979059 132.848313,15.1498994 132.848313,15.7739025 C132.848313,16.2539049 132.916313,16.641901 133.052313,16.9379025 C133.188314,17.233904 133.376312,17.4579017 133.616313,17.6099025 C133.856315,17.7619032 134.148312,17.8619022 134.492313,17.9099025 C134.836315,17.9579027 135.216311,17.9819025 135.632313,17.9819025 C136.832319,17.9819025 137.948308,17.7579047 138.980313,17.3099025 C140.012319,16.8619002 140.992309,16.2539063 141.920313,15.4859025 L141.464313,15.4859025 L136.520313,16.3019025 C136.504313,16.3019025 136.448314,16.3059024 136.352313,16.3139025 C136.256313,16.3219025 136.184314,16.3259025 136.136313,16.3259025 C135.768312,16.3259025 135.444315,16.1899038 135.164313,15.9179025 C134.884312,15.6459011 134.744313,15.3019046 134.744313,14.8859025 C134.744313,14.6299012 134.836312,14.4619029 135.020313,14.3819025 C135.204314,14.3019021 135.408312,14.2619025 135.632313,14.2619025 C135.744314,14.2619025 135.848313,14.2659024 135.944313,14.2739025 C136.040314,14.2819025 136.128313,14.2939024 136.208313,14.3099025 L146.240313,12.6299025 L146.696313,12.4619025 L146.768313,12.4619025 C147.136315,12.4619025 147.432312,12.605901 147.656313,12.8939025 C147.880314,13.1819039 147.992313,13.4939008 147.992313,13.8299025 C147.992313,14.0539036 147.952314,14.217902 147.872313,14.3219025 C147.792313,14.425903 147.692314,14.4979023 147.572313,14.5379025 C147.452313,14.5779027 147.312314,14.6019024 147.152313,14.6099025 C146.992313,14.6179025 146.840314,14.6299024 146.696313,14.6459025 C146.536313,14.6619026 146.332315,14.6859023 146.084313,14.7179025 C145.836312,14.7499026 145.592315,14.7819023 145.352313,14.8139025 C145.112312,14.8459026 144.904314,14.8779023 144.728313,14.9099025 C144.552312,14.9419026 144.464313,14.9579025 144.464313,14.9579025 L144.152313,15.6539025 C144.152313,15.6699026 144.148313,15.7419018 144.140313,15.8699025 C144.132313,15.9979031 144.128313,16.1459016 144.128313,16.3139025 L144.128313,16.8299025 L144.128313,17.2379025 L144.128313,17.8259025 L144.128313,18.5819025 C144.128313,18.8379038 144.132313,19.0659015 144.140313,19.2659025 C144.148313,19.4659035 144.152313,19.5899022 144.152313,19.6379025 C144.168313,20.0219044 144.208313,20.4339003 144.272313,20.8739025 C144.336314,21.3139047 144.408313,21.7579002 144.488313,22.2059025 C144.568314,22.6539047 144.640313,23.1019002 144.704313,23.5499025 C144.768314,23.9979047 144.800313,24.4219005 144.800313,24.8219025 C144.800313,25.0459036 144.736314,25.2419016 144.608313,25.4099025 C144.480313,25.5779033 144.304314,25.6619025 144.080313,25.6619025 C144.064313,25.6619025 144.024314,25.6579025 143.960313,25.6499025 C143.896313,25.6419024 143.856313,25.6379025 143.840313,25.6379025 C143.472312,25.349901 143.204314,25.0179044 143.036313,24.6419025 C142.868313,24.2659006 142.748314,23.8659046 142.676313,23.4419025 C142.604313,23.0179004 142.556313,22.5819047 142.532313,22.1339025 C142.508313,21.6859002 142.464314,21.2459046 142.400313,20.8139025 L142.400313,20.6459025 C142.400313,20.5339019 142.392313,20.3339039 142.376313,20.0459025 C142.360313,19.757901 142.344313,19.4539041 142.328313,19.1339025 C142.312313,18.8139009 142.292313,18.5099039 142.268313,18.2219025 C142.244313,17.933901 142.232313,17.733903 142.232313,17.6219025 L142.232313,17.6219025 Z M154.346894,18.4132236 C154.314894,18.4132236 154.254895,18.4172236 154.166894,18.4252236 C154.078894,18.4332236 154.026894,18.4372236 154.010894,18.4372236 L148.826894,19.5652236 C148.618893,19.6132238 148.442895,19.7172228 148.298894,19.8772236 C148.154894,20.0372244 148.014895,20.2012228 147.878894,20.3692236 C147.742894,20.5372244 147.594895,20.6892229 147.434894,20.8252236 C147.274894,20.9612243 147.082895,21.0292236 146.858894,21.0292236 C146.746894,21.0292236 146.606895,21.0132238 146.438894,20.9812236 C146.270893,20.9492234 146.110895,20.897224 145.958894,20.8252236 C145.806894,20.7532232 145.674895,20.6612242 145.562894,20.5492236 C145.450894,20.437223 145.394894,20.3012244 145.394894,20.1412236 C145.394894,19.9812228 145.418894,19.865224 145.466894,19.7932236 C145.514895,19.7212232 145.578894,19.6732237 145.658894,19.6492236 C145.738895,19.6252235 145.826894,19.6132236 145.922894,19.6132236 C146.018895,19.6132236 146.114894,19.5972238 146.210894,19.5652236 C146.242894,19.5492235 146.298894,19.501224 146.378894,19.4212236 C146.458895,19.3412232 146.514894,19.2772238 146.546894,19.2292236 L147.194894,18.2692236 C147.754897,17.2452185 148.302892,16.2052289 148.838894,15.1492236 C149.374897,14.0932183 149.866892,13.021229 150.314894,11.9332236 C150.762897,10.8452182 151.138893,9.73722923 151.442894,8.60922359 C151.746896,7.48121795 151.954894,6.32522951 152.066894,5.14122359 C152.082894,5.06122319 152.122894,5.00922371 152.186894,4.98522359 C152.250895,4.96122347 152.314894,4.94922359 152.378894,4.94922359 C152.714896,4.94922359 153.050893,5.02122287 153.386894,5.16522359 C153.722896,5.30922431 153.930894,5.56522175 154.010894,5.93322359 L156.122894,15.8452236 L156.266894,15.8452236 C156.282894,15.8452236 156.334894,15.8332237 156.422894,15.8092236 C156.510895,15.7852235 156.598894,15.7652237 156.686894,15.7492236 C156.774895,15.7332235 156.858894,15.7172237 156.938894,15.7012236 C157.018895,15.6852235 157.066894,15.6772236 157.082894,15.6772236 C157.434896,15.6772236 157.742893,15.7612228 158.006894,15.9292236 C158.270896,16.0972244 158.402894,16.3652218 158.402894,16.7332236 C158.402894,16.9412246 158.326895,17.101223 158.174894,17.2132236 C158.022894,17.3252242 157.838895,17.4172232 157.622894,17.4892236 C157.406893,17.561224 157.190895,17.6172234 156.974894,17.6572236 C156.758893,17.6972238 156.578895,17.7412234 156.434894,17.7892236 C156.498895,18.1092252 156.582894,18.4492218 156.686894,18.8092236 C156.790895,19.1692254 156.902894,19.5332218 157.022894,19.9012236 C157.142895,20.2692254 157.266894,20.6212219 157.394894,20.9572236 C157.522895,21.2932253 157.634894,21.5892223 157.730894,21.8452236 L157.730894,21.9172236 L157.730894,21.9652236 C157.730894,21.9812237 157.738894,21.9892236 157.754894,21.9892236 C157.754894,22.2292248 157.634896,22.3972231 157.394894,22.4932236 C157.154893,22.5892241 156.946895,22.6372236 156.770894,22.6372236 C156.514893,22.6372236 156.306895,22.5332246 156.146894,22.3252236 C155.986894,22.1172226 155.846895,21.8572252 155.726894,21.5452236 C155.606894,21.233222 155.502895,20.8932254 155.414894,20.5252236 C155.326894,20.1572218 155.238895,19.8172252 155.150894,19.5052236 C155.062894,19.193222 154.954895,18.9332246 154.826894,18.7252236 C154.698894,18.5172226 154.538895,18.4132236 154.346894,18.4132236 L154.346894,18.4132236 Z M152.801943,8.87085353 C152.609942,9.47885657 152.377945,10.1188502 152.105943,10.7908535 C151.833942,11.4628569 151.549945,12.1348502 151.253943,12.8068535 C150.957942,13.4788569 150.661945,14.1308504 150.365943,14.7628535 C150.069942,15.3948567 149.801944,15.966851 149.561943,16.4788535 L149.897943,16.4788535 L154.121943,15.6148535 L152.969943,9.35085353 L152.801943,8.87085353 Z"></path>
                                </g>
                            </g>
                        </g>
                    </g>
                </g>
                <g id="seedling" mask="url(#mask-2)">
                    <g transform="translate(79.000000, 7.000000)">
                        <path d="M154.356934,174.360839 L156.933904,111.357819 L164.667343,110.946944 L161.154785,174.360839 L154.356934,174.360839 Z" id="stem" fill="#634620" sketch:type="MSShapeGroup"></path>
                        <g id="seedleaf-back" stroke-width="1" fill="none" sketch:type="MSLayerGroup" transform="translate(100.472414, 30.468571)">
                            <mask id="mask-11" sketch:name="seedleaf-back-base" fill="white">
                                <use xlink:href="#path-10"></use>
                            </mask>
                            <use id="seedleaf-back-base" fill="#5D954C" sketch:type="MSShapeGroup" xlink:href="#path-10"></use>
                            <path d="M-1.81555765,-7.18618304 L-8.62610453,21.6556696 C-8.62610453,21.6556696 34.7278174,30.3306221 41.2851697,30.9466685 C47.842522,31.562715 50.6656839,29.2546345 53.8233011,27.5226311 C56.9809183,25.7906278 58.9339827,24.1866283 60.7368602,19.673192 C62.1340584,16.1753585 59.7653194,12.4901889 57.8407765,9.92334542 C52.9215194,3.36232591 42.4263099,0.552407924 42.4263099,0.552407924 L-1.81555765,-7.18618304 Z" id="seedleaf-back-highlight" fill="#7DB56B" sketch:type="MSShapeGroup" mask="url(#mask-11)"></path>
                        </g>
                        <g id="leaf-right" stroke-width="1" fill="none" sketch:type="MSLayerGroup" transform="translate(159.000000, 0.000000)">
                            <g id="leaf-right-leaf" transform="translate(14.803448, 0.000000)">
                                <mask id="mask-13" sketch:name="Path 474" fill="white">
                                    <use xlink:href="#path-12"></use>
                                </mask>
                                <use id="Path-474" fill="#7DDC82" sketch:type="MSShapeGroup" xlink:href="#path-12"></use>
                                <path d="M4.9595299,71.7997991 C4.9595299,71.7997991 30.8566878,51.1862946 50.9424636,39.6730022 C71.0282395,28.1597098 136.819403,1.88441964 136.819403,1.88441964 L58.4682247,-27.6928683 L-12.8012662,10.7693304 L4.9595299,71.7997991 Z" id="Path-477" fill-opacity="0.0846354167" fill="#000000" sketch:type="MSShapeGroup" mask="url(#mask-13)"></path>
                            </g>
                            <path d="M0.938379972,102.326399 C0.938379972,102.326399 3.12864452,85.047264 13.1454793,75.0476262 C23.1623141,65.0479884 49.953058,46.4001359 55.3259712,43.5362595 C60.6988844,40.6723831 100.662832,21.5040165 100.662832,21.5040165 C100.662832,21.5040165 60.6032603,41.2278117 47.4056889,50.9327322 C34.2081174,60.6376528 19.9240658,74.1671795 17.531677,76.5883259 C15.1392882,79.0094723 7.85574939,93.7885947 6.74109411,98.5963818 C5.62643883,103.404169 5.83817766,108.014473 5.83817766,108.014473 L0.938379972,102.326399 L0.938379972,102.326399 Z" id="leaf-right-stem" fill="#B7E089" sketch:type="MSShapeGroup"></path>
                        </g>
                        <g id="leaf-left" stroke-width="1" fill="none" sketch:type="MSLayerGroup" transform="translate(0.000000, 63.000000)">
                            <g id="leaf-left-leaf" transform="translate(0.000000, 0.302857)">
                                <mask id="mask-15" sketch:name="Path 472" fill="white">
                                    <use xlink:href="#path-14"></use>
                                </mask>
                                <use id="Path-472" fill="#7DDC82" sketch:type="MSShapeGroup" xlink:href="#path-14"></use>
                                <path d="M82.9947333,-20.2894858 C107.423917,-23.2796385 117.013308,12.7496763 117.013308,12.7496763 C117.013308,12.7496763 82.9947333,9.5713184 69.3597623,21.8147168 C63.7527075,26.8495207 50.7482756,34.2557314 42.6502492,49.9094099 C31.0558773,72.3216079 24.8189992,103.903147 24.8189992,103.903147 L-47.6695582,32.9069986 C-47.6695582,32.9069986 52.5296282,-16.5605311 82.9947333,-20.2894858 Z" id="Path-476" fill-opacity="0.0945425725" fill="#000000" sketch:type="MSShapeGroup" mask="url(#mask-15)"></path>
                            </g>
                            <path d="M155.187134,33.7545305 C155.187134,33.7545305 147.012269,20.6183145 135.349387,16.0049958 C123.686506,11.3916772 118.058026,8.44106651 109.768366,8.90565243 C101.478707,9.37023836 76.5395092,13.2617818 65.3839325,21.9603209 C54.2283557,30.65886 41.5481032,45.0394606 40.0683986,52.0686253 C38.5886939,59.0977899 35.2016653,66.6476068 33.6205786,68.2236697 C32.0394918,69.7997326 39.1662166,62.8611335 40.1788537,59.8940557 C41.1914909,56.9269779 46.481111,43.2391396 53.1009241,37.916201 C59.7207372,32.5932625 67.9559581,21.0464392 78.7639973,17.9695866 C89.5720365,14.892734 107.332828,12.0562115 111.702121,12.9269671 C116.071413,13.7977226 128.671194,17.5148013 133.106359,20.7316185 C137.541523,23.9484358 149.961821,34.6272471 152.036006,38.5748545 C154.110192,42.5224619 155.187134,33.7545305 155.187134,33.7545305 Z" id="leaf-left-stem" fill="#B7E089" sketch:type="MSShapeGroup"></path>
                        </g>
                        <g id="seedleaf-front" stroke-width="1" fill="none" sketch:type="MSLayerGroup" transform="translate(148.662069, 89.497143)">
                            <mask id="mask-17" sketch:name="seedleaf-front-base" fill="white">
                                <use xlink:href="#path-16"></use>
                            </mask>
                            <use id="seedleaf-front-base" fill="#72AD5F" sketch:type="MSShapeGroup" xlink:href="#path-16"></use>
                            <path d="M8.72347791,31.7905225 C2.87259901,25.9358183 2.03569167,19.3749883 4.58164062,13.2596844 C5.96051539,9.94766273 10.012736,8.31902046 15.3034487,8.9008987 C19.7814871,9.39339814 25.5601304,11.7323539 27.0868686,13.2596847 C30.4174175,16.5915262 37.5343336,14.2109543 38.5286941,11.5996261 C39.5230546,8.98829797 40.6732698,4.79951466 44.9928425,3.08563058 C49.3124152,1.3717465 67.7836224,3.22205915 67.7836224,3.22205915 L77.1630691,39.5163225 C77.1630691,39.5163225 33.6839194,42.4676576 33.6839187,42.4676562 C33.6839181,42.4676549 14.5743568,37.6452268 8.72347791,31.7905225 Z" id="seedleaf-front-shade" fill="#5E954C" sketch:type="MSShapeGroup" mask="url(#mask-17)"></path>
                        </g>
                    </g>
                </g>
            </g>
        </g>
    </g>
</svg>