<?xml version="1.0" encoding="UTF-8" standalone="no"?>
<svg width="512px" height="512px" viewBox="0 0 512 512" version="1.1" xmlns="http://www.w3.org/2000/svg" xmlns:xlink="http://www.w3.org/1999/xlink" xmlns:sketch="http://www.bohemiancoding.com/sketch/ns">
    <!-- Generator: Sketch 3.2.2 (9983) - http://www.bohemiancoding.com/sketch -->
    <title>Seed Box</title>
    <desc>Created with Sketch.</desc>
    <defs>
        <ellipse id="path-1" cx="215" cy="215.474968" rx="215" ry="214.790244"></ellipse>
        <path id="path-3" d="M250,499.197895 C368.741221,499.197895 465,403.033028 465,284.407651 C465,252.221595 470.892982,29.9707382 470.892982,29.9707382 L41.2578125,8.05160198e-07 C41.2578125,8.05160198e-07 35,224.468007 35,284.407651 C35,403.033028 131.258779,499.197895 250,499.197895 Z"></path>
        <rect id="path-5" x="0.175572519" y="0.161132966" width="220.824427" height="314.53155" rx="8.99121951"></rect>
        <path id="path-7" d="M1.73929387,36.3209795 C1.13419381,31.392835 4.63112157,26.9081862 9.5669249,26.3021458 L210.685005,1.60795066 C215.613186,1.00284608 220.099907,4.51640626 220.703897,9.43550684 L256.844389,303.776196 C257.449489,308.704341 253.952562,313.18899 249.016758,313.79503 L47.8986784,338.489225 C42.9704971,339.09433 38.4837758,335.58077 37.8797862,330.661669 L1.73929387,36.3209795 L1.73929387,36.3209795 Z"></path>
        <rect id="path-9" x="0.175572519" y="0.161132966" width="220.824427" height="314.53155" rx="8.99121951"></rect>
    </defs>
    <g id="Module-Icons" stroke="none" stroke-width="1" fill="none" fill-rule="evenodd" sketch:type="MSPage">
        <g id="Seed-Box" sketch:type="MSArtboardGroup">
            <g id="seeds-3" sketch:type="MSLayerGroup">
                <rect id="hit" sketch:type="MSShapeGroup" x="0" y="0" width="512" height="511.500488"></rect>
                <g id="Oval-2" transform="translate(35.000000, 68.932683)">
                    <mask id="mask-2" sketch:name="Oval 2" fill="white">
                        <use xlink:href="#path-1"></use>
                    </mask>
                    <use fill="#A48ADB" sketch:type="MSShapeGroup" xlink:href="#path-1"></use>
                    <path d="M378.789517,235.824048 L291.691409,46.036067 C289.907938,35.2502526 279.585384,26.4989232 268.636909,26.4989232 L33.6093751,74.0204429 C22.6552793,74.0204429 12.3329814,82.7657435 10.5413236,93.5536185 L49.5172147,395.89937 C49.5172147,406.820916 58.392108,415.690191 69.3398437,415.690191 L360.354739,415.69018 C371.307716,415.69018 380.177368,406.829527 380.177368,395.899359 L380.177368,254.661067 C380.177368,251.897636 379.360105,239.274768 378.789517,235.824048 Z" id="Rectangle-6" fill="#8F75C1" sketch:type="MSShapeGroup" mask="url(#mask-2)"></path>
                </g>
                <mask id="mask-4" sketch:name="Oval 3" fill="white">
                    <use xlink:href="#path-3"></use>
                </mask>
                <use id="Oval-3" sketch:type="MSShapeGroup" xlink:href="#path-3"></use>
                <path d="M109.064784,128.631815 C110.692191,118.834224 120.068188,110.891707 129.991483,110.891707 L370.091748,110.891707 C380.021838,110.891707 389.386168,118.8397 391.006138,128.635419 L416.780996,284.492157 C418.401605,294.291738 411.656003,302.374781 401.740845,302.545679 L97.2284684,307.794275 C87.3014137,307.965379 80.5735483,300.15959 82.2006266,290.363977 L109.064784,128.631815 Z" id="Rectangle-3" fill="#FAE4C2" sketch:type="MSShapeGroup" mask="url(#mask-4)"></path>
                <path d="M123.466717,136.852305 C124.937138,128.032122 133.374153,120.881951 142.311015,120.881951 L358.766814,120.881951 C367.703811,120.881951 376.13563,128.033085 377.599876,136.854858 L400.81859,276.742697 C402.282806,285.56429 396.516178,294.737742 387.905234,297.182912 C387.905234,297.182912 291.770498,325.896683 245.873653,326.684878 C200.282484,327.467823 112.223041,302.238073 112.223041,302.238073 C103.596906,299.889422 97.7957289,290.837247 99.2664762,282.015111 L123.466717,136.852305 Z" id="Rectangle-2" fill="#8B6F42" sketch:type="MSShapeGroup" mask="url(#mask-4)"></path>
                <g id="envelope" mask="url(#mask-4)">
                    <g transform="translate(231.685368, 203.006455) rotate(-7.000000) translate(-231.685368, -203.006455) translate(121.185368, 45.160602)">
                        <mask id="mask-6" sketch:name="Rectangle 12" fill="white">
                            <use xlink:href="#path-5"></use>
                        </mask>
                        <use id="Rectangle-12" stroke="none" fill="#F2EBD9" fill-rule="evenodd" sketch:type="MSShapeGroup" xlink:href="#path-5"></use>
                        <rect id="Rectangle-9" stroke="none" fill="#ECE5D5" fill-rule="evenodd" sketch:type="MSShapeGroup" mask="url(#mask-6)" x="103.687023" y="0.161132966" width="117.312977" height="314.53155"></rect>
                        <path d="M0.175572519,317.291771 L221,317.291771 L210.099624,254.913663 L11.0759482,254.913663 L0.175572519,317.291771 L0.175572519,317.291771 Z" id="Rectangle-11" stroke="none" fill="#F4EDDA" fill-rule="evenodd" sketch:type="MSShapeGroup" mask="url(#mask-6)"></path>
                        <path d="M210.099624,255.395751 L221,314.692683 L0.175572519,314.692683 L11.0759482,255.395751 L210.099624,255.395751 Z" id="Rectangle-8" stroke="none" fill="#D8D3C6" fill-rule="evenodd" sketch:type="MSShapeGroup" mask="url(#mask-6)"></path>
                        <path d="M221,0.161132966 L0.175572519,0.161132966 L11.0759482,56.0071346 L210.099624,56.0071346 L221,0.161132966 Z" id="Rectangle-8" stroke="none" fill="#B5AD99" fill-rule="evenodd" sketch:type="MSShapeGroup" mask="url(#mask-6)"></path>
                        <path d="M221,0.161132966 L0.175572519,0.161132966 L11.0759482,53.4290072 L210.099624,53.4290072 L221,0.161132966 Z" id="Rectangle-10" stroke="none" fill="#D8D3C6" fill-rule="evenodd" sketch:type="MSShapeGroup" mask="url(#mask-6)"></path>
                    </g>
                </g>
                <g id="Rectangle-14-+-Rectangle-13" mask="url(#mask-4)">
                    <g transform="translate(102.041615, 29.970732)">
                        <mask id="mask-8" sketch:name="Rectangle 14" fill="white">
                            <use xlink:href="#path-7"></use>
                        </mask>
                        <use id="Rectangle-14" stroke="none" fill="none" sketch:type="MSShapeGroup" xlink:href="#path-7"></use>
                        <rect id="Rectangle-13" stroke="none" fill-opacity="0.209040987" fill="#000000" fill-rule="evenodd" sketch:type="MSShapeGroup" mask="url(#mask-8)" x="56.22008" y="33.1429461" width="220.824427" height="315.691707" rx="12.9873171"></rect>
                    </g>
                </g>
                <g id="envelope" mask="url(#mask-4)">
                    <g transform="translate(279.468449, 229.090743) rotate(4.000000) translate(-279.468449, -229.090743) translate(168.968449, 71.590743)">
                        <mask id="mask-10" sketch:name="Rectangle 12" fill="white">
                            <use xlink:href="#path-9"></use>
                        </mask>
                        <use id="Rectangle-12" stroke="none" fill="#F2EBD9" fill-rule="evenodd" sketch:type="MSShapeGroup" xlink:href="#path-9"></use>
                        <rect id="Rectangle-9" stroke="none" fill="#ECE5D5" fill-rule="evenodd" sketch:type="MSShapeGroup" mask="url(#mask-10)" x="103.687023" y="0.161132966" width="117.312977" height="314.53155"></rect>
                        <g id="label" stroke="none" stroke-width="1" fill="none" fill-rule="evenodd" sketch:type="MSLayerGroup" mask="url(#mask-10)">
                            <g transform="translate(28.000000, 85.915122)">
                                <rect id="Rectangle-19" fill="#FFFFFF" sketch:type="MSShapeGroup" x="8.52651283e-14" y="1" width="160" height="145.857561" rx="7.99219512"></rect>
                                <g id="tomato" stroke-width="1" fill="none" sketch:type="MSLayerGroup" transform="translate(36.004507, 53.757747)">
                                    <path d="M40.0196757,18.3856793 C40.0196757,18.3856793 24.3695337,14.0509055 15.2702203,18.3030048 C6.17090685,22.5551041 -0.66392264,31.264109 -0.66392262,46.4574268 C-0.6639226,61.6507447 13.2953796,80.8049222 40.8980096,80.8049198 C68.5006395,80.8049173 82.2511729,61.4496947 82.2511729,48.257476 C82.2511729,35.0652572 78.3240622,24.7816785 68.8711572,18.951248 C59.4182522,13.1208175 40.0196757,18.3856793 40.0196757,18.3856793 Z" id="Path-1" stroke="#CD2121" stroke-width="2.99707317" fill="#F04A42" sketch:type="MSShapeGroup"></path>
                                    <path d="M27.3506027,6.63086994 C27.3506027,6.63086994 28.5449111,14.6634483 35.5584166,16.6720626 C42.5719221,18.6806769 46.2996689,16.7772847 50.2775623,20.7926344 C54.2554556,24.8079841 55.2616839,28.2803127 55.2616839,28.2803127" id="Path-2" stroke="#43B034" stroke-width="2.99707317" sketch:type="MSShapeGroup"></path>
                                    <path d="M26.9311841,26.6493705 C26.9311841,26.6493705 29.1298401,16.651394 35.7878743,16.651394 C42.4459085,16.651394 49.6268052,16.2943905 51.9721636,12.9686212 C54.317522,9.64285195 56.8302716,2.84475406 56.8302716,2.84475406" id="Path-3" stroke="#43B034" stroke-width="2.99707317" sketch:type="MSShapeGroup"></path>
                                    <path d="M43.5969585,0.627574542 C43.5969585,0.627574542 39.1272358,8.44031391 39.1272358,16.2530533" id="Path-4" stroke="#43B034" stroke-width="3.99609756" sketch:type="MSShapeGroup"></path>
                                </g>
                                <path d="M36.158368,38.0011304 C37.9446236,38.0011304 39.4311719,36.6824182 39.4311719,34.8242328 C39.4311719,32.9420709 37.9446236,31.6473353 36.158368,31.6473353 C34.3841007,31.6473353 32.8855641,32.9420709 32.8855641,34.8242328 C32.8855641,36.6824182 34.3841007,38.0011304 36.158368,38.0011304 L36.158368,38.0011304 Z M36.158368,36.9101958 C34.971527,36.9101958 34.1443348,36.0470387 34.1443348,34.8242328 C34.1443348,33.6134153 34.971527,32.7262816 36.158368,32.7262816 C37.345209,32.7262816 38.1724011,33.6134153 38.1724011,34.8242328 C38.1724011,36.0470387 37.345209,36.9101958 36.158368,36.9101958 L36.158368,36.9101958 Z M40.7738607,37.8932358 L44.7899387,37.8932358 L44.7899387,36.8262777 L41.9966665,36.8262777 L41.9966665,31.7432416 L40.7738607,31.7432416 L40.7738607,37.8932358 Z M46.0606977,37.8932358 L48.0028011,37.8932358 C49.9089397,37.8932358 51.2396402,36.6704299 51.2396402,34.8242328 C51.2396402,32.9540592 49.8969514,31.7432416 48.0028011,31.7432416 L46.0606977,31.7432416 L46.0606977,37.8932358 Z M47.2835036,36.8262777 L47.2835036,32.8101997 L47.9308714,32.8101997 C49.3454899,32.8101997 49.9808694,33.6254036 49.9808694,34.8242328 C49.9808694,36.0350504 49.3454899,36.8262777 47.9308714,36.8262777 L47.2835036,36.8262777 Z M56.4545475,37.8932358 L57.6773533,37.8932358 L57.6773533,32.8101997 L59.5115621,32.8101997 L59.5115621,31.7432416 L54.6203387,31.7432416 L54.6203387,32.8101997 L56.4545475,32.8101997 L56.4545475,37.8932358 Z M60.7583446,37.8932358 L61.9931387,37.8932358 L61.9931387,31.7432416 L60.7583446,31.7432416 L60.7583446,37.8932358 Z M63.5875816,37.8932358 L64.7744226,37.8932358 L64.7744226,35.2917763 C64.7744226,34.8122445 64.7024929,34.1528885 64.7024929,34.1528885 C64.7024929,34.1528885 65.0501533,34.7283265 65.4098021,35.1359285 L66.6445963,36.5625353 L66.7524909,36.5625353 L67.9752968,35.1359285 C68.3349455,34.7163382 68.682606,34.1528885 68.682606,34.1528885 C68.682606,34.1528885 68.6106763,34.8122445 68.6106763,35.2917763 L68.6106763,37.8932358 L69.7975172,37.8932358 L69.7975172,31.6713119 L69.6776343,31.6713119 L66.716526,35.0639987 L63.7074646,31.6713119 L63.5875816,31.6713119 L63.5875816,37.8932358 Z M71.3799719,37.8932358 L75.6238275,37.8932358 L75.6238275,36.8262777 L72.6027777,36.8262777 L72.6027777,35.7233548 L75.0843543,35.7233548 L75.0843543,34.6923616 L72.6027777,34.6923616 L72.6027777,32.8101997 L75.5039446,32.8101997 L75.5039446,31.7432416 L71.3799719,31.7432416 L71.3799719,37.8932358 Z M78.7887368,37.8932358 L80.0235309,37.8932358 L80.0235309,35.9031792 L82.2533533,31.7432416 L80.9346411,31.7432416 L79.8916597,33.7213099 C79.6279172,34.2248182 79.4241163,34.9800806 79.4241163,34.9800806 C79.4241163,34.9800806 79.2323036,34.2487948 78.9445846,33.7213099 L77.8896148,31.7432416 L76.4869846,31.7432416 L78.7887368,35.9271558 L78.7887368,37.8932358 Z M87.6001319,38.0011304 C88.9308324,38.0011304 89.7820011,37.3417743 89.7820011,36.2508397 C89.7820011,35.1838816 89.0507153,34.6923616 87.971769,34.2487948 L87.5881436,34.0809587 C87.1086119,33.8651694 86.8328811,33.685345 86.8328811,33.2777431 C86.8328811,32.8821294 87.1206002,32.6543519 87.5521787,32.6543519 C87.971769,32.6543519 88.2714763,32.8581528 88.5232304,33.2178016 L89.4103641,32.6063987 C88.9428207,31.923066 88.343406,31.6473353 87.5282021,31.6473353 C86.4492558,31.6473353 85.6580285,32.2947031 85.6580285,33.3017197 C85.6580285,34.296748 86.2814197,34.7762797 87.2165065,35.159905 L87.5881436,35.3277411 C88.2834646,35.6274485 88.5711836,35.8312494 88.5711836,36.262828 C88.5711836,36.6944065 88.1515933,36.9581489 87.5881436,36.9581489 C86.8568577,36.9581489 86.4372675,36.5745236 86.173525,36.0710153 L85.1784968,36.6104885 C85.5621221,37.3897275 86.4132909,38.0011304 87.6001319,38.0011304 L87.6001319,38.0011304 Z M91.0287836,37.8932358 L95.2726392,37.8932358 L95.2726392,36.8262777 L92.2515894,36.8262777 L92.2515894,35.7233548 L94.733166,35.7233548 L94.733166,34.6923616 L92.2515894,34.6923616 L92.2515894,32.8101997 L95.1527563,32.8101997 L95.1527563,31.7432416 L91.0287836,31.7432416 L91.0287836,37.8932358 Z M96.6393046,37.8932358 L100.88316,37.8932358 L100.88316,36.8262777 L97.8621104,36.8262777 L97.8621104,35.7233548 L100.343687,35.7233548 L100.343687,34.6923616 L97.8621104,34.6923616 L97.8621104,32.8101997 L100.763277,32.8101997 L100.763277,31.7432416 L96.6393046,31.7432416 L96.6393046,37.8932358 Z M102.249826,37.8932358 L104.191929,37.8932358 C106.098067,37.8932358 107.428768,36.6704299 107.428768,34.8242328 C107.428768,32.9540592 106.086079,31.7432416 104.191929,31.7432416 L102.249826,31.7432416 L102.249826,37.8932358 Z M103.472631,36.8262777 L103.472631,32.8101997 L104.119999,32.8101997 C105.534618,32.8101997 106.169997,33.6254036 106.169997,34.8242328 C106.169997,36.0350504 105.534618,36.8262777 104.119999,36.8262777 L103.472631,36.8262777 Z M114.106247,38.0011304 C115.400983,38.0011304 116.26414,37.4976221 116.827589,36.5985002 L115.844549,35.9631206 C115.484901,36.4906055 114.945427,36.9101958 114.106247,36.9101958 C112.943383,36.9101958 112.176132,36.0110738 112.176132,34.8242328 C112.176132,33.6254036 112.943383,32.7262816 114.094259,32.7262816 C114.873498,32.7262816 115.353029,33.0859304 115.688702,33.5894387 L116.647765,32.9420709 C116.096304,32.1028904 115.293088,31.6473353 114.094259,31.6473353 C112.26005,31.6473353 110.929349,32.9900241 110.929349,34.8242328 C110.929349,36.6464533 112.224085,38.0011304 114.106247,38.0011304 L114.106247,38.0011304 Z M121.119398,38.0011304 C122.905654,38.0011304 124.392202,36.6824182 124.392202,34.8242328 C124.392202,32.9420709 122.905654,31.6473353 121.119398,31.6473353 C119.345131,31.6473353 117.846594,32.9420709 117.846594,34.8242328 C117.846594,36.6824182 119.345131,38.0011304 121.119398,38.0011304 L121.119398,38.0011304 Z M121.119398,36.9101958 C119.932557,36.9101958 119.105365,36.0470387 119.105365,34.8242328 C119.105365,33.6134153 119.932557,32.7262816 121.119398,32.7262816 C122.306239,32.7262816 123.133431,33.6134153 123.133431,34.8242328 C123.133431,36.0470387 122.306239,36.9101958 121.119398,36.9101958 L121.119398,36.9101958 Z M126.142493,37.9651655 C126.562083,37.9651655 126.93372,37.6294933 126.93372,37.1739382 C126.93372,36.7063948 126.562083,36.3827109 126.142493,36.3827109 C125.710914,36.3827109 125.339277,36.7063948 125.339277,37.1739382 C125.339277,37.6294933 125.710914,37.9651655 126.142493,37.9651655 L126.142493,37.9651655 Z" id="old-timey-seed-co." fill="#818076" sketch:type="MSShapeGroup"></path>
                            </g>
                        </g>
                        <path d="M0.175572519,317.291771 L221,317.291771 L210.099624,254.913663 L11.0759482,254.913663 L0.175572519,317.291771 L0.175572519,317.291771 Z" id="Rectangle-11" stroke="none" fill="#F4EDDA" fill-rule="evenodd" sketch:type="MSShapeGroup" mask="url(#mask-10)"></path>
                        <path d="M210.099624,255.395751 L221,314.692683 L0.175572519,314.692683 L11.0759482,255.395751 L210.099624,255.395751 Z" id="Rectangle-8" stroke="none" fill="#D8D3C6" fill-rule="evenodd" sketch:type="MSShapeGroup" mask="url(#mask-10)"></path>
                        <path d="M221,0.161132966 L0.175572519,0.161132966 L11.0759482,56.0071346 L210.099624,56.0071346 L221,0.161132966 Z" id="Rectangle-8" stroke="none" fill="#B5AD99" fill-rule="evenodd" sketch:type="MSShapeGroup" mask="url(#mask-10)"></path>
                        <path d="M221,0.161132966 L0.175572519,0.161132966 L11.0759482,53.4290072 L210.099624,53.4290072 L221,0.161132966 Z" id="Rectangle-10" stroke="none" fill="#D8D3C6" fill-rule="evenodd" sketch:type="MSShapeGroup" mask="url(#mask-10)"></path>
                    </g>
                </g>
                <rect id="Rectangle-1" fill="#F1BD54" sketch:type="MSShapeGroup" mask="url(#mask-4)" x="82.0416154" y="340.667317" width="336" height="139.863415" rx="17.982439"></rect>
                <path d="M191.318293,270.73561 L102.603659,270.73561 C101.744686,270.73561 102.372229,308.186538 102.372229,308.186538 C102.490666,318.127707 110.657529,326.191464 120.592481,326.191464 L387.585564,326.191464 C397.509715,326.191464 404.772697,318.181803 403.783763,308.301385 L400.023793,270.73561 L302.506098,270.73561 C299.666983,270.73561 289.533551,274.750295 289.533554,282.705314 C289.533557,290.660333 282.822364,297.709268 274.571163,297.709268 L213.481311,297.709268 C205.217811,297.709268 198.51892,291.009646 198.51892,282.705314 L198.51892,274.750295 C198.51892,273.359777 193.899337,270.73561 191.318293,270.73561 Z" id="Rectangle-1" fill-opacity="0.219967165" fill="#000000" sketch:type="MSShapeGroup" mask="url(#mask-4)"></path>
                <path d="M196.558477,278.228293 L99.9970546,278.228293 C90.0778823,278.228293 82.021359,286.281019 82.021359,296.21456 L82.021359,441.564952 C82.021359,451.496575 90.0693521,459.55122 99.9970546,459.55122 L400.045664,459.55122 C409.964836,459.55122 418.021359,451.498493 418.021359,441.564952 L418.021359,296.21456 C418.021359,286.282938 409.973366,278.228293 400.045664,278.228293 L301.484768,278.228293 C301.834532,279.497666 302.021359,280.83474 302.021359,282.215727 L302.021359,290.225249 C302.021359,298.496653 295.310169,305.201951 287.030935,305.201951 L211.011783,305.201951 C202.732801,305.201951 196.021359,298.502329 196.021359,290.225249 L196.021359,282.215727 C196.021359,280.834973 196.208373,279.497859 196.558477,278.228293 Z" id="Rectangle-4" fill="#FAE5C2" sketch:type="MSShapeGroup" mask="url(#mask-4)"></path>
                <path d="M196.578733,291.715122 C161.411204,291.715122 127.424526,291.715122 100.046997,291.715122 C89.6292684,291.715122 82.0416154,285.960976 82.0416154,285.960976 C82.0416154,285.960976 84.6002671,307.127577 82.0416154,309.680552 L82.0416154,455.049078 C82.0416154,464.988899 90.0896084,473.038049 100.017311,473.038049 L400.06592,473.038049 C409.985092,473.038049 418.041615,464.984293 418.041615,455.049482 L418.041615,309.680552 L415.544054,285.960976 C415.544054,285.960976 413.991463,291.715121 400.045188,291.715122 C394.739963,291.715122 353.92672,291.715122 301.505024,291.715122 C301.854788,292.984495 302.041615,294.32157 302.041615,295.702556 L302.041615,303.712078 C302.041615,311.983482 295.330425,318.68878 287.051191,318.68878 L211.03204,318.68878 C202.753057,318.68878 196.041615,311.989159 196.041615,303.712078 L196.041615,295.702556 C196.041615,294.321802 196.228629,292.984688 196.578733,291.715122 Z" id="Rectangle-1" fill="#E9C07D" sketch:type="MSShapeGroup" mask="url(#mask-4)"></path>
                <path d="M156.617401,367.609786 C156.136011,362.107471 160.218668,357.255636 165.696539,356.776385 L324.9351,342.844816 C330.430759,342.364008 335.275301,346.425438 335.757505,351.937057 L340.979895,411.629239 C341.461285,417.131553 337.378628,421.983388 331.900757,422.46264 L172.662196,436.394209 C167.166536,436.875017 162.321995,432.813586 161.83979,427.301967 L156.617401,367.609786 L156.617401,367.609786 Z" id="Rectangle-17" fill="#F1BD54" sketch:type="MSShapeGroup" mask="url(#mask-4)"></path>
                <path d="M151.622279,363.613688 C151.140889,358.111374 155.223546,353.259539 160.701417,352.780287 L319.939978,338.848718 C325.435637,338.36791 330.280179,342.429341 330.762383,347.94096 L335.984773,407.633141 C336.466163,413.135455 332.383506,417.987291 326.905635,418.466542 L167.667074,432.398111 C162.171415,432.878919 157.326873,428.817488 156.844668,423.305869 L151.622279,363.613688 L151.622279,363.613688 Z" id="Rectangle-17" fill="#FFFFFF" sketch:type="MSShapeGroup" mask="url(#mask-4)"></path>
                <path d="M208.262997,374.929105 C208.038602,373.656497 207.168111,373.129602 205.70697,373.387241 C204.481496,373.603325 203.630244,374.288013 203.239171,375.377549 C200.610617,377.007411 198.597532,378.820343 197.089027,380.738701 C194.981559,383.394459 194.171632,385.967223 194.6038,388.41817 C194.977792,390.539182 195.928545,392.072505 197.550326,393.001517 C198.309927,393.450767 199.920665,394.041533 202.460186,394.662926 C204.606015,395.25654 205.947842,395.700326 206.579932,395.977664 C207.561312,396.582204 208.151733,397.450078 208.359506,398.628418 C208.683632,400.466628 207.920953,402.204877 206.174048,403.873677 C204.551922,405.423277 202.813443,406.313006 201.022366,406.628821 C200.739564,406.678687 200.307051,406.706351 199.708204,406.617548 C199.125979,406.623012 198.732288,406.595232 198.449487,406.645098 C198.025284,406.719896 197.728593,406.966607 197.503968,407.346408 C197.287654,407.773342 197.204429,408.12821 197.270917,408.505279 C197.503623,409.825019 198.892583,410.260495 201.437797,409.811705 C204.077279,409.346293 206.425763,408.057409 208.530383,405.936743 C210.837427,403.585987 211.749933,401.043735 211.284521,398.404253 C210.91884,396.330375 209.912643,394.758229 208.368507,393.718328 C207.387128,393.113787 205.673811,392.492509 203.181425,391.862805 C201.146484,391.346838 199.915547,390.980697 199.480301,390.717249 C198.365832,390.184774 197.728277,389.325212 197.512193,388.099738 C197.104958,385.790192 198.192108,383.411541 200.773643,380.963786 C202.653638,379.22292 204.874611,377.762124 207.444873,376.628531 C208.118634,376.315333 208.412593,375.777509 208.262997,374.929105 L208.262997,374.929105 L208.262997,374.929105 Z M235.842822,401.801209 C235.776334,401.42414 235.576757,401.119138 235.227468,400.791935 C234.88649,400.511865 234.570445,400.373196 234.193376,400.439684 C233.957708,400.481238 233.447549,400.619792 232.615766,400.863656 C231.753472,401.210098 231.101912,401.373584 230.67771,401.448383 C228.603832,401.814063 226.968161,401.081897 225.67643,399.268504 C227.5924,398.007285 229.111949,396.427174 230.235074,394.52817 C231.474668,392.462833 231.960124,390.53047 231.627687,388.645126 C231.411603,387.419653 230.749115,386.418689 229.734492,385.625614 C228.292935,384.616224 226.998242,384.164127 225.819902,384.3719 C223.887424,384.712648 222.500966,386.220693 221.652216,388.848902 C220.895001,391.169376 220.720012,393.484386 221.118936,395.746799 C221.2436,396.453803 221.415397,397.152496 221.689773,397.881701 C221.415282,397.9787 221.085347,398.036876 220.802546,398.086742 C220.001274,398.228027 219.158449,398.133645 218.265757,397.756461 C217.364755,397.332144 216.843553,397.132452 216.702153,397.157384 C215.759481,397.323603 215.379565,397.925182 215.562405,398.962121 C215.69538,399.716258 216.385647,400.323531 217.68034,400.775628 C218.731054,401.222147 220.10066,401.272242 221.750336,400.98136 C222.221672,400.898251 222.684697,400.768008 223.045144,400.607253 C225.262695,403.812568 228.209681,405.091099 231.886101,404.442847 C234.714117,403.944192 236.058906,403.026683 235.842822,401.801209 L235.842822,401.801209 L235.842822,401.801209 Z M228.888359,389.371139 C229.112754,390.643746 228.754924,391.921817 227.862003,393.197041 C226.985703,394.566532 225.82387,395.694777 224.431948,396.620597 C224.221327,395.977348 224.057841,395.325789 223.95811,394.760185 C223.69216,393.25191 223.756146,391.685459 224.166688,390.155098 C224.577231,388.624737 225.245527,387.729314 226.188199,387.563095 C226.706669,387.471675 227.266693,387.615923 227.859961,387.948705 C228.414406,388.336932 228.788628,388.805536 228.888359,389.371139 L228.888359,389.371139 L228.888359,389.371139 Z M257.194341,398.03636 C257.127854,397.659291 256.928277,397.354289 256.578988,397.027086 C256.23801,396.747016 255.921964,396.608347 255.544896,396.674835 C255.309228,396.716389 254.799069,396.854943 253.967286,397.098807 C253.104991,397.445249 252.453432,397.608735 252.02923,397.683534 C249.955351,398.049214 248.31968,397.317048 247.02795,395.503655 C248.94392,394.242436 250.463468,392.662325 251.586594,390.763321 C252.826188,388.697984 253.311644,386.765621 252.979207,384.880277 C252.763123,383.654804 252.100635,382.65384 251.086012,381.860765 C249.644454,380.851375 248.349762,380.399278 247.171422,380.607051 C245.238944,380.947799 243.852486,382.455844 243.003736,385.084053 C242.246521,387.404527 242.071531,389.719537 242.470456,391.98195 C242.59512,392.688954 242.766917,393.387647 243.041293,394.116851 C242.766802,394.213851 242.436867,394.272027 242.154065,394.321893 C241.352794,394.463178 240.509968,394.368796 239.617277,393.991612 C238.716275,393.567295 238.195073,393.367602 238.053672,393.392535 C237.111001,393.558754 236.731085,394.160333 236.913925,395.197272 C237.0469,395.951409 237.737167,396.558682 239.03186,397.010779 C240.082574,397.457298 241.45218,397.507393 243.101856,397.216511 C243.573192,397.133402 244.036217,397.003159 244.396664,396.842404 C246.614215,400.047719 249.5612,401.32625 253.237621,400.677998 C256.065637,400.179343 257.410426,399.261834 257.194341,398.03636 L257.194341,398.03636 L257.194341,398.03636 Z M250.239879,385.60629 C250.464274,386.878897 250.106444,388.156968 249.213522,389.432192 C248.337223,390.801683 247.17539,391.929928 245.783467,392.855747 C245.572847,392.212499 245.409361,391.56094 245.30963,390.995336 C245.04368,389.487061 245.107666,387.92061 245.518208,386.390249 C245.928751,384.859888 246.597047,383.964465 247.539719,383.798246 C248.058189,383.706826 248.618213,383.851074 249.211481,384.183856 C249.765926,384.572083 250.140148,385.040687 250.239879,385.60629 L250.239879,385.60629 L250.239879,385.60629 Z M271.311474,361.236208 C271.145255,360.293536 270.637944,359.896998 269.836673,360.038284 C269.176802,360.154637 268.827398,360.653638 268.771839,361.441019 C268.424706,365.535948 268.689965,372.001447 269.606439,380.782071 C268.370038,379.833705 267.27219,379.395497 266.329518,379.561716 C264.538441,379.877531 262.880224,381.773688 261.243978,385.17254 C259.616043,388.618527 259.022314,391.59056 259.471104,394.135775 C259.753676,395.738317 260.35514,396.944437 261.369763,397.737512 C262.337252,398.538898 263.607013,398.849595 265.162421,398.575334 C266.576429,398.326006 267.904596,397.31423 269.155232,395.587139 C270.172933,394.192715 270.968855,392.643 271.448732,390.954617 C272.169166,393.937923 272.989446,396.660629 273.926193,399.217001 C274.347434,400.503499 274.943434,401.127393 275.697571,400.994418 C275.980373,400.944553 276.277064,400.697842 276.557134,400.356864 C276.79007,400.024197 276.881605,399.716462 276.823429,399.386527 C276.723698,398.820924 276.496456,398.083408 276.133392,397.126847 C274.681136,393.300599 273.581017,389.266464 272.824723,384.977306 C272.52553,383.280497 272.090745,379.712233 271.575813,374.311338 C272.016752,373.504603 272.141646,372.559199 271.958806,371.52226 C271.809209,370.673855 271.692856,370.013985 271.704014,369.526027 C271.568307,368.480777 271.482581,366.892125 271.493969,364.751759 C271.436023,362.769416 271.377961,361.613277 271.311474,361.236208 L271.311474,361.236208 L271.311474,361.236208 Z M270.16862,385.348451 C269.971429,387.813173 269.338993,390.014447 268.271312,391.952273 C267.095474,394.103567 265.706284,395.320499 264.150875,395.59476 C262.925402,395.810844 262.226824,395.156437 261.952563,393.601028 C261.645059,391.857085 262.080649,389.641921 263.353602,386.938915 C264.548909,384.346797 265.70801,382.92744 266.792083,382.736289 C266.88635,382.719667 267.083195,382.733557 267.468575,382.714203 C268.086661,384.01459 268.968194,384.879732 270.16862,385.348451 L270.16862,385.348451 L270.16862,385.348451 Z M290.997127,374.483165 C290.780927,374.083896 290.628484,373.770582 290.539796,373.543225 C290.154531,372.736375 289.741486,372.323216 289.292351,372.256613 C288.402392,372.170542 287.670455,372.153805 287.151986,372.245225 C285.832245,372.477931 285.050328,373.004596 284.900501,373.8086 C282.873641,374.992173 282.08603,376.589022 282.45171,378.6629 C282.601307,379.511305 282.892304,380.334777 283.380147,381.172139 C283.923434,382.048323 284.411277,382.885685 284.890809,383.675913 C286.939179,387.299851 288.053418,389.484734 288.169771,390.144604 C288.435721,391.652879 287.429179,392.559346 285.166766,392.95827 C284.742563,393.033068 284.121516,393.093977 283.295312,393.093862 C282.430285,393.149191 281.950638,393.185167 281.762104,393.21841 C280.960833,393.359696 280.691806,394.03892 280.899579,395.21726 C281.082419,396.254199 282.643292,396.562164 285.565575,396.046887 C287.356652,395.731071 288.759617,395.143498 289.782781,394.331299 C290.961236,393.297322 291.421644,392.049762 291.147384,390.494353 C290.9313,389.26888 290.055461,387.333555 288.558689,384.632935 C287.935024,383.576527 287.311359,382.520119 286.640561,381.472022 C285.82563,380.157745 285.423744,379.256628 285.348945,378.832426 C285.107929,377.465551 285.737402,376.625573 287.339945,376.343001 C287.622746,376.293136 288.05526,376.265471 288.629174,376.212873 C289.211399,376.207409 289.635601,376.132611 289.918403,376.082746 C290.719674,375.94146 291.069078,375.442459 290.997127,374.483165 L290.997127,374.483165 L290.997127,374.483165 Z" id="Seeds" fill="#5E5D55" sketch:type="MSShapeGroup" mask="url(#mask-4)"></path>
            </g>
        </g>
    </g>
</svg>