<?xml version="1.0" encoding="UTF-8" standalone="no"?>
<svg width="54px" height="57px" viewBox="0 0 54 57" version="1.1" xmlns="http://www.w3.org/2000/svg" xmlns:xlink="http://www.w3.org/1999/xlink" xmlns:sketch="http://www.bohemiancoding.com/sketch/ns">
    <!-- Generator: Sketch 3.3.2 (12043) - http://www.bohemiancoding.com/sketch -->
    <title>AddPlantingIcon</title>
    <desc>Created with Sketch.</desc>
    <defs>
        <path id="path-1" d="M11.3835471,6.15434571 C12.3373727,6.04949168 12.2873975,4.73676313 13.2303816,4.50110661 C13.5124678,4.43061187 13.8180815,5.65488696 13.9267211,5.4987005 C14.6660658,4.43577716 14.5638396,5.25548208 15.7243392,4.48210946 C16.03114,4.27765328 16.9473478,4.89971027 17.0054284,4.95776886 C17.3968486,5.34904038 20.0349472,4.82675865 20.255175,4.87082037 C21.4676383,5.11340196 22.1217361,5.26210814 23.1002261,5.62924502 C23.2330484,5.67908095 25.9767097,5.56017458 26.1847809,5.47702427 C26.6663249,5.28458762 27.0491262,4.78690417 27.2945872,4.54153644 C27.4537436,4.38244041 27.7108423,5.24904642 27.8357243,4.99844224 C28.0514512,4.56553706 30.1772228,4.86497509 30.6215695,4.86497509 C30.9683226,4.86497509 30.8143352,4.94904285 30.9914237,5.12606411 C31.0357188,5.17034237 31.6399906,4.78218502 31.6848394,4.73735321 C31.7480653,4.67415127 33.7192514,5.13942981 33.7741014,5.19425901 C33.9563424,5.37643076 35.3109257,4.99339949 35.5093462,4.91441639 C35.8009862,4.79832647 36.5292995,5.35253033 36.9339428,5.43342825 C37.4750395,5.54160649 37.7717205,5.02771666 38.3268654,5.19425901 C38.6157242,5.2809161 38.9240549,5.39866237 39.0885019,5.67284104 C39.312936,6.04703491 38.2050589,5.87208295 37.869786,6.15142307 C36.6174698,7.19481825 35.2069431,7.94857673 33.647893,8.43570849 C30.2549269,9.49585498 20.7460626,11.2472058 17.238841,10.5458534 C16.5133505,10.4007743 16.1454514,10.0792624 15.6066584,9.82785856 C13.9801964,9.06894244 13.0684259,9.96219495 10.318328,7.7613097 C9.92472895,7.44631495 9.62192726,6.9777773 9.46946632,6.52113682 C9.42159619,6.37775954 9.56923854,6.10545429 9.40709301,6.06447458 C9.26402946,6.02831753 7.647888,5.00795908 7.92718891,4.71567698 C8.29640786,4.32929767 9.14413563,5.01859352 9.22996258,5.10438788 C9.46641488,5.34075039 10.7960262,4.76999036 10.9435229,4.84329885 C11.235768,4.98854987 11.116802,5.22908712 11.5628703,5.22908712"></path>
        <path d="M7.9530197,36.3932134 C6.85631312,29.7633535 4.34903261,15.1465939 3.50116273,14.7724841 C2.50072684,14.3310569 1.40201961,13.884415 1.27620539,12.7897868 L0.0340616461,1.98269732 C-0.0917968626,0.887683828 0.700365063,0 1.80350973,0 C1.80350973,0 6.10923727,2.99442245 22.6127156,2.99442245 C39.116194,2.99442245 45.3505357,0 45.3505357,0 C46.4536334,0 47.245798,0.888069129 47.1199838,1.98269732 L45.8778401,12.7897868 C45.7519816,13.8848003 44.6676022,14.3620342 43.6528827,14.7724841 C42.8302261,15.1052453 40.3083426,29.750549 39.2044323,36.3908922 C34.8041435,39.5496431 29.4079159,41.4095917 23.577109,41.4095917 C17.7477305,41.4095917 12.3527184,39.5505543 7.9530197,36.3932134 Z" id="path-2"></path>
    </defs>
    <g id="Add/Edit-Planting" stroke="none" stroke-width="1" fill="none" fill-rule="evenodd" sketch:type="MSPage">
        <g id="Plantings-List-Copy-11" sketch:type="MSArtboardGroup" transform="translate(-83.000000, -961.000000)">
            <g id="Add-Planting-Copy" sketch:type="MSLayerGroup" transform="translate(0.000000, 953.000000)">
                <g id="AddPlantingIcon" transform="translate(83.000000, 8.000000)">
                    <circle id="Oval-838-Copy" fill="#F1BD54" sketch:type="MSShapeGroup" cx="27" cy="30" r="27"></circle>
                    <g id="Plantling">
                        <path d="M27.1866521,54.0633946 C41.9992167,54.0633946 54.0071729,42.0599984 54.0071729,27.2530588 C54.0071729,12.4461192 41.9992167,0.442722959 27.1866521,0.442722959 C12.3740875,0.442722959 0.366131296,12.4461192 0.366131296,27.2530588 C0.366131296,42.0599984 12.3740875,54.0633946 27.1866521,54.0633946 Z" id="Oval-2" fill="#F8D454" sketch:type="MSShapeGroup"></path>
                        <g id="pot" transform="translate(3.580617, 9.584998)">
                            <path d="M0.222097444,4.43715414 C0.222097444,4.43715414 0.0636926534,3.70187292 0.962819691,3.14938638 C1.86194673,2.59689985 11.4153306,0.0124212211 23.6715951,0.0124212198 C35.9278596,0.0124212185 45.0913028,2.54465341 46.077845,3.14938638 C47.0643872,3.75411936 47.1210945,4.64945401 47.1210945,4.64945401 L23.671596,9.91854581 L0.222097444,4.43715414 Z" id="back" fill="#EDB686" sketch:type="MSShapeGroup"></path>
                            <path d="M4.73652637,4.12469514 C1.89147535,3.36980201 14.3376763,1.67881217 24.3545135,1.67881217 C34.3713507,1.67881217 45.0697588,3.41559001 43.0593195,3.82950867 C41.0488802,4.24342733 29.461085,11.4640489 29.461085,11.4640489 L13.9486493,10.1673717 C13.9486493,10.1673717 7.58157739,4.87958827 4.73652637,4.12469514 Z" id="inside" fill="#835933" sketch:type="MSShapeGroup"></path>
                            <g id="Path-463">
                                <use fill="#57422C" sketch:type="MSShapeGroup" xlink:href="#path-1"></use>
                                <use fill-opacity="0.284398321" fill="none" xlink:href="#path-1"></use>
                            </g>
                            <g id="foreground" transform="translate(0.028926, 3.068804)">
                                <mask id="mask-3" sketch:name="pot shape" fill="white">
                                    <use xlink:href="#path-2"></use>
                                </mask>
                                <g id="pot-shape">
                                    <use fill="#DA985D" sketch:type="MSShapeGroup" xlink:href="#path-2"></use>
                                    <use fill-opacity="0.0226795709" fill="none" xlink:href="#path-2"></use>
                                </g>
                                <path d="M3.6341669,14.9227901 C3.6341669,14.9227901 13.0652446,17.3011522 23.7135976,17.3011522 C33.4312135,17.3011522 43.5932222,14.796073 43.5932222,14.796073 L43.2642448,15.6690563 C43.2642448,15.6690563 34.4909268,18.3957929 23.7135976,18.3957929 C12.9362683,18.3957929 3.98733963,15.8850602 3.98733963,15.8850602 L3.6341669,14.9227901 Z" id="rim-shadow" fill="#8F633B" sketch:type="MSShapeGroup" mask="url(#mask-3)"></path>
                                <path d="M29.9240717,1.95417257 L28.74787,17.6937701 L26.1777091,17.6937701 L24.7142862,46.2856612 L41.9842375,43.6476062 L50.4010656,-5.02969396 L30.8583209,1.1275872 L29.9240717,1.95417257 Z" id="right-shadow" fill-opacity="0.200000018" fill="#88572C" sketch:type="MSShapeGroup" mask="url(#mask-3)"></path>
                                <path d="M22.4879694,4.93118731 C41.393616,4.93118731 47.1118788,1.33784438 46.9981423,1.06290816 C46.7367942,0.431148779 46.1191424,0 45.3505357,0 C45.3505357,0 39.116194,2.99442245 22.6127156,2.99442245 C6.10923727,2.99442245 1.80350973,0 1.80350973,0 C0.971150498,0 0.315840049,0.505376416 0.0983441988,1.2238688 C0.0275878403,1.45761076 3.5823229,4.93118731 22.4879694,4.93118731 Z" id="rim-hilight" fill="#EDB686" sketch:type="MSShapeGroup" mask="url(#mask-3)"></path>
                            </g>
                        </g>
                    </g>
                    <g id="add-mui-2" transform="translate(7.000000, 8.000000)" font-size="25.2" font-family="FontAwesome" fill="#FFFFFF" sketch:type="MSTextLayer" font-weight="normal">
                        <text id="">
                            <tspan x="10.6034483" y="30.1639344"></tspan>
                        </text>
                    </g>
                </g>
            </g>
        </g>
    </g>
</svg>