<?xml version="1.0" encoding="UTF-8" standalone="no"?>
<svg width="109px" height="109px" viewBox="0 0 109 109" version="1.1" xmlns="http://www.w3.org/2000/svg" xmlns:xlink="http://www.w3.org/1999/xlink" xmlns:sketch="http://www.bohemiancoding.com/sketch/ns">
    <!-- Generator: Sketch 3.3.2 (12043) - http://www.bohemiancoding.com/sketch -->
    <title>Plantling</title>
    <desc>Created with Sketch.</desc>
    <defs>
        <path id="path-1" d="M62.3733042,122.126789 C91.9984335,122.126789 116.014346,98.1199967 116.014346,68.5061175 C116.014346,60.4711251 117.347575,2.01001967e-07 117.347575,2.01001967e-07 L10.8090987,2.01001967e-07 C10.8090987,2.01001967e-07 8.73226259,53.5426633 8.73226259,68.5061175 C8.73226259,98.1199967 32.748175,122.126789 62.3733042,122.126789 Z"></path>
        <path id="path-3" d="M22.7670942,12.3086914 C24.6747454,12.0989834 24.5747949,9.47352627 26.4607633,9.00221323 C27.0249355,8.86122373 27.6361629,11.3097739 27.8534422,10.997401 C29.3321315,8.87155432 29.1276792,10.5109642 31.4486785,8.96421893 C32.06228,8.55530657 33.8946956,9.79942054 34.0108569,9.91553771 C34.7936972,10.6980808 40.0698944,9.65351729 40.5103501,9.74164073 C42.9352766,10.2268039 44.2434722,10.5242163 46.2004522,11.25849 C46.4660968,11.3581619 51.9534193,11.1203492 52.3695618,10.9540485 C53.3326498,10.5691752 54.0982525,9.57380833 54.5891743,9.08307289 C54.9074873,8.76488083 55.4216847,10.4980928 55.6714486,9.99688448 C56.1029023,9.13107412 60.3544455,9.72995018 61.2431389,9.72995018 C61.9366452,9.72995018 61.6286703,9.8980857 61.9828473,10.2521282 C62.0714375,10.3406847 63.2799811,9.56437004 63.3696788,9.47470643 C63.4961307,9.34830255 67.4385028,10.2788596 67.5482029,10.388518 C67.9126848,10.7528615 70.6218514,9.98679899 71.0186925,9.82883278 C71.6019723,9.59665294 73.0585991,10.7050607 73.8678855,10.8668565 C74.950079,11.083213 75.543441,10.0554333 76.6537307,10.388518 C77.2314485,10.5618322 77.8481098,10.7973247 78.1770037,11.3456821 C78.625872,12.0940698 76.4101178,11.7441659 75.739572,12.3028461 C73.2349395,14.3896365 70.4138862,15.8971535 67.2957859,16.871417 C60.5098538,18.99171 41.4921251,22.4944116 34.4776821,21.0917068 C33.026701,20.8015486 32.2909028,20.1585247 31.2133167,19.6557171 C27.9603928,18.1378849 26.1368517,19.9243899 20.636656,15.5226194 C19.8494579,14.8926299 19.2438545,13.9555546 18.9389326,13.0422736 C18.8431924,12.7555191 19.1384771,12.2109086 18.814186,12.1289492 C18.5280589,12.0566351 15.295776,10.0159182 15.8543778,9.43135396 C16.5928157,8.65859535 18.2882713,10.037187 18.4599252,10.2087758 C18.9328298,10.6815008 21.5920525,9.53998072 21.8870458,9.68659771 C22.4715359,9.97709973 22.2336039,10.4581742 23.1257407,10.4581742"></path>
        <path id="path-4" d="M87.3057655,29.5449682 C89.3352044,28.7240685 91.5039631,27.7696005 91.7556801,25.5795735 L94.2399676,3.96539465 C94.4915961,1.77613826 92.9072669,0 90.7010715,0 C90.7010715,0 78.232388,5.9888449 45.2254313,5.9888449 C12.2184745,5.9888449 3.60701947,0 3.60701947,0 C1.40073013,0 -0.183593725,1.77536766 0.0681232921,3.96539465 L2.55241078,25.5795735 C2.80403922,27.7688299 5.00145368,28.6621137 7.00232545,29.5449682 C9.19732065,30.5134767 16.953056,79.209578 16.953056,79.209578 C17.1906814,81.6256166 29.6369932,86.5766735 47.6490697,86.5766726 C65.6611462,86.5766717 77.1178607,81.6245382 77.35538,79.209578 C77.35538,79.209578 85.1764822,30.4062545 87.3057655,29.5449682 Z"></path>
    </defs>
    <g id="Add/Edit-Planting" stroke="none" stroke-width="1" fill="none" fill-rule="evenodd" sketch:type="MSPage">
        <g id="Plantings-List-Copy-4" sketch:type="MSArtboardGroup" transform="translate(-501.000000, -95.000000)">
            <g id="Select-a-Planting-+-Plantling" sketch:type="MSLayerGroup" transform="translate(468.000000, 69.000000)">
                <g id="Plantling" transform="translate(25.000000, 12.000000)">
                    <rect id="hit" sketch:type="MSShapeGroup" x="0" y="0" width="127.740527" height="127.692018"></rect>
                    <path d="M62.3733042,122.126789 C91.9984335,122.126789 116.014346,98.1199967 116.014346,68.5061175 C116.014346,38.8922383 91.9984335,14.8854459 62.3733042,14.8854459 C32.748175,14.8854459 8.73226259,38.8922383 8.73226259,68.5061175 C8.73226259,98.1199967 32.748175,122.126789 62.3733042,122.126789 Z" id="Oval-2" fill="#FFFFFF" sketch:type="MSShapeGroup"></path>
                    <mask id="mask-2" sketch:name="Oval 3" fill="white">
                        <use xlink:href="#path-1"></use>
                    </mask>
                    <use id="Oval-3" sketch:type="MSShapeGroup" xlink:href="#path-1"></use>
                    <g id="pot" mask="url(#mask-2)">
                        <g transform="translate(15.161235, 33.169997)">
                            <path d="M0.444194889,8.87430828 C0.444194889,8.87430828 0.127385307,7.40374584 1.92563938,6.29877277 C3.72389346,5.19379969 22.8306613,0.0248424421 47.3431902,0.0248424396 C71.8557191,0.0248424371 90.1826056,5.08930682 92.15569,6.29877277 C94.1287743,7.50823871 94.242189,9.29890802 94.242189,9.29890802 L47.3431919,19.8370916 L0.444194889,8.87430828 Z" id="back" fill="#EDB686" sketch:type="MSShapeGroup"></path>
                            <path d="M9.47305273,8.24939029 C3.78295069,6.73960403 28.6753527,3.35762435 48.709027,3.35762435 C68.7427013,3.35762435 90.1395175,6.83118003 86.118639,7.65901734 C82.0977605,8.48685465 58.92217,22.9280979 58.92217,22.9280979 L27.8972986,20.3347434 C27.8972986,20.3347434 15.1631548,9.75917655 9.47305273,8.24939029 Z" id="inside" fill="#835933" sketch:type="MSShapeGroup"></path>
                            <g id="Path-463">
                                <use fill="#57422C" sketch:type="MSShapeGroup" xlink:href="#path-3"></use>
                                <use fill-opacity="0.284398321" fill="none" xlink:href="#path-3"></use>
                            </g>
                            <g id="foreground" stroke-width="1" fill="none" sketch:type="MSLayerGroup" transform="translate(0.057851, 6.137609)">
                                <mask id="mask-5" sketch:name="pot shape" fill="white">
                                    <use xlink:href="#path-4"></use>
                                </mask>
                                <g id="pot-shape">
                                    <use fill="#DA985D" sketch:type="MSShapeGroup" xlink:href="#path-4"></use>
                                    <use fill-opacity="0.0226795709" fill="none" xlink:href="#path-4"></use>
                                </g>
                                <path d="M7.2683338,29.8455801 C7.2683338,29.8455801 26.1304893,34.6023044 47.4271951,34.6023044 C66.8624271,34.6023044 87.1864445,29.5921459 87.1864445,29.5921459 L86.5284895,31.3381126 C86.5284895,31.3381126 68.9818537,36.7915859 47.4271951,36.7915859 C25.8725366,36.7915859 7.97467926,31.7701204 7.97467926,31.7701204 L7.2683338,29.8455801 Z" id="rim-shadow" fill="#8F633B" sketch:type="MSShapeGroup" mask="url(#mask-5)"></path>
                                <path d="M59.8481435,3.90834514 L57.4957399,35.3875402 L52.3554182,35.3875402 L49.4285723,92.5713224 L83.9684751,87.2952124 L100.802131,-10.0593879 L61.7166418,2.25517441 L59.8481435,3.90834514 Z" id="right-shadow" fill-opacity="0.200000018" fill="#88572C" sketch:type="MSShapeGroup" mask="url(#mask-5)"></path>
                                <path d="M44.9759389,9.86237462 C82.787232,9.86237462 94.2237575,2.67568875 93.9962847,2.12581632 C93.4735884,0.862297559 92.2382849,0 90.7010715,0 C90.7010715,0 78.232388,5.9888449 45.2254313,5.9888449 C12.2184745,5.9888449 3.60701947,0 3.60701947,0 C1.942301,0 0.631680099,1.01075283 0.196688398,2.44773761 C0.0551756806,2.91522151 7.1646458,9.86237462 44.9759389,9.86237462 Z" id="rim-hilight" fill="#EDB686" sketch:type="MSShapeGroup" mask="url(#mask-5)"></path>
                            </g>
                        </g>
                    </g>
                </g>
            </g>
        </g>
    </g>
</svg>