<?xml version="1.0" encoding="UTF-8" standalone="no"?>
<svg width="32px" height="32px" viewBox="0 0 32 32" version="1.1" xmlns="http://www.w3.org/2000/svg" xmlns:xlink="http://www.w3.org/1999/xlink" xmlns:sketch="http://www.bohemiancoding.com/sketch/ns">
    <!-- Generator: Sketch 3.2.2 (9983) - http://www.bohemiancoding.com/sketch -->
    <title>Grow Spaces 32px@1,5x</title>
    <desc>Created with Sketch.</desc>
    <defs>
        <linearGradient x1="46.2870695%" y1="54.605811%" x2="51.0582749%" y2="54.6058111%" id="linearGradient-1">
            <stop stop-color="#000000" stop-opacity="0" offset="0%"></stop>
            <stop stop-color="#000000" stop-opacity="0.248245018" offset="100%"></stop>
        </linearGradient>
        <rect id="path-2" x="14.8192771" y="0.15530303" width="1.38930723" height="20.4223485" rx="1.39636364"></rect>
        <linearGradient x1="50%" y1="45.2806122%" x2="50%" y2="52.4334343%" id="linearGradient-3">
            <stop stop-color="#000000" stop-opacity="0" offset="0%"></stop>
            <stop stop-color="#000000" stop-opacity="0.248245018" offset="100%"></stop>
        </linearGradient>
        <rect id="path-4" x="0" y="1" width="31.8768825" height="1.32007576" rx="1.55151515"></rect>
        <path id="path-5" d="M1,0 L7.71498494,0 L8.85156545,11.4359646 C8.85156545,11.4359646 7.18810903,13.6054952 6.02832326,13.6613674 C5.77874278,13.6733909 6.6558257,14.7945461 6.6558257,15.1427517 C6.6558257,15.3051041 5.30338104,15.8791682 4.19256878,15.8558254 C2.92471757,15.8291826 2.36825287,15.1252951 2.43799123,14.9667873 C2.47529713,14.8819951 3.10455018,13.8460385 3.03583056,13.8336086 C1.90003271,13.6281677 0.55444631,11.591177 0.55444631,11.591177 L1,0 Z"></path>
        <path id="path-7" d="M6.4057765,4.06918812 L0.166396543,3.81222987 L0,0 L10.4065383,0 L9.90725598,12.5883419 L6.4057765,11.7176256 L6.4057765,4.06918812 Z"></path>
        <path id="path-9" d="M5.80176973,4.06296253 L0,3.91684413 L0,0 L10.4065383,0 L9.90725598,12.5883419 L5.80176973,11.952733 L5.80176973,4.06296253 Z"></path>
        <ellipse id="path-11" cx="3.58904367" cy="3.61079545" rx="3.58904367" ry="3.61079545"></ellipse>
        <path id="path-13" d="M0.918286454,0.0114746094 L3.47326798,0.0114746094 L5.82038612,0.0114746094 L6.79216867,5.76751154 C6.79216867,5.76751154 4.89227295,6.14788263 3.47326807,6.14788263 C2.0542632,6.14788263 0.0723597515,5.76751154 0.0723597515,5.76751154 L0.918286454,0.0114746094 Z"></path>
    </defs>
    <g id="Module-Icons" stroke="none" stroke-width="1" fill="none" fill-rule="evenodd" sketch:type="MSPage">
        <g id="Grow-Spaces-32px" sketch:type="MSArtboardGroup">
            <g id="GrowSpacesIcon" sketch:type="MSLayerGroup">
                <ellipse id="Oval-371" fill-opacity="0.100000001" fill="#000000" sketch:type="MSShapeGroup" cx="15.5" cy="29.5" rx="7.5" ry="2.5"></ellipse>
                <g id="poles" transform="translate(0.000000, 9.259470)">
                    <g id="Rectangle-49">
                        <use fill="#9A7F5A" sketch:type="MSShapeGroup" xlink:href="#path-2"></use>
                        <use fill="url(#linearGradient-1)" xlink:href="#path-2"></use>
                    </g>
                    <g id="Rectangle-51">
                        <use fill="#9A7F5A" sketch:type="MSShapeGroup" xlink:href="#path-4"></use>
                        <use fill="url(#linearGradient-3)" xlink:href="#path-4"></use>
                    </g>
                </g>
                <g id="tshirt" transform="translate(11.272214, 10.259470)">
                    <mask id="mask-6" sketch:name="Rectangle 55" fill="white">
                        <use xlink:href="#path-5"></use>
                    </mask>
                    <use id="Rectangle-55" fill="#F1BD54" sketch:type="MSShapeGroup" xlink:href="#path-5"></use>
                    <path d="M0.855106976,11.836645 L1.43521376,0.11829723 L1.79223826,0.0581512209 C1.77876712,-0.0390921789 1.77183735,-0.138058538 1.77183735,-0.238414418 C1.77183735,-1.61075834 3.06769992,-2.7232629 4.66622741,-2.7232629 C6.2647549,-2.7232629 7.56061747,-1.61075834 7.56061747,-0.238414418 C7.56061747,0.4422876 7.24179634,1.05906133 6.72535835,1.50785229 L6.99515616,1.47113222 L6.82365602,11.2032378 L9.46850874,11.2032378 C9.46850874,11.2032378 7.53567591,12.8847743 7.0448704,13.2711089 C6.54770709,13.662448 6.45125575,13.7277191 6.44574263,13.7299712 C6.28225766,13.796754 5.50007288,14.1543193 4.53796675,14.1915191 C3.51138635,14.2312118 2.95038798,13.9910796 2.72541239,13.8395293 C2.50043681,13.687979 0.346377396,11.939627 0.346377396,11.939627 L0.855106976,11.836645 Z M2.90516551,11.4216524 L2.95379923,11.4051417 L3.42970031,2.00890753 C3.80466417,2.16123494 4.22385627,2.24643407 4.66622741,2.24643407 C5.04721235,2.24643407 5.41100486,2.18323987 5.74415874,2.06839508 L6.235518,11.2503841 C6.12669634,11.4992372 5.56829046,12.6486724 4.53796675,12.6486724 C3.38257124,12.6486724 2.91376021,11.4199126 2.91376021,11.4199126 L2.90516551,11.4216524 Z" id="Path-499" fill-opacity="0.349999994" fill="#000000" sketch:type="MSShapeGroup" mask="url(#mask-6)"></path>
                </g>
                <g id="jacket" transform="translate(3.704819, 10.026515)">
                    <g id="Rectangle-52">
                        <mask id="mask-8" sketch:name="Rectangle 52" fill="white">
                            <use xlink:href="#path-7"></use>
                        </mask>
                        <use fill="#417644" sketch:type="MSShapeGroup" xlink:href="#path-7"></use>
                        <path d="M7.95761292,0.0776515152 L9.41355142,1.9091353 L8.82110596,2.63165838 L10.1038333,3.66387754 C10.1038333,3.66387754 9.38732101,5.8014175 8.88834023,6.61160186 C8.38935944,7.42178622 7.79510498,8.4819114 7.79510498,8.4819114 L7.48983728,0.378399473 L7.95761292,0.0776515152 Z" id="Path-494" fill="#3C633F" sketch:type="MSShapeGroup" mask="url(#mask-8)">
                            <g transform="translate(8.796835, 4.279781) scale(-1, 1) translate(-8.796835, -4.279781) "></g>
                        </path>
                        <path d="M8.18916413,0 L9.64510263,1.83148378 L9.05265716,2.55400687 L10.3353845,3.58622603 C10.3353845,3.58622603 9.61887222,5.72376598 9.11989143,6.53395034 C8.62091064,7.34413471 8.02665619,8.40425988 8.02665619,8.40425988 L7.72138848,0.300747958 L8.18916413,0 Z" id="Path-495" fill="#679D6B" sketch:type="MSShapeGroup" mask="url(#mask-8)">
                            <g transform="translate(9.028386, 4.202130) scale(-1, 1) translate(-9.028386, -4.202130) "></g>
                        </path>
                        <path d="M-0.141553764,1.93992291 L6.73533612,3.19250858 L6.48494123,11.6682018 C6.48494123,11.6682018 8.60176546,12.198416 9.10979122,12.198416 C9.61781697,12.198416 10.4804055,12.371767 10.4804055,12.371767 L10.2120714,13.0274066 C10.2120714,13.0274066 5.88435529,12.8630038 5.01272179,12.371767 C4.14108828,11.8805302 4.07370326,11.3603257 4.07370326,11.3603257 L4.9643312,4.63573479 L-0.705356828,2.73736757 L-0.141553764,1.93992291 Z" id="Path-501" fill="#3A5D3D" sketch:type="MSShapeGroup" mask="url(#mask-8)"></path>
                    </g>
                    <g id="Rectangle-52" transform="translate(18.581325, 6.500000) scale(-1, 1) translate(-18.581325, -6.500000) translate(13.081325, 0.000000)">
                        <mask id="mask-10" sketch:name="Rectangle 52" fill="white">
                            <use xlink:href="#path-9"></use>
                        </mask>
                        <use fill="#417644" sketch:type="MSShapeGroup" xlink:href="#path-9"></use>
                        <path d="M7.95761292,0.0776515152 L9.41355142,1.9091353 L8.82110596,2.63165838 L10.1038333,3.66387754 C10.1038333,3.66387754 9.38732101,5.8014175 8.88834023,6.61160186 C8.38935944,7.42178622 7.79510498,8.4819114 7.79510498,8.4819114 L7.48983728,0.378399473 L7.95761292,0.0776515152 Z" id="Path-494" fill="#3C633F" sketch:type="MSShapeGroup" mask="url(#mask-10)">
                            <g transform="translate(8.796835, 4.279781) scale(-1, 1) translate(-8.796835, -4.279781) "></g>
                        </path>
                        <path d="M8.18916413,0 L9.64510263,1.83148378 L9.05265716,2.55400687 L10.3353845,3.58622603 C10.3353845,3.58622603 9.61887222,5.72376598 9.11989143,6.53395034 C8.62091064,7.34413471 8.02665619,8.40425988 8.02665619,8.40425988 L7.72138848,0.300747958 L8.18916413,0 Z" id="Path-495" fill="#679D6B" sketch:type="MSShapeGroup" mask="url(#mask-10)">
                            <g transform="translate(9.028386, 4.202130) scale(-1, 1) translate(-9.028386, -4.202130) "></g>
                        </path>
                        <path d="M-0.141553764,1.93992291 L6.73533612,3.19250858 L6.48494123,11.6682018 C6.48494123,11.6682018 8.60176546,12.198416 9.10979122,12.198416 C9.61781697,12.198416 10.4804055,12.371767 10.4804055,12.371767 L10.2120714,13.0274066 C10.2120714,13.0274066 5.88435529,12.8630038 5.01272179,12.371767 C4.14108828,11.8805302 4.07370326,11.3603257 4.07370326,11.3603257 L4.9643312,4.63573479 L-0.705356828,2.73736757 L-0.141553764,1.93992291 Z" id="Path-501" fill="#3A5D3D" sketch:type="MSShapeGroup" mask="url(#mask-10)"></path>
                    </g>
                </g>
                <g id="head" transform="translate(12.117846, 3.659091)">
                    <mask id="mask-12" sketch:name="Oval 223" fill="white">
                        <use xlink:href="#path-11"></use>
                    </mask>
                    <use id="Oval-223" fill="#FEB14E" sketch:type="MSShapeGroup" xlink:href="#path-11"></use>
                    <path d="M-0.664352969,4.35712965 C-0.5990779,4.83329651 0.42511354,5.7997492 0.42511354,5.7997492 C0.42511354,5.7997492 2.03376127,6.3976052 3.47085608,6.3976052 C4.9079509,6.3976052 6.79427908,6.00267445 6.79427908,6.00267445 L7.17808735,4.01694928 L0.19793407,4.14252634 C0.19793407,4.14252634 -0.67480439,4.28088889 -0.664352969,4.35712965 Z" id="Path-498" fill-opacity="0.50999999" fill="#000000" sketch:type="MSShapeGroup" mask="url(#mask-12)"></path>
                </g>
                <g id="hat" transform="translate(7.255271, 0.000000)">
                    <path d="M4.93975904,5.75568182 L11.654744,5.75568182 L16.7069621,7.77462121 C16.7069621,7.77462121 16.75857,8.32599325 14.6006904,8.64850408 C12.4428107,8.97101492 12.2476953,9.17507842 8.38217705,9.17507842 C4.51665883,9.17507842 3.8178815,8.95653187 2.00722936,8.64850408 C0.196577217,8.3404763 0.0572848033,7.77462121 0.0572848033,7.77462121 L4.93975904,5.75568182 Z" id="Rectangle-54" fill="#F8E398" sketch:type="MSShapeGroup"></path>
                    <g id="Rectangle-50" transform="translate(4.862575, 0.000000)">
                        <mask id="mask-14" sketch:name="Rectangle 50" fill="white">
                            <use xlink:href="#path-13"></use>
                        </mask>
                        <use fill="#DDC983" sketch:type="MSShapeGroup" xlink:href="#path-13"></use>
                        <path d="M0.227734666,4.91834978 C0.227734666,4.91834978 1.82934497,4.90868232 3.47326807,4.91834977 C5.11719118,4.92801722 6.62873573,4.91834978 6.62873573,4.91834978 L6.79216867,5.76751154 C6.79216867,5.76751154 4.89227286,6.10424809 3.47326798,6.10424809 C2.05426311,6.10424809 0.0723597515,5.76751154 0.0723597515,5.76751154 L0.227734666,4.91834978 Z" id="Rectangle-53" fill="#F04A42" sketch:type="MSShapeGroup" mask="url(#mask-14)"></path>
                    </g>
                </g>
            </g>
        </g>
    </g>
</svg>