<?xml version="1.0" encoding="UTF-8" standalone="no"?>
<svg width="32px" height="32px" viewBox="0 0 32 32" version="1.1" xmlns="http://www.w3.org/2000/svg" xmlns:xlink="http://www.w3.org/1999/xlink" xmlns:sketch="http://www.bohemiancoding.com/sketch/ns">
    <!-- Generator: Sketch 3.2.2 (9983) - http://www.bohemiancoding.com/sketch -->
    <title>Journal 32px@1,5x</title>
    <desc>Created with Sketch.</desc>
    <defs>
        <path id="path-1" d="M0,2.84542534 C0,1.31858577 1.23708124,0.0791071995 2.774797,0.0769561 L24.6060606,0.0464165028 L24.6060606,5.57780431 L2.774797,5.57780431 C1.24231894,5.57780431 0,4.33045751 0,2.81321671 L0,2.84542534 Z"></path>
    </defs>
    <g id="Module-Icons" stroke="none" stroke-width="1" fill="none" fill-rule="evenodd" sketch:type="MSPage">
        <g id="Journal-32px" sketch:type="MSArtboardGroup">
            <g id="JournalIcon" sketch:type="MSLayerGroup" transform="translate(2.000000, 1.000000)">
                <g id="base" transform="translate(0.067978, 0.271458)">
                    <path d="M3.14586409,29.4942553 L3.14586409,29.7419524 L23.7241145,29.7419524 C25.4976573,29.7419524 26.9320215,28.3084333 26.9320215,26.5400978 L26.9320215,3.93039701 C26.9320215,2.16732191 25.4957926,0.728542397 23.7241145,0.728542397 L3.14586409,0.728542397 L3.14586409,0.976819622 C1.50639714,1.56532249 0.329956451,3.13477136 0.329956451,4.97841318 L0.329956451,25.4920817 C0.329956451,27.3357114 1.50435564,28.9060718 3.14586409,29.4942553 Z" id="Rectangle-63" fill="#7B503F" sketch:type="MSShapeGroup"></path>
                    <g id="pages" transform="translate(1.072358, 23.274933)">
                        <mask id="mask-2" sketch:name="Rectangle 59" fill="white">
                            <use xlink:href="#path-1"></use>
                        </mask>
                        <use id="Rectangle-59" fill="#FFFFFF" sketch:type="MSShapeGroup" xlink:href="#path-1"></use>
                    </g>
                    <rect id="Rectangle-62" fill-opacity="0.191208107" fill="#000000" sketch:type="MSShapeGroup" x="0.989869354" y="21.9006913" width="25.571625" height="2.99099651"></rect>
                    <g id="spine" transform="translate(0.263765, 0.065977)" fill="#B38467" sketch:type="MSShapeGroup">
                        <path d="M0.128495484,26.0778075 C0.0875537567,25.8412406 0.0662168464,25.5979548 0.0662168464,25.349678 L0.0662168464,4.54686483 C0.0662168464,2.5296126 1.47903666,0.841135026 3.36578136,0.410116329 L3.36578136,0.410116329 L3.36578136,23.3043223 C1.75646462,23.466058 0.454152854,24.6020093 0.128495484,26.0778075 Z" id="Rectangle-58"></path>
                    </g>
                    <path d="M7.29671613,7.94628704 C6.80888132,6.54357851 5.41444061,5.53104824 3.77035836,5.53104824 C1.7202718,5.53104824 0.0583482799,7.10541288 0.0583482799,9.04749009 C0.0583482799,9.75374361 0.278133915,10.411368 0.656446147,10.9623316 C0.535975878,10.6159343 0.470793844,10.2457424 0.470793844,9.86112854 C0.470793844,7.91905134 2.13271736,6.3446867 4.18280392,6.3446867 C5.4873584,6.3446867 6.63473399,6.98219431 7.29671613,7.94628704 Z" id="Rectangle-60" fill="#7B503F" sketch:type="MSShapeGroup"></path>
                    <path d="M7.29671613,18.1242655 C6.80888132,16.7215569 5.41444061,15.7090267 3.77035836,15.7090267 C1.7202718,15.7090267 0.0583482799,17.2833913 0.0583482799,19.2254685 C0.0583482799,19.931722 0.278133915,20.5893464 0.656446147,21.14031 C0.535975878,20.7939127 0.470793844,20.4237208 0.470793844,20.039107 C0.470793844,18.0970298 2.13271736,16.5226651 4.18280392,16.5226651 C5.4873584,16.5226651 6.63473399,17.1601727 7.29671613,18.1242655 Z" id="Rectangle-60" fill="#7B503F" sketch:type="MSShapeGroup"></path>
                    <rect id="Rectangle-61" fill="#9D694B" sketch:type="MSShapeGroup" x="3.64581908" y="0.728542397" width="23.2862024" height="22.6272283"></rect>
                </g>
                <g id="bookmark" transform="translate(7.498465, 0.000000)" sketch:type="MSShapeGroup">
                    <path d="M0.0168647769,0.315354414 L5.46114641,0.40593637 L5.46114626,9.53209144 C5.46114624,10.8591305 4.62469109,11.270317 3.5865404,10.445472 L4.73734499,11.3598242 C3.70202879,10.5372313 2.02427534,10.5262794 0.972416632,11.3490997 L1.90718731,10.617872 C0.863191005,11.4345419 0.0168647777,11.0302994 0.0168647776,9.69827578 L0.0168647769,0.315354414 Z" id="Rectangle-64" fill="#764D36"></path>
                    <path d="M0.323489801,0 L5.50153473,0 L5.50153473,11.5419856 L3.08687508,9.39662771 L0.323489801,11.5419856 L0.323489801,0 Z" id="Rectangle-64" fill="#F04A42"></path>
                </g>
                <g id="clasp" transform="translate(20.329090, 11.172362)" sketch:type="MSShapeGroup">
                    <path d="M1.77108101,2.24972072 C1.77108101,1.62662489 2.52186082,0.44460759 2.52186082,0.44460759 L6.31636001,0.44460759 L6.31636001,3.83979282 L2.52186082,3.83979282 C2.52186082,3.83979282 1.77108101,2.7583533 1.77108101,2.24972072 Z" id="Rectangle-66" fill="#7B503F"></path>
                    <path d="M0.170790461,3.2323988 C0.0764654941,2.80666439 0.0400111011,2.09636601 0.153763365,1.67013658 L0.563145414,0.687456236 C0.766398369,0.307784641 1.28867561,0 1.72583443,0 L5.85164948,0 C6.29053194,0 6.64631647,0.354055551 6.64631647,0.790977478 L6.64631647,4.13209945 C6.64631647,4.56894424 6.2888083,4.92307692 5.85164948,4.92307692 L1.72583443,4.92307692 C1.28695197,4.92307692 0.768970454,4.60895445 0.573816876,4.20608234 L0.170790461,3.2323988 Z" id="Rectangle-66" fill="#77513B"></path>
                    <ellipse id="Oval-234" fill="#E3BF3D" cx="2.88126497" cy="2.69218777" rx="1.18429528" ry="1.14413525"></ellipse>
                    <path d="M3.8996173,2.51810544 C3.87808959,2.06809653 3.49897362,1.709728 3.03444634,1.709728 C2.56991905,1.709728 2.19080309,2.06809653 2.16927537,2.51810544 L3.8996173,2.51810544 Z" id="Oval-235" fill="#FFF1BE"></path>
                </g>
            </g>
        </g>
    </g>
</svg>