<?xml version="1.0" encoding="UTF-8" standalone="no"?>
<svg width="32px" height="32px" viewBox="0 0 32 32" version="1.1" xmlns="http://www.w3.org/2000/svg" xmlns:xlink="http://www.w3.org/1999/xlink" xmlns:sketch="http://www.bohemiancoding.com/sketch/ns">
    <!-- Generator: Sketch 3.2.2 (9983) - http://www.bohemiancoding.com/sketch -->
    <title>Plantings 32px@1,5x</title>
    <desc>Created with Sketch.</desc>
    <defs>
        <path id="path-1" d="M5.83106384,2.91667448 C6.32089242,2.86698194 6.29522809,2.24485215 6.77948914,2.13316954 C6.92435193,2.09976059 7.0812971,2.67997043 7.13708801,2.60595037 C7.51677182,2.10220853 7.4642745,2.49068401 8.06023865,2.12416639 C8.21779343,2.02727028 8.6883037,2.32207624 8.71813049,2.34959143 C8.9191408,2.53502327 10.2739126,2.28750292 10.3870087,2.3083847 C11.0096583,2.42334925 11.3455643,2.49382424 11.8480591,2.66781817 C11.9162688,2.69143647 13.3252514,2.63508423 13.4321045,2.59567754 C13.6793971,2.50447775 13.8759813,2.26861504 14.0020355,2.15233009 C14.0837689,2.07693112 14.2157996,2.48763402 14.2799316,2.3688674 C14.3907162,2.16370449 15.4823871,2.3056145 15.7105774,2.3056145 C15.8886494,2.3056145 15.8095705,2.34545599 15.9005127,2.42935011 C15.92326,2.45033451 16.2335784,2.26637854 16.2566101,2.2451318 C16.2890792,2.21517906 17.3013641,2.43568439 17.3295319,2.46166911 C17.4231201,2.54800415 18.1187541,2.36647754 18.2206512,2.32904578 C18.3704203,2.27402831 18.7444391,2.53667723 18.95224,2.57501646 C19.2301153,2.62628442 19.3824732,2.38274117 19.6675629,2.46166911 C19.8159037,2.50273773 19.9742442,2.55854018 20.0586945,2.68847925 C20.1739506,2.86581763 19.6050103,2.7829042 19.4328339,2.91528938 C18.7897181,3.40977641 18.0653548,3.76699848 17.2647186,3.99786052 C15.5222914,4.50028634 10.6390995,5.33028849 8.83799744,4.99790277 C8.4654283,4.92914672 8.27649701,4.77677543 7.99980469,4.65762985 C7.16454977,4.29796346 6.69631819,4.72129471 5.28403015,3.67824867 C5.08190089,3.52896601 4.92639981,3.30691611 4.84810486,3.09050454 C4.82352159,3.02255502 4.89934199,2.89350381 4.81607361,2.87408266 C4.7426046,2.85694707 3.91264968,2.37337764 4.05608215,2.23485897 C4.24569123,2.05174565 4.6810342,2.37841752 4.72510986,2.41907728 C4.84653782,2.53109447 5.52934778,2.26059923 5.60509338,2.29534167 C5.7551732,2.3641792 5.69407927,2.47817488 5.92315369,2.47817488"></path>
        <path id="path-2" d="M23.1287922,7.00099238 C23.6498923,6.80647152 24.8446569,6.58030038 24.9092904,6.06135035 L24.9092908,0.939642159 C24.9739016,0.420874727 24.5670926,0 24.0006067,0 C24.0006067,0 20.08777,1.41912008 11.612557,1.41912008 C3.13734391,1.41912008 0.92617622,0 0.92617622,0 C0.359666186,0 -0.047141454,0.420692125 0.0174920523,0.939642159 L0.0174920521,6.06135035 C0.0821028159,6.58011778 1.2842258,6.79179068 1.79799066,7.00099238 C2.36160069,7.2304907 4.3530448,18.7695464 4.3530448,18.7695464 C4.41405998,19.3420523 8.27626464,20.1122801 12.9012347,20.1122799 C17.5262047,20.1122797 20.5128387,19.3417967 20.5738267,18.7695464 C20.5738267,18.7695464 22.5820551,7.20508328 23.1287922,7.00099238 Z"></path>
        <path id="path-4" d="M5.36044081,6.33761646 C5.07136185,5.39764492 4.67782221,3.63701896 4.15606579,3.42178042 C3.63430937,3.20654188 2.60833656,3.08743538 2.09364377,2.93429845 C1.57895099,2.78116152 0.334243664,1.90993549 0.107334384,1.48549606 C-0.119574895,1.06105663 0.0170151257,0.565655136 0.560994211,0.565655136 C1.1049733,0.565655136 1.8318131,0.733768591 2.06292888,0.733768591 C2.29404465,0.733768591 2.92929543,0.737532325 3.19437998,0.474619818 C3.45946453,0.21170731 3.72986661,-0.109464664 4.48551679,0.0506508562 C5.24116698,0.210766377 5.77006618,0.512884448 5.77006618,0.512884448 C5.77006618,0.512884448 6.66190941,1.29700729 6.53150991,1.87763011 C6.40111041,2.45825292 5.49934629,3.13644242 5.4993465,3.5146192 C5.49934672,3.89279597 5.19304354,3.72149201 5.77006638,5.54558465 C6.34708922,7.36967728 6.66190933,8.76879197 6.66190933,8.76879197 L6.19690007,9.11920043 C6.19690007,9.11920043 5.64951977,7.277588 5.36044081,6.33761646 Z"></path>
        <path id="path-6" d="M0.0470505365,7.69242643 C0.0470505365,7.69242643 0.768462646,6.31857448 0.733491978,5.93760683 C0.698521311,5.55663918 0.557496958,4.93919723 0.587386697,4.81103894 C0.617276436,4.68288065 0.752575903,4.75350912 0.798869477,4.5550161 C0.845163051,4.35652307 0.763298332,3.3174195 0.76669283,3.10344384 C0.770087327,2.88946818 0.898775553,2.75779264 1.03757705,2.84708124 C1.17637854,2.93636985 1.41620895,2.89047952 1.47279209,2.64786779 C1.52937524,2.40525606 1.73783018,2.2820565 1.85420923,2.22009095 C1.97058829,2.1581254 2.03964651,2.08044698 2.08068006,1.90450716 C2.12171362,1.72856733 2.3759788,1.90072733 2.52061198,1.93378108 C2.66524516,1.96683482 3.0024697,1.77275377 3.03590137,1.62940917 C3.06933304,1.48606456 3.36622177,1.76914231 3.39342392,1.6525076 C3.42062607,1.53587289 3.88723027,1.02842489 4.03186361,1.06147865 C4.17649696,1.0945324 4.35264303,1.08107843 4.74318991,0.950161972 C5.13373678,0.819245517 5.68770553,0.55917278 5.96419697,0.331444888 C6.24068841,0.103716995 6.57758727,0.358788331 6.79607994,0.308064935 C7.0145726,0.257341539 7.60975027,-0.00935267996 7.71393471,0.0144570898 C7.81811915,0.0382668595 7.80279976,0.103951036 7.80279976,0.103951036 C7.80279976,0.103951036 8.14053223,0.170514199 8.39840074,0.102216563 C8.65626924,0.0339189266 9.22172249,0.0126366993 9.41467769,0.0567337199 C9.60763288,0.100830741 10.1983609,0.309439556 10.7933501,0.278911508 C11.3883392,0.24838346 12.1745746,0.523823947 12.3633223,0.566959397 C12.55207,0.610094847 13.1531819,0.596961885 13.4657346,0.668391111 C13.7782872,0.739820336 14.2095472,0.915019562 14.3366702,1.01637793 C14.4637933,1.11773629 14.2715547,1.22145009 14.1841317,1.31296479 C14.0967087,1.40447948 13.8455393,1.53811796 13.9995977,1.66960407 C14.1536561,1.80109018 14.1128604,2.00855573 13.8692908,2.14986993 C13.6257212,2.29118413 13.3936349,2.38345041 13.363227,2.51383114 C13.3328191,2.64421187 13.4382813,2.6770268 13.4094668,2.8005757 C13.3806523,2.92412459 12.5126275,3.39501729 11.78553,3.79030772 C11.0584326,4.18559814 9.23834491,5.01324356 8.29298782,5.23757979 C7.34763073,5.46191601 5.37708816,5.8788636 4.20887445,6.11525576 C3.04066075,6.35164791 2.94714236,6.42000814 2.62838094,6.57894776 C2.30961952,6.73788737 1.64850062,6.92986308 1.25858541,7.19465608 C0.868670208,7.45944907 0.0470505365,7.69242643 0.0470505365,7.69242643 L0.0470505365,7.69242643 Z"></path>
        <path id="path-8" d="M11.3504641,1.33078549 C11.3504641,1.33078549 10.9992666,1.63894122 10.7903736,1.63894122 C10.5814805,1.63894122 10.3050464,1.66889427 10.3050464,1.66889427 C10.3050464,1.66889427 9.49780815,2.34628799 9.3215348,2.46445356 C9.14526145,2.58261913 9.23740614,2.61296424 9.23740614,2.83800417 C9.23740614,3.0630441 9.00351258,4.34240004 9.0035126,4.7621348 C9.00351261,5.18186957 8.73938035,5.13568541 8.47374014,5.39201138 C8.20809993,5.64833736 7.73221744,6.27954693 7.73221744,6.66383986 C7.73221744,7.04813279 7.15704726,7.47727689 6.84608869,7.65746565 C6.53513012,7.83765442 6.51481225,8.26813151 6.51481225,8.59636048 C6.51481225,8.92458946 6.40227033,9.53392232 5.92829264,9.74312321 C5.45431495,9.9523241 5.06811678,9.77723205 4.882875,9.59092721 C4.69763321,9.40462238 4.37913481,9.36157467 4.01571488,9.60770719 C3.65229494,9.85383972 2.89704181,10.1732082 2.67822793,10.3562198 C2.45941405,10.5392314 2.18575781,10.3842126 1.8951171,9.90284668 C1.60447639,9.42148077 1.28637482,9.02911149 1.28637482,8.89377389 C1.28637482,8.75843628 1.22542122,8.03376065 0.978273446,8.03376065 C0.731125668,8.03376065 0.453659826,8.10378179 0.25706861,8.10378179 C0.0604773946,8.10378179 -0.155479286,7.35401459 0.168733518,6.7698517 C0.492946323,6.18568881 0.698505998,5.67907452 0.698505971,5.32285277 C0.698505944,4.96663102 0.500962383,4.61315366 0.811920928,4.25599098 C1.12287947,3.8988283 1.3374869,3.56863905 1.33748695,3.45243376 C1.337487,3.33622847 1.34808235,3.21994477 1.52530815,3.10977713 C1.70253395,2.9996095 2.02460391,2.7769219 2.0246038,2.47923406 C2.0246037,2.18154622 2.21171081,1.97893187 2.44496932,1.8713126 C2.67822782,1.76369332 3.48205356,1.50968048 3.7257091,1.31706355 C3.96936464,1.12444661 4.23873529,0.865337046 4.51473275,0.865337046 C4.7907302,0.865337046 5.14561812,0.534520503 5.29050216,0.358487524 C5.4353862,0.182454545 6.2406796,0.192020702 6.54338425,0.192020702 C6.84608889,0.192020702 7.16109476,0.0878907225 7.29887548,0.0878907263 C7.43665621,0.0878907301 8.45016804,0.462578295 8.72684042,0.462578295 C9.0035128,0.462578295 9.36038458,0.401652849 9.36038478,0.189433135 C9.36038499,-0.0227865789 9.88932368,0.094202822 10.0971852,0.278390558 C10.3050467,0.462578295 11.3660991,0.931359205 11.4395928,1.08100685 C11.5130866,1.23065449 11.3504641,1.33078549 11.3504641,1.33078549 Z"></path>
    </defs>
    <g id="Module-Icons" stroke="none" stroke-width="1" fill="none" fill-rule="evenodd" sketch:type="MSPage">
        <g id="Plantings-32px" sketch:type="MSArtboardGroup">
            <g id="PlantingsIcon" sketch:type="MSLayerGroup" transform="translate(0.000000, -3.000000)">
                <g id="pot" transform="translate(3.098765, 12.500000)">
                    <path d="M0.099201655,2.10286111 C0.099201655,2.10286111 0.0178542977,1.7543958 0.47959291,1.49256076 C0.941331522,1.23072571 5.84738599,0.00588667915 12.1414805,0.00588667855 C18.435575,0.00588667795 23.141379,1.20596502 23.6480088,1.49256076 C24.1546387,1.77915649 24.1837602,2.20347451 24.1837602,2.20347451 L12.1414809,4.70060846 L0.099201655,2.10286111 Z" id="back" fill="#EDB686" sketch:type="MSShapeGroup"></path>
                    <path d="M2.41754607,1.95478019 C0.956495678,1.59702038 7.34813037,0.795624565 12.4921871,0.795624565 C17.6362438,0.795624565 23.1303152,1.61872028 22.0978722,1.81488508 C21.0654292,2.01104988 15.114621,5.43305504 15.114621,5.43305504 L7.14834905,4.81853231 C7.14834905,4.81853231 3.87859646,2.31254 2.41754607,1.95478019 Z" id="inside" fill="#835933" sketch:type="MSShapeGroup"></path>
                    <g id="Path-463">
                        <use fill="#57422C" sketch:type="MSShapeGroup" xlink:href="#path-1"></use>
                        <use fill-opacity="0.284398321" fill="none" xlink:href="#path-1"></use>
                    </g>
                    <g id="foreground" transform="translate(0.000000, 1.454371)">
                        <mask id="mask-3" sketch:name="pot shape" fill="white">
                            <use xlink:href="#path-2"></use>
                        </mask>
                        <g id="pot-shape">
                            <use fill="#DA985D" sketch:type="MSShapeGroup" xlink:href="#path-2"></use>
                            <use fill-opacity="0.0226795709" fill="none" xlink:href="#path-2"></use>
                        </g>
                        <path d="M1.86629376,7.07222556 C1.86629376,7.07222556 6.70953901,8.19938162 12.177905,8.19938162 C17.1682993,8.19938162 22.3869076,7.01217165 22.3869076,7.01217165 L22.2179642,7.42589689 C22.2179642,7.42589689 17.7125056,8.71815501 12.177905,8.71815501 C6.64330437,8.71815501 2.04766244,7.5282657 2.04766244,7.5282657 L1.86629376,7.07222556 Z" id="rim-shadow" fill="#8F633B" sketch:type="MSShapeGroup" mask="url(#mask-3)"></path>
                        <path d="M15.3672382,0.926123675 L14.7632103,8.38545154 L13.4433273,8.38545154 L12.6917996,21.9357529 L21.560628,20.6855229 L25.8830144,-2.38367825 L15.8470135,0.534387404 L15.3672382,0.926123675 Z" id="right-shadow" fill-opacity="0.200000018" fill="#88572C" sketch:type="MSShapeGroup" mask="url(#mask-3)"></path>
                        <path d="M11.5484947,2.33699387 C21.2573196,2.33699387 24.1938821,0.634032721 24.1354737,0.503734639 C24.0012608,0.204330518 23.6840713,0 23.2893602,0 C23.2893602,0 20.08777,1.41912008 11.612557,1.41912008 C3.13734391,1.41912008 0.92617622,0 0.92617622,0 C0.498725613,0 0.16219682,0.239508563 0.0505037797,0.580017288 C0.0141674875,0.690792539 1.83966974,2.33699387 11.5484947,2.33699387 Z" id="rim-hilight" fill="#EDB686" sketch:type="MSShapeGroup" mask="url(#mask-3)"></path>
                    </g>
                </g>
                <g id="seedling" transform="translate(0.567901, 0.500000)">
                    <g id="Path-471" transform="translate(14.156492, 7.796857) rotate(21.000000) translate(-14.156492, -7.796857) translate(10.613282, 3.046857)">
                        <mask id="mask-5" sketch:name="Path 471" fill="white">
                            <use xlink:href="#path-4"></use>
                        </mask>
                        <use fill="#5D954C" sketch:type="MSShapeGroup" xlink:href="#path-4"></use>
                        <path d="M-0.182637591,-0.718618304 L-0.867750438,2.16556696 C-0.867750438,2.16556696 3.4934748,3.03306221 4.15311732,3.09466685 C4.81275984,3.1562715 5.09675825,2.92546345 5.41440148,2.75226311 C5.73204471,2.57906278 5.9285149,2.41866283 6.10987693,1.9673192 C6.25042929,1.61753585 6.01214394,1.24901889 5.81854289,0.992334542 C5.32368597,0.336232591 4.2679113,0.0552407924 4.2679113,0.0552407924 L-0.182637591,-0.718618304 Z" id="Path-478" fill="#7DB56B" sketch:type="MSShapeGroup" mask="url(#mask-5)"></path>
                    </g>
                    <g id="Path-474-+-Path-475" transform="translate(14.172840, 4.500000)">
                        <g id="Path-474" transform="translate(1.792550, 0.000000)">
                            <mask id="mask-7" sketch:name="Path 474" fill="white">
                                <use xlink:href="#path-6"></use>
                            </mask>
                            <use fill="#7DDC82" sketch:type="MSShapeGroup" xlink:href="#path-6"></use>
                            <path d="M0.498908196,7.17997991 C0.498908196,7.17997991 3.10405517,5.11862946 5.12460114,3.96730022 C7.14514712,2.81597098 13.7634661,0.188441964 13.7634661,0.188441964 L5.88166158,-2.76928683 L-1.28775443,1.07693304 L0.498908196,7.17997991 Z" id="Path-477" fill-opacity="0.0846354167" fill="#000000" sketch:type="MSShapeGroup" mask="url(#mask-7)"></path>
                        </g>
                        <path d="M0.397781496,10.2326399 C0.397781496,10.2326399 0.618113051,8.5047264 1.6257652,7.50476262 C2.63341735,6.50479884 5.32845539,4.64001359 5.86894823,4.35362595 C6.40944107,4.06723831 10.4296489,2.15040165 10.4296489,2.15040165 C10.4296489,2.15040165 6.39982169,4.12278117 5.07220058,5.09327322 C3.74457948,6.06376528 2.30766297,7.41671795 2.06699855,7.65883259 C1.82633413,7.90094723 1.09364025,9.37885947 0.981510538,9.85963818 C0.869380828,10.3404169 0.890680878,10.8014473 0.890680878,10.8014473 L0.397781496,10.2326399 L0.397781496,10.2326399 Z" id="Path-475" fill="#B7E089" sketch:type="MSShapeGroup"></path>
                    </g>
                    <g id="Path-472-+-Path-475" transform="translate(9.237654, 10.000000) rotate(60.000000) translate(-9.237654, -10.000000) translate(1.138889, 4.500000)">
                        <g id="Path-472" transform="translate(0.506173, 0.330286)">
                            <mask id="mask-9" sketch:name="Path 472" fill="white">
                                <use xlink:href="#path-8"></use>
                            </mask>
                            <use fill="#7DDC82" sketch:type="MSShapeGroup" xlink:href="#path-8"></use>
                            <path d="M8.3489269,-2.02894858 C10.8064017,-2.32796385 11.7710548,1.27496763 11.7710548,1.27496763 C11.7710548,1.27496763 8.3489269,0.95713184 6.97730521,2.18147168 C6.4132587,2.68495207 5.10506663,3.42557314 4.29043867,4.99094099 C3.12409281,7.23216079 2.49668867,10.3903147 2.49668867,10.3903147 L-4.79536039,3.29069986 C-4.79536039,3.29069986 5.28426333,-1.65605311 8.3489269,-2.02894858 Z" id="Path-476" fill-opacity="0.0945425725" fill="#000000" sketch:type="MSShapeGroup" mask="url(#mask-9)"></path>
                        </g>
                        <path d="M16.1173567,3.67545305 C16.1173567,3.67545305 15.294999,2.36183145 14.1217614,1.90049958 C12.9485237,1.43916772 12.382322,1.14410665 11.5484165,1.19056524 C10.714511,1.23702384 8.2057309,1.62617818 7.08352602,2.49603209 C5.96132114,3.365886 4.68574018,4.80394606 4.53688801,5.50686253 C4.38803584,6.20977899 4.04731477,6.96476068 3.88826399,7.12236697 C3.7292132,7.27997326 4.44613224,6.58611335 4.54799935,6.28940557 C4.64986645,5.99269779 5.18198036,4.62391396 5.84790618,4.0916201 C6.513832,3.55932625 7.34226116,2.40464392 8.4295052,2.09695866 C9.51674924,1.7892734 11.3034115,1.50562115 11.7429442,1.59269671 C12.1824769,1.67977226 13.4499627,2.05148013 13.896122,2.37316185 C14.3422812,2.69484358 15.5917117,3.76272471 15.8003662,4.15748545 C16.0090207,4.55224619 16.1173567,3.67545305 16.1173567,3.67545305 Z" id="Path-475" fill="#B7E089" sketch:type="MSShapeGroup"></path>
                    </g>
                </g>
            </g>
        </g>
    </g>
</svg>